<?xml version="1.0" encoding="utf-8"?>
<!-- Generator: Adobe Illustrator 18.1.1, SVG Export Plug-In . SVG Version: 6.00 Build 0)  -->
<svg version="1.1" id="Lager_2" xmlns="http://www.w3.org/2000/svg" xmlns:xlink="http://www.w3.org/1999/xlink" x="0px" y="0px"
	 viewBox="0 0 506.1 768" enable-background="new 0 0 506.1 768" xml:space="preserve">
<g>
	<path fill="#FFFFFF" d="M398.8,745.5c0,0-0.4-7.1-0.7-20.4c-0.4-13.3-0.7-32.9-0.5-57.8c0.1-12.4,0.4-26.2,1-41.2
		c0.6-15,1.6-31.2,3.3-48.5c0.8-8.6,2-17.5,3.3-26.6c1.4-9.1,3.2-18.5,5.6-27.9c0.7-2.4,1.2-4.7,2-7.1c0.8-2.4,1.5-4.7,2.4-7.1
		c0.5-1.2,0.9-2.3,1.4-3.5c0.5-1.2,0.9-2.4,1.5-3.5c0.5-1.2,1.1-2.3,1.7-3.5l0.4-0.9c0.1-0.1,0.2-0.4,0.3-0.5l0.3-0.4
		c0.2-0.3,0.5-0.6,0.8-0.9c0.3-0.3,0.6-0.5,0.8-0.7c2.3-1.6,4.8-2.4,7.3-3.2c2.5-0.7,5-1.5,7.5-2.2c5-1.5,9.9-3.3,14.5-5.8
		c4.6-2.5,8.9-5.7,12.5-9.6c1.8-2,3.5-4.1,4.9-6.3l0.5-0.8l0.5-0.9c0.3-0.6,0.7-1.2,1-1.8c0.6-1.2,1.2-2.4,1.8-3.6
		c2.3-5,4-10.3,5.4-15.7c1.4-5.4,2.6-11,3.6-16.6c1.9-11.3,3.1-22.9,3.5-34.7c0.2-5.9,0.2-11.9-0.2-17.8c-0.1-1.5-0.3-3-0.5-4.4
		c-0.1-0.7-0.2-1.4-0.4-2.1c-0.2-0.7-0.4-1.5-0.6-2.2c-0.8-2.9-1.6-5.9-2.3-8.9c-0.7-2.9-1.4-6-2.5-8.6c-0.1-0.3-0.3-0.6-0.5-0.9
		c-0.2-0.3-0.4-0.5-0.6-0.8c-0.4-0.4-0.9-0.7-1.5-0.8l-0.4-0.1l-0.5,0c-0.2,0-0.3,0-0.5,0l-0.5,0.1l-0.5,0.1c-0.3,0-0.3,0.1-0.7,0.1
		c-0.6,0-1.2-0.1-1.8-0.5c-0.5-0.4-0.8-0.9-1-1.3c-0.2-0.5-0.3-0.9-0.4-1.3c-0.1-0.9-0.2-1.7-0.1-2.5c0-1.6,0.2-3.2,0.5-4.8
		c0.5-3.1,1.1-6.2,1.9-9.3c2.9-12.2,6.5-24.4,9.7-36.8c3.3-12.4,6.4-25,8.6-37.8c1.1-6.4,1.9-12.9,2.2-19.5c0.1-3.3,0.1-6.5-0.2-9.8
		c-0.3-3.2-0.8-6.5-1.9-9.5c-1-3-2.6-5.9-5-7.9c-1.2-1-2.6-2-3.9-3.3c-1.2-1.2-2.4-2.5-3.4-3.9c-4.1-5.5-6.9-11.8-9.3-18.2
		c-2.4-6.4-4.4-12.9-6.4-19.4c-2-6.5-4-13.1-6.2-19.5c-4.3-13-9.5-25.8-16.6-37.6c-7-11.8-16-22.6-26.8-31.4
		c-10.7-8.8-23.2-15.4-36.4-20.2c-6.6-2.4-13.4-4.3-20.2-5.8l-5.2-1.1c-1-0.2-1.7-0.4-2.6-0.6c-0.4-0.1-0.9-0.2-1.3-0.3l-1.3-0.4
		c-3.5-1.2-6.7-2.8-9.8-4.6c-6.2-3.6-11.9-7.8-17.8-11.7c-5.9-3.9-12-7.5-18.3-10.6c-12.7-6.1-26.5-9.7-40.6-11.1
		c-7-0.6-14.1-1-21.2-0.7c-7.1,0.1-14.1,0.8-21.1,1.6c-14,1.7-27.9,4.7-41.6,8.3c-3.4,0.8-6.8,1.9-10.2,2.8l-5.1,1.5
		c-1.6,0.5-3.3,1.1-5,1.6l-5,1.7c-1.7,0.5-3.4,1.1-5,1.7c-3.3,1.3-6.5,2.5-9.8,3.8c-12.9,5.4-25.4,11.9-37,19.6
		c-23.2,15.3-43,35.6-56.8,59.2c-6.9,11.8-12.6,24.2-16.6,37c-1.1,3.2-1.9,6.4-2.8,9.7c-0.8,3.3-1.6,6.5-2.2,9.8
		c-1.3,6.5-2.3,13.1-2.7,19.7c-0.2,3.3-0.4,6.6-0.3,9.9c0.1,3.3,0.2,6.5,1,9.7c0.7,3.4,0.9,6.7,1.2,10c0.2,3.3,0.3,6.6,0.4,9.9
		c0.4,13.1,0.4,26.1,0.5,38.9c0.1,12.8,0.3,25.5,0.8,38c0.2,6.3,0.6,12.5,1,18.6c0.5,6.2,1.1,12.3,2,18.2c0.5,3,1.1,6,1.9,8.8
		c0.8,2.8,1.8,5.7,3.5,7.8c0.8,1,2.2,1.4,3.4,2.6c0.3,0.3,0.6,0.6,0.9,0.9l0.8,0.9c0.5,0.6,0.9,1.3,1.4,1.9c1.6,2.7,2.7,5.5,3.6,8.4
		c1.8,5.8,2.7,11.7,3.3,17.5c0.7,5.8,1,11.7,1.2,17.4c0.2,5.8,0.2,11.5,0.1,17.1c0,2.8-0.1,5.6-0.2,8.4c0,0.7-0.1,1.4,0,2l0.1,2.1
		l0,1l0.1,1l0.3,2c0.9,5.3,2.6,10.6,4.3,15.7c1.8,5.1,3.7,10.1,5.6,15.1c1.9,5,3.7,10,5.3,15c1.5,5,2.9,10.1,3.4,15.3l0.1,2
		c0,0.6,0.1,1.3,0.1,1.9c0.1,1.3,0.2,2.5,0.3,3.7c0.2,2.5,0.6,5,0.9,7.4c0.7,4.9,1.6,9.7,2.5,14.5c3.6,19.1,7.9,37,12.7,53.6
		c2.4,8.3,5,16.3,7.7,23.9c2.8,7.6,5.8,14.8,9.6,21.2c0.5,0.8,1,1.6,1.5,2.4l0.2,0.3c0.1,0.1,0.1,0.1,0.2,0.3
		c0.1,0.2,0.2,0.5,0.3,0.8c0.1,0.5,0.2,1,0.2,1.4c0.2,1.9,0.2,3.7,0.3,5.5c0,3.6,0,7.1-0.1,10.6c-0.2,6.9-0.5,13.4-0.8,19.6
		c-1.3,24.9-2.7,44.4-3.5,57.7c-0.4,6.7-0.7,11.8-0.9,15.2c-0.2,3.4-0.2,5.2-0.2,5.2s0-1.8,0.1-5.2c0.1-3.4,0.4-8.5,0.7-15.2
		c0.7-13.3,1.9-32.8,3-57.7c0.3-6.2,0.5-12.8,0.7-19.6c0.1-3.4,0.1-6.9,0.1-10.5c0-1.8-0.1-3.6-0.3-5.4c-0.1-0.4-0.1-0.9-0.2-1.3
		c-0.1-0.2-0.1-0.3-0.2-0.5c0,0-0.1-0.2-0.2-0.2l-0.2-0.3c-0.5-0.8-1-1.6-1.5-2.4c-3.8-6.5-6.9-13.7-9.8-21.3
		c-2.9-7.6-5.5-15.6-8-23.9c-4.9-16.6-9.4-34.6-13.2-53.7c-0.9-4.8-1.8-9.6-2.5-14.6c-0.4-2.5-0.7-5-1-7.5c-0.1-1.3-0.2-2.6-0.3-3.8
		c0-0.6,0-1.3-0.1-1.9l-0.1-1.9c-0.4-5-1.7-9.9-3.2-14.9c-1.5-5-3.4-9.9-5.2-14.9c-1.9-5-3.8-10-5.6-15.2c-1.8-5.2-3.5-10.4-4.4-16
		l-0.3-2.1l-0.2-1.1l0-1l-0.1-2.1c0-0.8,0-1.4,0-2.2c0.1-2.8,0.2-5.6,0.2-8.4c0.1-5.6,0.1-11.3-0.1-17c-0.2-5.7-0.5-11.5-1.2-17.3
		c-0.7-5.8-1.6-11.6-3.3-17.2c-0.9-2.8-1.9-5.5-3.4-8c-0.4-0.6-0.7-1.2-1.2-1.7l-0.7-0.8c-0.2-0.2-0.5-0.4-0.7-0.7
		c-0.4-0.5-1.1-0.9-1.7-1.3l-1-0.7c-0.3-0.3-0.7-0.6-0.9-0.9c-1.1-1.3-1.8-2.7-2.5-4.2c-0.6-1.5-1.1-2.9-1.5-4.4c-0.8-3-1.4-6-1.9-9
		c-1-6.1-1.6-12.2-2.1-18.4c-0.5-6.2-0.8-12.4-1-18.7c-0.5-12.5-0.6-25.2-0.8-38.1c-0.1-12.8-0.1-25.8-0.5-38.9
		c-0.1-3.3-0.2-6.5-0.4-9.8c-0.2-3.3-0.4-6.6-1.1-9.7c-0.8-3.3-1-6.7-1-10.1c-0.1-3.4,0.1-6.7,0.3-10.1c0.5-6.7,1.4-13.4,2.7-20
		c0.6-3.3,1.5-6.6,2.2-9.9c0.9-3.3,1.8-6.6,2.9-9.8c4.1-13,9.8-25.5,16.8-37.4c14-23.8,33.9-44.4,57.4-59.8
		c11.7-7.8,24.3-14.3,37.3-19.8c3.3-1.3,6.6-2.6,9.9-3.8c1.6-0.7,3.3-1.2,5-1.8l5-1.7c1.7-0.5,3.3-1.1,5.1-1.6l5.1-1.5
		c3.4-1,6.8-2,10.3-2.8c13.7-3.6,27.7-6.6,41.8-8.3c7.1-0.8,14.2-1.5,21.3-1.6c7.1-0.3,14.3,0.1,21.4,0.7
		c14.2,1.4,28.3,5.1,41.2,11.3c6.5,3.1,12.6,6.8,18.6,10.7c6,3.9,11.7,8.1,17.7,11.6c3,1.8,6.2,3.3,9.4,4.4l1.2,0.4
		c0.4,0.1,0.9,0.2,1.3,0.3c0.8,0.2,1.8,0.4,2.5,0.6l5.2,1.1c6.9,1.5,13.8,3.5,20.5,5.9c13.3,4.8,26,11.5,37,20.5
		c11,8.9,20.1,19.9,27.2,31.9c7.2,12,12.4,25,16.8,38c2.2,6.5,4.2,13.1,6.2,19.6c2,6.5,4,13,6.3,19.3c2.4,6.3,5.1,12.5,9,17.7
		c1,1.3,2.1,2.5,3.2,3.7c1.1,1.1,2.4,2.1,3.8,3.2c2.7,2.4,4.5,5.5,5.6,8.8c1.1,3.3,1.7,6.6,2,10c0.3,3.4,0.3,6.7,0.2,10.1
		c-0.3,6.7-1.1,13.2-2.2,19.7c-2.2,13-5.3,25.6-8.6,38c-3.2,12.4-6.8,24.6-9.7,36.8c-0.7,3-1.4,6.1-1.8,9.1c-0.2,1.5-0.4,3-0.4,4.5
		c0,0.7,0,1.5,0.1,2.1c0.1,0.7,0.4,1.3,0.6,1.4c0.1,0.1,0.3,0.1,0.4,0.1c0,0,0.4-0.1,0.4-0.1l0.6-0.1l0.6-0.1c0.2,0,0.4,0,0.7,0
		l0.7,0l0.7,0.1c0.5,0,0.9,0.3,1.4,0.5c0.4,0.2,0.8,0.6,1.1,0.9c0.6,0.7,1.1,1.5,1.4,2.2c1.3,3,1.9,6,2.6,9c0.7,3,1.4,5.9,2.3,8.8
		c0.2,0.7,0.4,1.4,0.6,2.2c0.2,0.8,0.3,1.5,0.5,2.3c0.2,1.5,0.4,3.1,0.5,4.6c0.5,6.1,0.4,12.1,0.2,18c-0.4,11.9-1.6,23.6-3.6,35
		c-1,5.7-2.2,11.3-3.6,16.8c-1.5,5.5-3.2,10.9-5.6,16c-0.6,1.3-1.2,2.5-1.9,3.8c-0.3,0.6-0.7,1.2-1,1.8l-0.5,0.9l-0.6,0.9
		c-1.5,2.4-3.3,4.5-5.1,6.6c-3.8,4.1-8.3,7.4-13,10c-4.8,2.6-9.8,4.4-14.9,5.9c-2.5,0.7-5,1.5-7.5,2.2c-2.4,0.8-4.9,1.6-6.7,2.9
		c-0.2,0.2-0.4,0.4-0.6,0.5c-0.2,0.2-0.3,0.3-0.5,0.5l-0.3,0.4c-0.1,0.2-0.1,0.2-0.2,0.3l-0.4,0.8c-0.5,1.1-1.1,2.3-1.6,3.4
		c-0.6,1.1-1,2.3-1.5,3.4c-0.5,1.2-0.9,2.3-1.3,3.5c-0.9,2.3-1.6,4.7-2.3,7c-0.7,2.3-1.3,4.7-2,7c-2.5,9.4-4.3,18.6-5.8,27.7
		c-1.4,9.1-2.6,17.9-3.5,26.5c-1.9,17.2-3,33.4-3.8,48.4c-0.8,15-1.2,28.7-1.4,41.2c-0.5,24.9-0.2,44.4,0,57.8
		C398.5,738.4,398.8,745.5,398.8,745.5z"/>
</g>
<path fill="none" stroke="#FFFFFF" stroke-width="2" stroke-miterlimit="10" d="M75.4,568.9c0,0,9.1,67.8,86,142.9
	c7,6.8,53.2,28.7,97.8,5.4c58-30.3,76-49.6,101.2-96.4c24.3-45.2,25.1-34.5,47.9-114.6c3-10.7,12.8-8.3,12.8-8.3"/>
<g>
	<path fill="#FFFFFF" d="M131.7,579.7c0,0,0.8,0.9,2.4,2.7c1.6,1.8,3.9,4.3,6.9,7.5c3,3.2,6.8,6.9,11.3,11.1
		c2.3,2.1,4.7,4.2,7.4,6.3c2.7,2.1,5.6,4.2,8.8,6.1c1.6,0.9,3.3,1.7,5.1,2c0.4,0.1,0.9,0.1,1.3,0.2c0.5,0,1,0,1.5,0c1,0,2,0,3-0.1
		c4-0.1,8.2-0.3,12.5-0.6c4.3-0.3,8.7-0.6,13.2-1c2.2-0.2,4.5-0.4,6.8-0.8c2.3-0.3,4.6-0.6,6.7-1.4c4.3-1.7,8.6-3.9,12.8-6.2
		c4.2-2.3,8.5-4.8,12.6-7.5c8.3-5.4,16.5-11.3,23.2-18.7c0.2-0.2,0.4-0.5,0.6-0.7c0.2-0.2,0.3-0.5,0.3-0.6c0-0.2,0-0.1-0.1-0.2
		c-0.1-0.1-0.4-0.2-0.7-0.2c-1.1-0.2-2.4-0.2-3.7-0.3c-2.5-0.2-5.1-0.5-7.6-1.2c-1.2-0.4-2.5-0.8-3.6-1.3l-3.4-1.6
		c-2.2-1-4.5-2-6.8-3c-9.1-3.8-18.2-7.4-27-10.5c-0.3-0.1-0.5-0.2-0.7-0.2l-0.9-0.2c-0.5-0.1-1-0.2-1.6-0.2c-1.1,0-2.1,0.1-3.2,0.3
		c-2.1,0.5-4,1.6-5.7,2.9c-1.8,1.3-3.3,2.8-4.8,4.4c-1.5,1.6-2.7,3.3-4.2,5c-0.1,0.1-0.2,0.2-0.3,0.4l-0.3,0.2
		c-0.1,0.1-0.2,0.1-0.4,0.2c-0.2,0.1-0.2,0.1-0.2,0.1l-0.8,0.1c-0.5,0.1-1.1,0.2-1.6,0.3c-1.1,0.2-2.3,0.3-3.4,0.1
		c-1.2-0.1-2.3-0.5-3.3-1.1c-0.4-0.2-0.9-0.6-1.3-0.9c-0.4-0.3-0.8-0.6-1.2-1c-3.2-2.6-6.1-5.1-9.4-6.8c-0.4-0.2-0.8-0.4-1.2-0.5
		c-0.4-0.2-0.8-0.3-1.2-0.4c-0.4-0.1-0.8-0.2-1.2-0.2c-0.4,0-0.8,0-1.2,0c-1.8,0.2-3.5,0.5-5.1,0.8c-3.3,0.8-6.4,1.8-9.1,3.1
		c-1.4,0.7-2.6,1.4-3.7,2.3c-0.3,0.2-0.5,0.5-0.8,0.7c-0.3,0.2-0.5,0.5-0.8,0.7c-0.5,0.5-1.1,0.9-1.7,1.3c-1.1,0.7-2.3,1.3-3.4,1.8
		c-1.1,0.5-2.2,0.9-3.3,1.2c-2.1,0.6-4.1,1-5.8,1.3c-0.8,0.1-1.7,0.2-2.3,0.3c-0.7,0.1-1.2,0.5-1.2,1.1c0.1,1.1,0.6,1.9,0.9,2.4
		C131.5,579.4,131.7,579.7,131.7,579.7z M131.6,579.8c0,0-0.2-0.3-0.5-0.8c-0.3-0.5-0.9-1.3-1-2.5c0-0.2,0-0.3,0.1-0.5
		c0.1-0.1,0.1-0.3,0.3-0.4c0.1-0.1,0.1-0.1,0.2-0.2l0.3-0.1c0.2-0.1,0.3-0.1,0.5-0.1c0.7-0.1,1.5-0.2,2.4-0.3
		c1.7-0.3,3.6-0.7,5.7-1.4c2.1-0.7,4.4-1.6,6.5-3.1c0.5-0.4,1-0.8,1.5-1.2c0.2-0.2,0.5-0.5,0.7-0.7c0.3-0.2,0.5-0.5,0.8-0.8
		c1.1-1,2.4-1.8,3.8-2.5c2.7-1.5,5.8-2.6,9.2-3.6c1.7-0.5,3.4-0.8,5.3-1.1c0.4-0.1,1-0.1,1.5-0.1c0.5,0,1,0.1,1.5,0.2
		c0.5,0.1,1,0.3,1.4,0.4c0.5,0.2,0.9,0.4,1.4,0.6c3.6,1.7,6.7,4.3,9.9,6.7c0.4,0.3,0.8,0.6,1.2,0.9c0.4,0.3,0.8,0.5,1.2,0.8
		c0.7,0.5,1.6,0.7,2.5,0.9c0.9,0.1,1.9,0.1,2.9-0.1c0.5-0.1,1-0.2,1.5-0.3l0.8-0.2c0.1,0,0.1,0,0,0c-0.1,0-0.2,0.1-0.2,0.1
		c0,0,0,0,0,0l0.2-0.2c1.3-1.6,2.7-3.4,4.2-5.1c1.5-1.7,3.2-3.3,5.1-4.7c1.9-1.4,4.1-2.6,6.5-3.2c1.2-0.3,2.5-0.4,3.8-0.4
		c0.6,0,1.3,0.1,1.9,0.2l0.9,0.2c0.4,0.1,0.7,0.2,0.9,0.3c4.5,1.6,8.9,3.4,13.4,5.2c4.5,1.8,9.1,3.7,13.6,5.7c2.3,1,4.5,2.1,6.8,3.2
		l3.3,1.7c1.1,0.5,2.2,1,3.4,1.3c2.3,0.7,4.8,1.1,7.2,1.4c1.2,0.1,2.5,0.2,3.8,0.5c0.3,0.1,0.7,0.2,1.1,0.4c0.2,0.1,0.4,0.4,0.5,0.7
		c0.1,0.3,0,0.6,0,0.8c-0.1,0.4-0.3,0.7-0.5,1c-0.2,0.3-0.4,0.5-0.6,0.8c-3.5,3.7-7.4,6.9-11.4,9.9c-4,3-8.1,5.9-12.3,8.5
		c-4.2,2.7-8.4,5.2-12.6,7.6c-4.3,2.3-8.4,4.7-12.8,6.6l-0.8,0.3l-0.9,0.3c-0.6,0.2-1.2,0.3-1.7,0.4c-1.2,0.2-2.3,0.5-3.5,0.6
		c-2.3,0.4-4.6,0.7-6.8,0.9c-4.5,0.6-8.9,1-13.3,1.3c-4.3,0.3-8.5,0.6-12.6,0.7c-1,0-2,0-3,0c-0.5,0-1,0-1.5,0
		c-0.5-0.1-1.1-0.1-1.6-0.2c-2.1-0.5-3.9-1.4-5.5-2.3c-3.3-2-6.2-4.3-8.8-6.5c-2.6-2.3-5-4.5-7.2-6.6c-4.4-4.3-8-8.2-11-11.5
		C134.8,583.6,131.6,579.8,131.6,579.8z"/>
</g>
<g>
	<path fill="#FFFFFF" d="M267.2,576.9c0,0-0.5,0.1-1.5,0.2c-1,0.1-2.5,0.3-4.3,0.5c-1.9,0.2-4.1,0.5-6.8,0.7
		c-2.6,0.3-5.6,0.5-8.8,0.9c-3.2,0.3-6.7,0.6-10.4,0.9c-3.7,0.3-7.6,0.5-11.6,0.8c-4,0.3-8.2,0.7-12.4,1.4c-1,0.1-2.1,0.4-3.1,0.6
		c-1,0.2-2.1,0.4-3.1,0.7c-1,0.3-2.1,0.5-3,0.9l-0.7,0.3l-0.4,0.1l-0.4,0.2c-0.5,0.2-1,0.4-1.5,0.6c-4.2,1.5-8.7,1.7-13,1.2
		c-2.2-0.2-4.3-0.6-6.3-1.2l-0.8-0.2l-0.2-0.1l-0.1,0l-0.1,0c-0.1,0,0.1,0,0,0c-0.1,0-0.3-0.1-0.3-0.1l-1.4-0.1c-1-0.1-2-0.2-3-0.3
		c-4-0.3-7.9-0.7-11.6-1.2c-3.7-0.5-7.2-1-10.4-1.6c-3.2-0.6-6.1-1.2-8.7-1.9c-2.6-0.7-4.8-1.4-6.5-2.1c-1.8-0.7-3.1-1.4-4-2
		c-0.4-0.3-0.7-0.5-1-0.7c-0.2-0.2-0.3-0.2-0.3-0.2l0.1-0.2c0,0,0.1,0.1,0.3,0.2c0.2,0.1,0.5,0.3,1,0.5c0.9,0.5,2.3,1,4,1.5
		c1.8,0.5,4,1.1,6.5,1.6c2.6,0.5,5.5,1,8.6,1.4c3.2,0.5,6.6,0.9,10.3,1.3c3.7,0.4,7.5,0.8,11.6,1.2c1,0.1,2,0.2,3,0.3l0.8,0.1
		c0.3,0,0.5,0.1,0.9,0.1c0.2,0,0.3,0.1,0.4,0.1l0.4,0.1l0.7,0.2c1.9,0.6,4,1,6,1.3c2.1,0.3,4.1,0.4,6.2,0.4c2.1,0,4.2-0.3,6.2-0.9
		c0.5-0.1,1-0.4,1.5-0.5l0.4-0.1l0.4-0.1l0.8-0.3c1.1-0.4,2.1-0.6,3.2-0.8c1.1-0.3,2.1-0.4,3.2-0.6c1.1-0.2,2.1-0.4,3.2-0.5
		c4.2-0.6,8.3-1.3,12.3-1.9c2-0.3,4-0.6,5.9-0.8c1.9-0.3,3.8-0.5,5.7-0.7c3.7-0.4,7.2-0.6,10.4-0.9c6.5-0.4,11.8-0.6,15.6-0.7
		c1.9,0,3.4,0,4.4-0.1c1,0,1.6,0,1.6,0L267.2,576.9z"/>
</g>
<g>
	<path fill="#FFFFFF" d="M210.8,451.1c0,0,0.3-0.2,0.8-0.4c0.6-0.2,1.5-0.4,2.6-0.5c2.4-0.1,5.9,0.9,9.4,3.5
		c1.8,1.3,3.6,2.9,5.4,4.8c1.8,1.9,3.7,4.1,5.4,6.7c1.7,2.6,3.2,5.5,4.4,8.8c1.1,3.3,1.9,6.9,1.9,10.7c0,1.9-0.1,3.9-0.5,5.8
		c-0.4,2-1,3.9-2.2,5.8c-0.3,0.5-0.7,0.9-1.1,1.3c-0.2,0.2-0.5,0.4-0.9,0.5c-0.2,0.1-0.4,0.1-0.6,0.1l-0.4,0c-1.1,0-2.2-0.3-3.2-0.6
		c-2.1-0.6-4.1-1.6-5.9-2.7c-1.9-1.1-3.7-2.4-5.4-3.9c-0.9-0.7-1.7-1.5-2.5-2.3c-0.8-0.8-1.6-1.7-2.4-2.3c-1.6-1.2-3.8-1.9-5.9-2.2
		c-2.2-0.3-4.5-0.2-6.7,0c-2.3,0.3-4.5,0.8-6.7,1.6c-1.1,0.4-2.1,0.9-3,1.5c-0.5,0.3-0.8,0.6-1.1,1l-1.1,1.4
		c-3,3.8-6.7,7.5-11.5,9.5c-1.2,0.5-2.5,0.9-3.7,1.1l-0.2,0l-0.2,0l-0.1,0l-0.5,0.1c-0.3,0-0.7,0-1,0.1c-0.7,0-1.3,0-2-0.1
		c-2.6-0.3-5.1-1-7.4-2c-4.7-2-9.1-5-12.5-8.8c-1.7-1.9-3.2-4.1-4.3-6.5c-0.3-0.6-0.5-1.2-0.8-1.8c-0.1-0.3-0.3-0.7-0.3-0.7
		c0-0.1,0,0.1,0.3,0.2c0.4,0,0.4-0.1,0.4-0.1c-0.1,0.1-0.2,0.3-0.4,0.5c-0.1,0.2-0.3,0.5-0.4,0.8c-0.3,0.5-0.6,1.1-0.8,1.6
		c-1.1,2.2-2.2,4.5-3.8,6.6c-0.2,0.3-0.4,0.5-0.6,0.8c-0.2,0.2-0.1,0.1-0.2,0.2c-0.1,0.1-0.3,0.2-0.4,0.3c-0.3,0.1-0.6,0.2-0.9,0.2
		c-0.6,0-1-0.3-1.3-0.5c-0.3-0.2-0.6-0.5-0.9-0.7c-1-1-1.6-2.2-2.1-3.4c-2-4.8-2.3-10-1.5-14.9c0.8-4.9,2.9-9.5,5.6-13.4
		c5.2-7.7,9-15.9,12.1-23.9c1.5-4,2.9-7.9,4.2-11.8c0.2-0.5,0.3-0.9,0.5-1.4c0.1-0.5,0.3-1,0.4-1.4c0.2-0.9,0.4-1.9,0.6-2.8
		c0.3-1.9,0.5-3.8,0.6-5.7c0.3-3.7,0.3-7.3,0.4-10.7c0-3.4,0-6.7,0-9.7c0-6.1-0.1-11.4-0.1-15.8c0-4.4,0.1-7.8,0.2-10.2
		c0.1-2.3,0.1-3.6,0.1-3.6s-0.1,5,0.1,13.8c0.1,4.4,0.3,9.7,0.4,15.8c0.2,6.1,0.4,13,0,20.5c-0.1,1.9-0.3,3.8-0.5,5.8
		c-0.1,1-0.3,2-0.5,3c-0.1,0.5-0.3,1-0.4,1.5c-0.2,0.5-0.3,1-0.5,1.5c-1.2,3.9-2.5,7.9-4,11.9c-3,8.1-6.7,16.5-12,24.4
		c-2.6,3.8-4.5,8.1-5.2,12.8c-0.8,4.6-0.4,9.5,1.4,13.8c0.5,1.1,1.1,2.1,1.8,2.9c0.3,0.4,0.8,0.7,0.9,0.6c0,0,0,0,0,0c0,0,0,0-0.1,0
		c0,0,0.1-0.1,0.1-0.1c0.2-0.2,0.4-0.5,0.5-0.7c1.4-1.9,2.5-4.1,3.6-6.3c0.3-0.6,0.5-1.1,0.9-1.7c0.2-0.3,0.3-0.6,0.5-0.9
		c0.2-0.3,0.4-0.6,0.8-1c0.1-0.1,0.2-0.2,0.4-0.3c0.2-0.1,0.5-0.2,0.8-0.1c0.7,0.2,0.9,0.5,1,0.7c0.1,0.2,0.2,0.4,0.3,0.6l0.2,0.4
		c0.2,0.6,0.5,1.1,0.7,1.7c1,2.2,2.4,4.2,4,6c3.2,3.6,7.3,6.5,11.8,8.4c2.2,0.9,4.6,1.6,6.9,1.9c0.6,0.1,1.2,0.1,1.7,0.1
		c0.3,0,0.5,0,0.8,0l0.5-0.1l0.1,0c0,0,0.1,0,0.1,0l0.2,0c1.1-0.2,2.3-0.5,3.4-1c4.4-1.8,7.9-5.2,10.8-8.9l1.1-1.4
		c0.4-0.6,1-1,1.6-1.4c1.1-0.7,2.3-1.2,3.4-1.6c2.3-0.8,4.7-1.4,7.1-1.7c2.4-0.3,4.8-0.3,7.2,0c2.4,0.3,4.7,1.1,6.7,2.6
		c0.6,0.4,0.9,0.8,1.3,1.2l1.1,1.2c0.8,0.8,1.6,1.5,2.4,2.2c1.6,1.4,3.3,2.7,5.1,3.8c1.8,1.1,3.7,2,5.6,2.6c1,0.3,1.9,0.5,2.9,0.6
		l0.3,0c0,0,0.1,0,0.2,0c0.1,0,0.3-0.1,0.5-0.3c0.3-0.3,0.6-0.6,0.9-1c1-1.6,1.7-3.5,2.1-5.3c0.4-1.9,0.6-3.7,0.6-5.6
		c0-7.4-2.6-14-5.8-19.1c-1.6-2.6-3.4-4.8-5.1-6.7c-1.8-1.9-3.5-3.6-5.3-4.9c-1.7-1.3-3.5-2.3-5-2.9c-1.6-0.6-3-0.8-4.2-0.8
		c-1.2,0-2.1,0.2-2.6,0.4C211,450.9,210.8,451.1,210.8,451.1z"/>
</g>
<path fill="none" stroke="#FFFFFF" stroke-width="1.5" stroke-miterlimit="10" d="M250.5,368.6c0,0,33.3-46.1,74.2-6.8
	C329.4,366.3,281,384.7,250.5,368.6z"/>
<g>
	<path fill="none" d="M254.3,368.9"/>
</g>
<g>
	<path fill="#FFFFFF" d="M241.3,360.5c0,0,1-1.3,3.1-3.3c2.1-2,5.1-4.9,9-7.8c2-1.5,4.2-3,6.6-4.5c2.4-1.5,5.1-2.9,7.9-4.2
		c2.8-1.3,5.9-2.4,9-3.4c1.6-0.4,3.2-0.9,4.8-1.2c0.8-0.2,1.6-0.3,2.5-0.5l2.5-0.3c0.8-0.1,1.7-0.2,2.5-0.2l2.5-0.1
		c0.8,0,1.7,0,2.5,0c0.8,0,1.7,0,2.5,0.1c1.6,0.2,3.3,0.2,4.8,0.6c0.8,0.1,1.6,0.3,2.4,0.4c0.8,0.2,1.5,0.4,2.3,0.6
		c0.8,0.2,1.5,0.4,2.2,0.6c0.7,0.3,1.4,0.5,2.1,0.8c0.7,0.3,1.4,0.5,2.1,0.8c0.7,0.3,1.3,0.6,2,0.9c2.6,1.1,4.9,2.5,7.1,3.7
		c2.1,1.4,4,2.6,5.5,3.9c1.6,1.3,3,2.3,4,3.3c2.1,1.9,3.3,3.1,3.3,3.1s-1.3-1-3.6-2.8c-1.1-0.9-2.6-1.9-4.2-3
		c-0.4-0.3-0.8-0.6-1.3-0.9c-0.4-0.3-0.9-0.5-1.4-0.8c-1-0.6-2-1.2-3-1.8c-2.2-1.1-4.5-2.4-7.1-3.4c-0.6-0.3-1.3-0.5-2-0.8
		c-0.7-0.2-1.4-0.4-2.1-0.7c-0.7-0.2-1.4-0.4-2.1-0.7c-0.7-0.2-1.5-0.3-2.2-0.5c-0.7-0.2-1.5-0.4-2.2-0.5c-0.8-0.1-1.5-0.2-2.3-0.4
		c-1.5-0.3-3.1-0.3-4.7-0.5c-0.8-0.1-1.6-0.1-2.4-0.1c-0.8,0-1.6,0-2.4,0l-2.4,0.2c-0.8,0-1.6,0.1-2.4,0.2l-2.4,0.3
		c-0.8,0.1-1.6,0.3-2.4,0.4c-1.6,0.3-3.1,0.7-4.7,1.1c-3,0.9-6,1.9-8.8,3.1c-2.8,1.2-5.4,2.5-7.9,3.9c-2.4,1.4-4.7,2.8-6.7,4.1
		c-2,1.4-3.8,2.7-5.4,3.9c-1.6,1.2-2.9,2.3-4,3.3c-1.1,0.9-1.9,1.7-2.5,2.2C241.6,360.2,241.3,360.5,241.3,360.5z"/>
</g>
<g>
	<path fill="#FFFFFF" d="M312.2,352.1c0,0,0.1,0.3,0.2,0.7c0.1,0.5,0.2,1.2,0.3,2.1c0.1,0.9,0.2,2,0.1,3.3c-0.1,1.3-0.1,2.7-0.5,4.3
		c-0.1,0.8-0.5,1.6-0.7,2.4c-0.4,0.8-0.7,1.6-1.3,2.4c-0.5,0.8-1.2,1.5-1.8,2.3c-0.8,0.6-1.5,1.3-2.4,1.8l-0.7,0.4
		c-0.1,0.1-0.2,0.1-0.4,0.2l-0.3,0.1c-0.4,0.2-0.9,0.4-1.5,0.6c-1,0.3-2.1,0.6-3.1,0.7c-2.1,0.3-4.3,0.2-6.4-0.2
		c-2.1-0.4-4.2-1-6.1-1.9c-1.9-0.9-3.7-2.1-5.1-3.5c-1.5-1.4-2.6-3-3.4-4.7c-0.8-1.7-1.2-3.4-1.4-5c-0.2-1.6-0.1-3.1,0-4.3
		c0.2-1.3,0.4-2.4,0.6-3.2c0.2-0.9,0.5-1.6,0.6-2c0.2-0.5,0.3-0.7,0.3-0.7s-0.1,0.3-0.1,0.7c-0.1,0.5-0.3,1.2-0.4,2.1
		c-0.1,0.9-0.3,2-0.3,3.2c0,0.6,0,1.3,0.1,2c0,0.7,0.2,1.4,0.3,2.1c0.3,1.5,0.8,3,1.6,4.5c0.8,1.5,1.9,2.9,3.3,4.1
		c1.4,1.2,3,2.2,4.8,3.1c1.8,0.8,3.7,1.4,5.6,1.7c1.9,0.4,3.9,0.4,5.9,0.2c1-0.1,1.9-0.3,2.8-0.5c0.4-0.1,0.9-0.3,1.3-0.5l0.3-0.1
		c0,0,0.2-0.1,0.3-0.1l0.6-0.3c0.8-0.4,1.5-1,2.2-1.5c0.6-0.6,1.2-1.2,1.7-1.9c0.5-0.6,0.9-1.4,1.3-2.1c0.3-0.7,0.7-1.4,0.8-2.2
		c0.5-1.4,0.7-2.8,0.9-4c0.1-1.2,0.2-2.3,0.2-3.2C312.3,353.2,312.2,352.1,312.2,352.1z"/>
</g>
<g>
	<path fill="#FFFFFF" d="M302.5,356.8c0,0,0,0.2,0,0.5c0,0.3-0.1,0.9-0.2,1.5c-0.2,0.6-0.4,1.4-0.9,2.2c-0.5,0.8-1.2,1.6-2.1,2.3
		c-0.9,0.7-2.1,1.2-3.4,1.5c-0.3,0.1-0.7,0.1-1,0.1c-0.3,0-0.6,0-1,0c-0.8,0-1.5-0.2-2.2-0.5c-0.7-0.3-1.4-0.7-2-1.1
		c-0.6-0.5-1.2-1.1-1.7-1.7c-1-1.3-1.5-3-1.5-4.7c0-0.5,0-0.7,0.1-1.2c0.1-0.5,0.2-0.8,0.3-1.2c0.3-0.8,0.6-1.5,1.1-2.2
		c0.5-0.7,1-1.3,1.7-1.7c0.6-0.5,1.3-0.9,2-1.1c1.4-0.5,2.9-0.6,4.2-0.4c1.4,0.3,2.5,0.8,3.4,1.5c0.9,0.7,1.6,1.5,2.1,2.3
		c0.5,0.8,0.7,1.5,0.9,2.2c0.2,0.6,0.2,1.1,0.2,1.5C302.5,356.6,302.5,356.8,302.5,356.8z M302.5,356.8c0,0,0-0.2,0-0.5
		c0-0.3-0.1-0.9-0.3-1.5c-0.2-0.6-0.5-1.4-1-2.1c-0.5-0.7-1.2-1.5-2.2-2c-0.9-0.5-2.1-0.9-3.2-1c-1.2-0.1-2.5,0.2-3.6,0.8
		c-1.1,0.6-2.1,1.5-2.8,2.6c-0.3,0.6-0.6,1.1-0.8,1.8c-0.1,0.3-0.2,0.6-0.2,0.9c-0.1,0.2-0.1,0.7-0.1,1c0,0.6,0.1,1.3,0.3,1.9
		c0.2,0.6,0.4,1.2,0.8,1.8c0.7,1.1,1.6,2,2.8,2.6c0.6,0.3,1.2,0.5,1.7,0.6c0.3,0.1,0.6,0.1,0.9,0.1c0.3,0,0.6,0,0.9,0
		c1.2-0.1,2.3-0.4,3.3-1c0.9-0.5,1.6-1.3,2.2-2c0.5-0.7,0.8-1.5,1-2.1c0.2-0.6,0.2-1.1,0.3-1.5C302.5,357,302.5,356.8,302.5,356.8z"
		/>
</g>
<path fill="none" stroke="#FFFFFF" stroke-width="1.5" stroke-miterlimit="10" d="M136.9,366.1c0,0-24.7-34.6-60.8-4.3
	C74.2,363.4,107,387.8,136.9,366.1z"/>
<g>
	<path fill="#FFFFFF" d="M115.2,365c0,0-0.1,0.1-0.4,0.4c-0.3,0.2-0.7,0.6-1.2,0.9c-0.6,0.3-1.3,0.7-2.2,0.9c-0.9,0.2-2,0.3-3.1,0.2
		c-1.2-0.1-2.4-0.6-3.5-1.3c-0.3-0.2-0.5-0.4-0.8-0.6c-0.2-0.2-0.5-0.4-0.7-0.7c-0.5-0.6-0.9-1.2-1.3-1.9c-0.3-0.7-0.6-1.5-0.7-2.3
		c-0.1-0.8-0.1-1.6,0-2.4c0.2-1.7,1-3.2,2.2-4.5c0.5-0.5,1.3-1.1,2-1.5c0.7-0.4,1.5-0.7,2.4-0.8c0.8-0.1,1.6-0.2,2.4-0.1
		c0.8,0.1,1.6,0.3,2.3,0.6c1.4,0.6,2.6,1.6,3.4,2.7c0.8,1.1,1.3,2.3,1.5,3.5c0.2,1.2,0.1,2.2-0.1,3.1c-0.2,0.9-0.5,1.7-0.9,2.2
		c-0.3,0.6-0.6,1-0.9,1.3C115.3,364.8,115.2,365,115.2,365z M115.2,365c0,0,0.1-0.1,0.3-0.4c0.2-0.3,0.5-0.7,0.8-1.3
		c0.3-0.6,0.6-1.3,0.7-2.2c0.1-0.9,0.1-1.9-0.2-3c-0.3-1.1-0.9-2.1-1.7-3c-0.9-0.9-2-1.6-3.2-1.9c-1.2-0.4-2.6-0.4-3.8,0
		c-0.6,0.2-1.2,0.4-1.8,0.7c-0.6,0.4-1,0.7-1.6,1.3c-0.4,0.4-0.8,1-1.1,1.5c-0.3,0.6-0.5,1.2-0.7,1.8c-0.3,1.3-0.2,2.6,0.2,3.8
		c0.2,0.6,0.5,1.2,0.8,1.7c0.1,0.3,0.4,0.5,0.6,0.8c0.2,0.2,0.4,0.4,0.6,0.6c0.9,0.8,2,1.3,3.1,1.6c1.1,0.3,2.1,0.2,3,0.1
		c0.9-0.2,1.6-0.5,2.2-0.8c0.6-0.3,1-0.7,1.2-0.9C115.1,365.1,115.2,365,115.2,365z"/>
</g>
<g>
	<path fill="#FFFFFF" d="M95.9,350.7c0,0-0.3,0.9-0.7,2.6c-0.4,1.7-0.8,4.1-0.8,7c0,1.4,0.2,3,0.7,4.5c0.5,1.5,1.3,3,2.5,4.2
		c0.6,0.6,1.3,1.1,2.1,1.6l0.6,0.3l0.1,0.1l0.1,0.1l0.3,0.1c0.4,0.2,0.9,0.4,1.3,0.6c1.7,0.7,3.5,1.3,5.4,1.6
		c1.9,0.3,3.7,0.4,5.6,0.1c1.8-0.3,3.6-0.8,5.1-1.6c0.8-0.4,1.4-0.9,2-1.5c0.3-0.3,0.5-0.6,0.8-1c0.3-0.3,0.5-0.7,0.7-1
		c1-1.4,1.8-2.7,2.3-4c0.6-1.3,0.9-2.6,1.1-3.7c0.2-1.2,0.1-2.2,0-3c-0.1-0.8-0.2-1.5-0.4-1.9c-0.1-0.4-0.2-0.7-0.2-0.7
		s0.1,0.2,0.3,0.6c0.2,0.4,0.5,1.1,0.7,1.9c0.2,0.9,0.4,1.9,0.3,3.2c0,1.2-0.3,2.6-0.8,4.1c-0.5,1.5-1.2,3-2.2,4.4
		c-0.2,0.4-0.5,0.7-0.7,1.1c-0.2,0.4-0.5,0.7-0.8,1.1c-0.7,0.8-1.4,1.4-2.3,1.9c-1.7,1.1-3.6,1.7-5.7,2c-2,0.3-4.1,0.3-6.2-0.1
		c-2-0.3-4-1-5.9-1.8c-0.4-0.2-0.9-0.4-1.3-0.6l-0.3-0.2l-0.2-0.1l-0.2-0.1l-0.7-0.4c-0.9-0.6-1.7-1.2-2.4-1.9
		c-1.4-1.4-2.3-3.3-2.7-5c-0.5-1.7-0.5-3.4-0.4-4.9c0.1-1.5,0.3-2.9,0.6-4.1c0.3-1.2,0.6-2.2,0.9-3
		C95.4,351.6,95.9,350.7,95.9,350.7z"/>
</g>
<g>
	<path fill="#FFFFFF" d="M40,372.6c0,0,0.2-0.9,0.6-2.7c0.4-1.8,0.9-4.4,1.4-7.8c0.5-3.4,1.1-7.7,1.4-12.7c0.2-2.5,0.2-5.2,0-8.1
		c-0.1-1.4-0.2-2.9-0.5-4.4c-0.1-0.8-0.3-1.5-0.4-2.3c-0.1-0.8-0.3-1.6-0.4-2.4c-0.8-6.4-1.1-13.6-1.2-21.4
		c-0.1-7.8,0-16.3,0.4-25.3c0.1-2.3,0.3-4.5,0.5-6.9c0.2-2.3,0.5-4.7,1-7.1c0.1-0.6,0.4-1.2,0.6-1.8c0.2-0.6,0.4-1.1,0.5-1.7
		c0.3-1.2,0.6-2.3,0.9-3.5c0.5-2.4,1.1-4.8,1.7-7.3c2.2-9.9,4.5-20.3,7.5-31c1.5-5.4,3.1-10.8,5-16.3c1.9-5.5,4.1-11,7.2-16.2
		c0.8-1.3,1.7-2.6,2.7-3.7c0.5-0.6,1-1.2,1.6-1.7c0.6-0.6,1.1-1,1.7-1.5c2.3-1.9,4.5-4,6.4-6.4c4-4.7,7.3-10,10.6-15.4
		c3.3-5.4,6.8-11,11.6-15.6c2.4-2.3,5.2-4.3,8.3-5.7c3.1-1.4,6.4-2.3,9.8-2.7c3.4-0.4,6.8-0.3,10.2,0c0.8,0.1,1.7,0.2,2.5,0.3
		c0.9,0.1,1.7,0.2,2.5,0.4c1.7,0.3,3.3,0.6,5,1c6.7,1.3,13.4,1.8,20.3,1.8c6.9,0,13.8-0.7,20.7-1.9c6.9-1.2,13.7-3,20.3-5.5
		c6.6-2.5,13-5.7,18.8-10c0.8-0.5,1.5-1,2.3-1.5c0.8-0.5,1.7-0.9,2.5-1.3l1.3-0.6l1.3-0.5c0.9-0.3,1.8-0.6,2.7-0.8
		c3.6-1,7.3-1.4,11-1.6c7.4-0.3,14.7,0.5,22,1.2c7.3,0.7,14.6,1.4,21.8,0.5c3.6-0.5,7-1.5,10-3.4l0.3-0.2c0.3-0.1,0.3-0.1,0.4-0.2
		l0.6-0.3l0.3-0.2c0.1,0,0.3-0.1,0.4-0.1l0.8-0.2c0.5-0.2,1-0.2,1.5-0.3l0.7-0.1l0.7,0c2-0.1,3.9,0.2,5.7,0.5
		c3.7,0.7,7.3,1.9,10.8,3.3c3.5,1.4,6.9,3,10.2,4.6c6.6,3.4,13,7.3,19.1,11.5c6.1,4.3,11.9,8.9,17.2,14.2c2.6,2.7,5.1,5.5,7.1,8.7
		l1.5,2.3c0.5,0.8,0.9,1.7,1.3,2.5l1.3,2.5c0.4,0.8,0.7,1.7,1.1,2.5c3,6.8,5.2,13.9,6.8,21c1.6,7.2,2.6,14.4,3.2,21.6
		c0.6,7.2,0.5,14.5,0.1,21.7c-0.4,7.2-1.6,14.3-3.2,21.2c-0.5,1.7-0.9,3.4-1.4,5.1c-0.5,1.7-1,3.4-1.3,5c-0.7,3.3-1.4,6.8-1.1,10.1
		c0.1,1.6,0.5,3.3,1.2,4.6c0.8,1.3,1.9,2.4,3.4,3.1c1.4,0.7,3.1,1,4.7,1.3c1.7,0.3,3.4,0.5,5.1,0.9c0.9,0.2,1.8,0.5,2.6,1
		c0.8,0.5,1.6,1.2,2,2.1c0.3,0.5,0.4,0.8,0.6,1.2l0.5,1.2l1,2.3c1.4,3.1,2.7,6.2,4,9.3c5.1,12.4,9.6,24.7,13.1,36.9
		c3.5,12.3,6.1,24.4,7.1,36.5c0.5,6,0.5,11.9-0.2,17.7c-0.2,1.4-0.3,2.9-0.6,4.3c-0.1,0.7-0.3,1.4-0.4,2.1c-0.2,0.7-0.3,1.4-0.5,2.1
		c-0.3,1.4-0.7,2.7-1.1,4.1c-0.4,1.3-0.8,2.7-1.1,4c-1.4,5.3-2.7,10.6-3.6,15.8c-0.4,2.6-0.7,5.2-0.7,7.8c0,2.5,0.2,5.1,1.8,7
		c0.3,0.5,0.9,0.9,1.1,1.8c0,0.1,0,0.2,0,0.3c0,0.1,0,0.3,0,0.2c0-0.4-1.2-0.1-0.7-0.2c0,0,0.1-0.1,0.1-0.2c0.1-0.2,0.3-0.5,0.4-0.8
		c0.5-1.1,1-2.3,1.5-3.4c1-2.3,1.9-4.5,2.8-6.7c1.9-4.4,3.7-8.7,5.4-12.9c7.1-16.6,13.7-30.9,19.6-42.4c6-11.5,11.4-20.2,15.9-25.5
		c2.3-2.6,4.3-4.4,5.9-5.2c0.8-0.4,1.4-0.6,1.9-0.7c0.2-0.1,0.4-0.1,0.5-0.1c0.1,0,0.2,0,0.2,0s-0.1,0-0.2,0c-0.1,0-0.3,0-0.5,0.1
		c-0.4,0.1-1.1,0.3-1.9,0.7c-1.6,0.8-3.6,2.6-5.9,5.2c-4.5,5.3-9.8,14-15.7,25.6c-5.9,11.5-12.3,25.9-19.3,42.5
		c-1.7,4.2-3.5,8.5-5.3,12.9c-0.9,2.2-1.8,4.5-2.8,6.7c-0.5,1.1-1,2.3-1.5,3.4c-0.1,0.3-0.3,0.6-0.4,0.9c0,0.1-0.1,0.1-0.1,0.2
		c0.5,0-0.9,0.5-1-0.2l0-0.3c0-0.1,0-0.1,0-0.2c-0.1-0.4-0.5-0.9-0.9-1.4c-0.9-1-1.4-2.3-1.7-3.6c-0.3-1.3-0.4-2.6-0.4-3.9
		c0-2.6,0.3-5.3,0.7-7.9c0.8-5.3,2.1-10.6,3.5-16c0.4-1.3,0.7-2.7,1.1-4c0.4-1.3,0.8-2.7,1.1-4.1c0.2-0.7,0.3-1.4,0.5-2
		c0.1-0.7,0.2-1.4,0.4-2.1c0.3-1.4,0.4-2.8,0.6-4.2c0.6-5.7,0.6-11.6,0.1-17.5c-1-11.9-3.6-24-7.2-36.1
		c-3.6-12.2-8.1-24.4-13.3-36.7c-1.3-3.1-2.6-6.1-4-9.2l-1-2.3l-0.5-1.2c-0.2-0.4-0.3-0.8-0.5-1.1c-0.6-1.3-2-1.9-3.6-2.3
		c-3.1-0.8-6.7-0.8-10.1-2.3c-1.7-0.7-3.2-2.1-4.1-3.8c-0.9-1.7-1.3-3.5-1.5-5.3c-0.1-0.9-0.1-1.8-0.1-2.7c0.1-0.9,0.1-1.8,0.2-2.7
		c0.2-1.8,0.5-3.5,0.9-5.2c0.4-1.8,0.9-3.4,1.3-5.1c0.4-1.7,0.9-3.4,1.3-5.1c1.6-6.8,2.7-13.8,3.1-20.9c0.4-7.1,0.4-14.2-0.2-21.4
		c-0.6-7.2-1.6-14.3-3.2-21.4c-1.6-7-3.8-14-6.7-20.6c-0.4-0.8-0.7-1.7-1.1-2.5l-1.3-2.4c-0.4-0.8-0.8-1.6-1.3-2.4l-1.5-2.3
		c-1.8-3.1-4.3-5.8-6.8-8.4c-5.2-5.2-11-9.7-17-13.9c-6-4.2-12.3-8-18.9-11.4c-3.3-1.7-6.6-3.2-10-4.6c-3.4-1.3-6.9-2.5-10.4-3.2
		c-1.8-0.3-3.6-0.6-5.3-0.5l-0.7,0l-0.6,0.1c-0.4,0.1-0.9,0.1-1.2,0.2l-0.6,0.2c-0.1,0-0.2,0-0.3,0.1l-0.3,0.2l-0.6,0.3
		c-0.1,0-0.3,0.2-0.2,0.1l-0.3,0.2c-3.3,2-7.1,3.1-10.8,3.6c-3.7,0.5-7.5,0.5-11.2,0.4c-3.7-0.2-7.4-0.5-11-0.9
		c-7.3-0.7-14.6-1.5-21.7-1.2c-7.2,0.3-14.3,1.8-20.1,5.9c-1.5,1-3,2-4.5,3c-1.6,0.9-3.2,1.8-4.7,2.7c-1.6,0.8-3.3,1.6-4.9,2.4
		c-1.7,0.7-3.3,1.4-5,2.1c-6.7,2.6-13.7,4.4-20.7,5.6c-7,1.2-14,1.8-21,1.9c-7,0-14-0.5-20.7-1.9c-1.7-0.3-3.3-0.7-5-1
		c-0.8-0.2-1.6-0.3-2.5-0.4l-2.5-0.3c-3.3-0.3-6.6-0.4-9.9-0.1c-3.2,0.3-6.4,1.1-9.3,2.5c-2.9,1.3-5.6,3.2-7.9,5.4
		c-4.6,4.4-8.1,9.9-11.4,15.3c-3.3,5.4-6.7,10.8-10.8,15.5c-2,2.4-4.3,4.6-6.6,6.5c-0.6,0.5-1.2,1-1.7,1.5c-0.6,0.5-1,1-1.5,1.6
		c-1,1.1-1.8,2.3-2.6,3.6c-3.1,5-5.2,10.5-7.2,15.9c-1.9,5.4-3.6,10.8-5.1,16.2c-3,10.7-5.3,21-7.6,30.9c-0.6,2.5-1.2,4.9-1.7,7.3
		c-0.3,1.2-0.6,2.4-0.9,3.6c-0.2,0.6-0.4,1.2-0.6,1.8c-0.2,0.6-0.5,1.1-0.6,1.6c-0.6,2.3-0.8,4.6-1.1,6.9c-0.2,2.3-0.4,4.6-0.5,6.8
		c-0.5,9-0.7,17.4-0.6,25.2c0.1,7.8,0.3,15,1,21.4c0.1,0.8,0.2,1.6,0.3,2.4c0.1,0.8,0.3,1.5,0.4,2.3c0.3,1.5,0.4,3,0.5,4.4
		c0.1,2.9,0.1,5.6-0.1,8.1c-0.3,5-0.9,9.3-1.5,12.7c-0.6,3.4-1.1,6-1.5,7.8C40.2,371.7,40,372.6,40,372.6z"/>
</g>
<path fill="none" stroke="#FFFFFF" stroke-width="1.5" stroke-miterlimit="10" d="M236.5,316.5c0,0,0.1,16,3.4,16.4s29.9-5.5,32-8.2
	c2.1-2.7,31.2,3.2,33.7,0c2.5-3.2,31.6,7.4,32.4,3.6c0.8-3.8,17.3,0.8,17.3-0.8s12.6-21.5-6.7-20.6s-44.8-6.3-46-2.5
	C301.3,308.1,241.5,305.1,236.5,316.5z"/>
<path fill="none" stroke="#FFFFFF" stroke-width="1.5" stroke-miterlimit="10" d="M125.6,320.7c-0.7-4.6-51.1-15.6-49.5-12.2
	c1.6,3.4-26.2-3.8-27.9-0.6c-1.7,3.2-7,6-7,6s1.5,18.2,6.5,16.5c5.1-1.7,19,2.9,19.4-1.7c0.4-4.6,31,3.4,34.9,2.1
	c3.9-1.3,23.1,6.8,23.6,5.1C126.1,334.2,125.6,320.7,125.6,320.7z"/>
<g>
	<path fill="#FFFFFF" d="M138.2,356.6c0,0-0.2-0.2-0.7-0.5c-0.4-0.3-1.1-0.8-1.9-1.4c-1.7-1.2-4.1-2.8-7.2-4.5
		c-1.5-0.9-3.2-1.7-5-2.6c-1.8-0.8-3.8-1.6-5.8-2.4c-2-0.7-4.2-1.3-6.4-1.8c-1.1-0.2-2.2-0.5-3.4-0.6c-0.6-0.1-1.1-0.2-1.7-0.2
		l-1.7-0.2c-1.1-0.1-2.3-0.1-3.4-0.2c-1.1,0-2.3,0-3.4,0.1c-2.2,0.2-4.5,0.5-6.6,1c-0.5,0.1-1,0.3-1.6,0.4c-0.5,0.1-1,0.3-1.5,0.5
		c-1,0.3-2,0.6-2.9,1c-1.9,0.7-3.5,1.5-5.1,2.3c-0.8,0.4-1.5,0.8-2.2,1.2c-0.3,0.2-0.7,0.4-1,0.6c-0.3,0.2-0.6,0.4-0.9,0.6
		c-1.2,0.8-2.3,1.4-3.1,2.1c-1.6,1.2-2.6,1.9-2.6,1.9s0.8-0.8,2.4-2.2c0.7-0.7,1.8-1.4,2.9-2.4c0.3-0.2,0.6-0.5,0.9-0.7
		c0.3-0.2,0.6-0.4,1-0.7c0.7-0.4,1.4-0.9,2.1-1.4c0.8-0.4,1.6-0.9,2.4-1.4c0.8-0.5,1.8-0.8,2.7-1.3c0.9-0.5,1.9-0.8,2.9-1.2
		c1-0.4,2.1-0.7,3.2-1c1.1-0.3,2.2-0.5,3.3-0.7c1.1-0.3,2.3-0.3,3.5-0.5c1.2-0.1,2.4-0.1,3.6-0.2c1.2,0.1,2.4,0,3.6,0.1l1.8,0.2
		c0.6,0.1,1.2,0.2,1.8,0.3c1.2,0.2,2.3,0.4,3.5,0.7c2.3,0.6,4.5,1.3,6.6,2.1c2.1,0.8,4,1.7,5.8,2.7c1.8,1,3.5,1.9,4.9,2.9
		c3,1.9,5.2,3.8,6.8,5.2C137.4,355.7,138.2,356.6,138.2,356.6z"/>
</g>
<g>
	<path fill="#FFFFFF" d="M418.3,467.6c0,0,1.5-1.8,3.7-5.3c1.1-1.7,2.5-3.8,3.9-6.3c0.7-1.2,1.5-2.5,2.2-4c0.8-1.4,1.6-2.9,2.3-4.5
		c0.4-0.8,0.8-1.6,1.2-2.4c0.4-0.8,0.8-1.7,1.2-2.5c0.4-0.9,0.8-1.7,1.2-2.6c0.4-0.9,0.7-1.8,1.1-2.8c1.5-3.7,2.8-7.8,4.1-12
		c0.6-2.1,1-4.3,1.6-6.5c0.4-2.2,0.8-4.5,1.1-6.7c0.2-2.3,0.4-4.6,0.7-6.9c0.3-2.4,0.9-4.7,1.6-6.9c1.5-4.5,3.6-8.7,6-12.7
		c2.4-4,5.1-7.7,8-11c2.9-3.3,6.2-6.2,9.7-8.3c1.8-1,3.7-1.8,5.6-2c1.9-0.2,3.9,0.1,5.5,1.1c1.6,1,2.7,2.4,3.5,3.8
		c0.8,1.4,1.4,2.8,1.8,4.2c0.9,2.7,1.3,5.2,1.6,7.3c0.3,2,0.4,3.7,0.5,4.8c0.1,1.1,0.1,1.7,0.1,1.7s0-0.6-0.1-1.7
		c-0.1-1.1-0.3-2.7-0.6-4.7c-0.3-2-0.8-4.5-1.7-7.2c-0.5-1.3-1.1-2.7-1.9-4.1c-0.8-1.3-1.9-2.7-3.4-3.5c-1.4-0.9-3.3-1.2-5.1-1
		c-1.8,0.3-3.6,1-5.3,2c-3.4,2-6.5,4.9-9.4,8.2c-2.9,3.3-5.5,7-7.9,10.9c-2.3,4-4.4,8.2-5.9,12.6c-0.7,2.2-1.3,4.5-1.6,6.7
		c-0.2,2.3-0.5,4.7-0.7,7c-0.3,2.3-0.8,4.6-1.2,6.8c-0.6,2.2-1,4.4-1.6,6.5c-1.2,4.2-2.6,8.3-4.2,12c-0.4,0.9-0.8,1.9-1.2,2.8
		c-0.4,0.9-0.8,1.8-1.2,2.6c-0.4,0.9-0.8,1.7-1.2,2.5c-0.4,0.8-0.8,1.6-1.2,2.4c-1.6,3.1-3.3,5.9-4.8,8.4c-1.5,2.4-2.9,4.5-4.1,6.2
		C419.8,465.8,418.3,467.6,418.3,467.6z"/>
</g>
<g>
	<path fill="#FFFFFF" d="M429,455.1c0,0,0.2,0.1,0.6,0.2c0.4,0.1,0.9,0.2,1.6,0.4c0.7,0.1,1.6,0.3,2.5,0.3c0.5,0,1,0.1,1.6,0
		c0.6,0,1.1,0,1.7-0.1c1.2-0.1,2.5-0.5,3.7-1c0.3-0.2,0.6-0.3,0.9-0.5l0.5-0.3l0.4-0.3c0.3-0.2,0.6-0.4,0.9-0.7
		c0.3-0.2,0.5-0.5,0.8-0.8c0.2-0.3,0.5-0.5,0.7-0.8c0.2-0.3,0.4-0.6,0.7-0.9c0.5-0.6,0.8-1.3,1.1-2c0.7-1.4,1.2-3,1.7-4.5
		c1-3.1,1.8-6.2,2.3-9.2c0.5-3,0.8-5.8,0.8-8.3c0-2.4-0.3-4.5-0.8-5.8c-0.3-0.7-0.6-1.1-0.9-1.4c-0.3-0.3-0.5-0.3-0.5-0.3
		c0,0,0.2,0.1,0.5,0.3c0.3,0.2,0.7,0.7,1,1.3c0.7,1.3,1.1,3.4,1.2,5.8c0.1,2.5,0,5.4-0.5,8.4c-0.5,3.1-1.2,6.3-2.2,9.4
		c-0.6,1.6-1.1,3.1-1.8,4.6c-0.4,0.7-0.7,1.5-1.2,2.1c-0.2,0.3-0.5,0.7-0.7,1c-0.2,0.3-0.5,0.6-0.8,0.9c-0.3,0.3-0.5,0.6-0.8,0.8
		c-0.3,0.2-0.6,0.5-0.9,0.7l-0.5,0.3l-0.5,0.3c-0.3,0.2-0.7,0.3-1,0.5c-1.4,0.5-2.7,0.8-3.9,0.9c-1.2,0.1-2.4,0-3.4-0.1
		c-1-0.1-1.9-0.3-2.5-0.5c-0.7-0.2-1.2-0.4-1.6-0.5C429.2,455.2,429,455.1,429,455.1z"/>
</g>
<g>
	<path fill="#FFFFFF" d="M444.8,398.3c0,0,0.4,0.2,1.1,0.6c0.7,0.4,1.6,0.9,2.7,1.6c1.1,0.7,2.3,1.6,3.6,2.6c1.3,1,2.6,2.2,3.8,3.5
		c0.6,0.6,1.2,1.3,1.7,2c0.5,0.7,1,1.4,1.5,2.1c0.4,0.7,0.8,1.4,1.1,2.1c0.2,0.3,0.3,0.7,0.4,1c0.1,0.3,0.2,0.7,0.3,1
		c0.2,0.6,0.3,1.2,0.3,1.8c0,0.5,0,1,0,1.4c0,0.4-0.1,0.7-0.1,0.9c0,0.2-0.1,0.3-0.1,0.3s0-0.1,0-0.3c0-0.2,0-0.5,0-0.9
		c0-0.4-0.1-0.8-0.2-1.3c0-0.3-0.1-0.5-0.2-0.8c-0.1-0.3-0.2-0.6-0.3-0.9c-0.8-2.4-2.9-5.2-5.2-7.7c-1.2-1.2-2.4-2.4-3.6-3.5
		c-1.2-1.1-2.4-2-3.4-2.8c-1-0.8-1.9-1.5-2.5-1.9C445.1,398.6,444.8,398.3,444.8,398.3z"/>
</g>
<g>
	<path fill="#FFFFFF" d="M187.2,492c0,0,2.1,0.2,5.3,0.4c0.8,0.1,1.6,0.1,2.5,0.2c0.9,0.1,1.8,0.1,2.8,0.2c1,0,2,0.1,3,0.1
		c1,0,2.1,0.1,3.1,0c1,0,2.1,0,3.1-0.1c1-0.1,2-0.1,3-0.2c1-0.1,1.9-0.2,2.8-0.4c0.9-0.2,1.7-0.3,2.4-0.6c0.7-0.2,1.4-0.4,2-0.7
		c0.3-0.1,0.6-0.2,0.8-0.4c0.2-0.1,0.5-0.2,0.7-0.4c0.4-0.2,0.7-0.4,0.9-0.6c0.2-0.1,0.3-0.2,0.3-0.2s-0.1,0.1-0.3,0.3
		c-0.2,0.2-0.4,0.5-0.8,0.8c-0.2,0.2-0.4,0.3-0.6,0.5c-0.2,0.2-0.5,0.3-0.8,0.5c-0.6,0.4-1.2,0.8-2,1.1c-1.5,0.7-3.3,1.3-5.3,1.6
		c-1,0.2-2,0.3-3.1,0.4c-1.1,0.1-2.1,0.1-3.2,0.1c-1.1,0-2.2-0.1-3.2-0.1c-1.1-0.1-2.1-0.2-3.1-0.3c-2-0.3-3.8-0.6-5.4-1
		C189.2,492.8,187.2,492,187.2,492z"/>
</g>
<g>
	<path fill="#FFFFFF" d="M140.4,489.6c0,0,0.2,0.2,0.5,0.3c0.3,0.2,0.8,0.4,1.4,0.6c0.3,0.1,0.6,0.1,1,0.2c0.3,0.1,0.7,0.1,1.1,0.1
		c0.4,0,0.8,0,1.2,0.1c0.4,0,0.8,0,1.2,0c0.8,0,1.7-0.1,2.5-0.1c0.8,0,1.6-0.1,2.3-0.1c1.3,0,2.3,0.1,2.3,0.1s-0.2,0.1-0.5,0.4
		c-0.4,0.2-0.9,0.5-1.5,0.7c-0.6,0.3-1.4,0.5-2.2,0.7c-0.8,0.2-1.8,0.3-2.7,0.4c-0.9,0-1.9-0.1-2.8-0.3c-0.4-0.1-0.9-0.3-1.2-0.5
		c-0.4-0.2-0.7-0.4-1-0.6c-0.3-0.2-0.5-0.5-0.7-0.7c-0.2-0.2-0.3-0.4-0.4-0.6C140.4,489.8,140.4,489.6,140.4,489.6z"/>
</g>
</svg>
