<?xml version="1.0" encoding="utf-8"?>
<!-- Generator: Adobe Illustrator 18.1.1, SVG Export Plug-In . SVG Version: 6.00 Build 0)  -->
<svg version="1.1" id="Lager_4" xmlns="http://www.w3.org/2000/svg" xmlns:xlink="http://www.w3.org/1999/xlink" x="0px" y="0px"
	 viewBox="0 0 661 768" enable-background="new 0 0 661 768" xml:space="preserve">
<path fill="none" stroke="#FFFFFF" stroke-width="2" stroke-miterlimit="10" d="M126.8,396.6c0,0,12.8,112.6,48.2,188.3
	c31.2,66.8,86.9,98.7,109,114.9c18,13.2,58.3,17.2,96.2,5.6c16.4-5,34.4-27.5,48.3-39.9c30.3-27,78.5-91.4,86.5-144.6
	c6.4-42.8,27.9-140.5,18.3-172.4s-2.5-113.1-33.7-151.7c-14.8-18.3-72.8-38.3-134.8-35.2c-79.5,3.9-134.4-1.6-178.7,38.5
	c-38.9,35.3-57.9,109.7-56.4,128.3C130.4,337.6,125.4,375.4,126.8,396.6z"/>
<g>
	<path fill="#FFFFFF" d="M258.5,600.6c0.2,0.2,1.1,1.3,2.6,3.1c1.7,2.1,4.3,5,7.7,8.7c3.4,3.7,7.6,8.1,12.7,12.8
		c1.3,1.2,2.6,2.4,4,3.6c0.7,0.6,1.4,1.2,2.2,1.8c0.7,0.6,1.5,1.2,2.3,1.8c3,2.4,6.5,4.7,10.2,6.6c0.9,0.4,1.9,0.9,2.8,1.3
		c1,0.3,2.1,0.7,3.1,0.9c1,0.2,2.1,0.4,3.2,0.6c1.1,0.2,2.2,0.3,3.4,0.4c4.6,0.4,9.3,0.6,14.2,0.5c9.8-0.1,20.2-0.7,30.7-2.7
		c1.3-0.2,2.6-0.6,3.9-0.9l1-0.2c0.3-0.1,0.6-0.2,0.9-0.3l1.9-0.7l1-0.3c0.3-0.1,0.6-0.3,0.9-0.4l1.8-0.9c1.2-0.5,2.4-1.3,3.6-2
		c4.7-2.8,9.2-6.2,13.5-9.9c8.4-7.5,16.3-15.9,22.7-25.4c0.4-0.6,0.7-1.2,1.1-1.8c0.2-0.3,0.4-0.6,0.5-0.9l0.4-0.9
		c0.3-0.6,0.5-1.3,0.8-2l0.8-2l0.8-2c0.1-0.3,0.2-0.7,0.3-1c0-0.2,0.1-0.3,0.1-0.5c0-0.1,0-0.1,0-0.2c0,0,0-0.1,0-0.1
		c0-0.2,0,0.2,0,0.1c0,0.2,0.2,0.4,0.2,0.3c0,0,0,0,0,0l-0.2-0.1c-0.1-0.1-0.3-0.1-0.5-0.2c-0.3-0.1-0.7-0.2-1-0.3
		c-0.7-0.2-1.4-0.4-2.1-0.5c-5.5-1.4-11.1-2.5-16.6-3.8c-1.4-0.3-2.8-0.7-4.1-1c-1.4-0.4-2.7-0.7-4.1-1.3c-2.7-1-5.2-2.2-7.7-3.3
		c-5.1-2.1-10.2-3.9-15.4-4.9c-5.2-0.9-10.4-1-15.2,0.4c-2.4,0.7-4.6,1.7-6.7,3l-1.5,1c-0.5,0.4-0.9,0.8-1.4,1.1l-0.8,0.6l-0.4,0.3
		l-0.5,0.3c-0.7,0.4-1.4,0.6-2.1,0.8c-1.5,0.2-2.9-0.1-4.1-0.5c-1.2-0.4-2.3-1-3.4-1.6c-2.1-1.2-4.1-2.4-6.1-3.4c-2-1-4.1-1.8-6.1-2
		c-1-0.1-2.1-0.1-3.1,0c-0.6,0.1-1,0.2-1.5,0.3c-0.5,0.1-1,0.3-1.5,0.4c-4,1.3-7.9,2.8-11.4,4.4c-3.6,1.5-7,3.1-10.1,4.6
		c-6.3,3-11.7,5.9-16,8.4c-4.3,2.5-7.6,4.8-9.5,6.6c-1,0.9-1.6,1.7-2,2.3c-0.2,0.3-0.3,0.5-0.3,0.7
		C258.5,600.5,258.5,600.6,258.5,600.6z M258.2,600.6c0,0,0-0.1,0.1-0.3c0.1-0.2,0.1-0.4,0.3-0.7c0.3-0.6,1-1.4,2-2.4
		c1.9-1.9,5.1-4.3,9.4-7c4.2-2.7,9.6-5.7,15.8-8.9c3.1-1.6,6.5-3.2,10.1-4.8c3.6-1.6,7.4-3.2,11.5-4.6c0.5-0.2,1.1-0.3,1.6-0.5
		c0.6-0.1,1.2-0.3,1.7-0.4c1.2-0.2,2.4-0.2,3.6-0.1c2.4,0.2,4.7,1.1,6.8,2.1c2.2,1,4.2,2.3,6.2,3.4c1,0.6,2.1,1.1,3.1,1.5
		c1.1,0.4,2.1,0.6,3.1,0.4c1-0.1,1.7-0.7,2.7-1.5c0.5-0.4,1-0.8,1.5-1.2l1.6-1.1c2.2-1.4,4.6-2.6,7.2-3.3c5.2-1.5,10.8-1.4,16.2-0.4
		c5.4,1,10.6,2.9,15.7,5.1c2.6,1.1,5.1,2.3,7.6,3.3c1.2,0.5,2.6,0.9,3.9,1.2c1.4,0.4,2.7,0.7,4.1,1.1c5.5,1.4,11,2.6,16.6,4.1
		c0.7,0.2,1.4,0.4,2.1,0.6c0.3,0.1,0.7,0.2,1.1,0.3c0.2,0.1,0.4,0.1,0.5,0.2c0.1,0,0.2,0.1,0.3,0.1c0.1,0,0.1,0.1,0.2,0.1
		c0,0,0.3,0.2,0.4,0.5c0,0,0.1,0.5,0,0.4c0,0.1,0,0.1,0,0.2c0,0.1,0,0.2-0.1,0.3c0,0.2-0.1,0.4-0.2,0.6c-0.1,0.4-0.2,0.7-0.4,1
		l-0.8,2l-0.8,2c-0.3,0.7-0.5,1.3-0.9,2l-0.5,1c-0.2,0.3-0.4,0.6-0.6,0.9c-0.4,0.6-0.7,1.3-1.2,1.8c-3.3,4.8-7,9.1-10.9,13.3
		c-3.9,4.2-8,8.2-12.2,11.9c-4.3,3.7-8.7,7.2-13.5,10c-1.2,0.7-2.4,1.5-3.6,2l-1.9,0.9c-0.3,0.2-0.6,0.3-0.9,0.5l-1,0.4l-1.9,0.7
		c-0.3,0.1-0.6,0.2-1,0.4l-1,0.3c-1.3,0.4-2.6,0.7-4,1c-5.3,1.2-10.5,1.9-15.7,2.4c-2.6,0.3-5.1,0.5-7.7,0.6c-2.5,0.1-5,0.2-7.5,0.2
		c-4.9,0.1-9.8,0-14.4-0.5c-1.2-0.1-2.3-0.2-3.5-0.4c-1.1-0.2-2.3-0.3-3.4-0.6c-1.2-0.2-2.2-0.6-3.2-0.9c-1.1-0.5-2-1-3.1-1.4
		c-3.9-2-7.3-4.4-10.4-6.9c-0.8-0.6-1.6-1.2-2.3-1.8c-0.7-0.6-1.4-1.3-2.1-1.9c-1.4-1.2-2.7-2.5-4-3.7c-5.1-4.9-9.2-9.4-12.5-13.2
		c-3.3-3.8-5.7-6.9-7.4-9L258.2,600.6L258.2,600.6z"/>
</g>
<g>
	<path fill="#FFFFFF" d="M259.6,598.5c0,0,0.6,0.1,1.7,0.2c1.1,0.1,2.8,0.3,4.9,0.4c2.1,0.1,4.7,0.3,7.7,0.4c3,0.1,6.3,0.1,9.9,0
		c3.6-0.1,7.5-0.4,11.6-1.1c2.1-0.3,4-0.9,6.4-1.1c2.3-0.2,4.5,0,6.8,0.1c2.3,0.1,4.6,0.3,6.9,0.2c2.3,0,4.6-0.8,6.9-1.4
		c2.3-0.6,4.7-1.1,7.1-1.4c2.4-0.4,4.9-0.5,7.3-0.5c1.2,0,2.5,0,3.7,0.1l1.8,0.1l1.8,0.2l1.8,0.2l1.8,0.3l1.8,0.3l1.8,0.3l1.8,0.3
		l0.4,0.1l0.4,0.1l0.9,0.1c1,0.1,2.2,0.1,3.3,0c2.3-0.2,4.5-0.7,6.7-1.3c2.2-0.6,4.4-1.2,6.5-1.7c0.5-0.1,1.1-0.3,1.6-0.4l0.4-0.1
		l0.2,0l0.1-0.2c0,0,0.3-0.2,0.2-0.2h0.1c0.1,0,0.4,0.2,0.6,0.2l0.4,0.1c1.1,0.2,2.1,0.4,3.2,0.5c4.1,0.6,8,1.1,11.6,1.4
		c3.6,0.3,6.9,0.4,9.9,0.3c2.9-0.1,5.5-0.4,7.5-0.9c2-0.5,3.6-1.1,4.5-1.7c0.5-0.3,0.8-0.5,1.1-0.7c0.2-0.2,0.4-0.3,0.4-0.3l0.1,0.1
		c0,0-0.1,0.1-0.3,0.3c-0.2,0.2-0.5,0.5-1,0.8c-0.9,0.7-2.5,1.5-4.5,2.2c-2.1,0.7-4.7,1.2-7.7,1.4c-3,0.3-6.4,0.3-10.1,0.2
		c-3.7-0.2-7.7-0.5-11.8-1.1c-1-0.1-2.1-0.3-3.1-0.4l-0.4-0.3c-0.1,0-0.1-0.3-0.2-0.3h-0.1c-0.1,0,0.1,0.2,0.1,0.2l-0.1,0.1
		l-0.2,0.1l-0.4,0.1c-0.5,0.1-1,0.3-1.6,0.4c-2.1,0.5-4.3,1.2-6.5,1.7c-2.2,0.5-4.6,1-7,1.2c-1.2,0.1-2.4,0.1-3.8-0.1l-0.9-0.2
		l-0.5-0.1l-0.4-0.1l-1.7-0.4l-1.7-0.4l-1.8-0.3l-1.8-0.3l-1.8-0.2l-1.8-0.3l-1.8-0.2c-1.2-0.1-2.4-0.2-3.6-0.3
		c-2.4-0.1-4.8-0.1-7.2,0.2c-2.4,0.3-4.8,0.7-7.1,1.3c-2.3,0.6-4.6,1.4-7,1.5c-2.4,0.2-4.7,0.2-7,0.2c-2.3,0-4.5,0-6.6,0.3
		c-1,0.1-2,0.4-3.1,0.7c-1.1,0.2-2.1,0.6-3.2,0.7c-4.2,0.8-8.2,1-11.9,1.1c-3.7,0-7.1-0.1-10-0.4c-3-0.3-5.6-0.5-7.7-0.9
		c-4.2-0.6-6.6-1.2-6.6-1.2L259.6,598.5z"/>
</g>
<g>
	<path fill="#FFFFFF" d="M297.8,598.8c0,0,0.3,0.1,0.9,0.3c0.6,0.2,1.4,0.5,2.5,0.9c1.1,0.3,2.4,0.8,3.9,1.2c1.5,0.4,3.2,1,5.1,1.5
		c1.9,0.5,3.9,1,6.1,1.5c2.2,0.5,4.4,1.1,6.8,1.6c2.4,0.5,4.9,0.8,7.5,1c2.6,0.2,5.2,0,7.8-0.2c1.3-0.1,2.6-0.3,3.9-0.4
		c1.3-0.2,2.5-0.4,3.8-0.6c2.5-0.4,5-1,7.3-1.6c2.3-0.6,4.6-1.3,6.7-2c1-0.4,2.1-0.7,3-1.1c1-0.4,1.9-0.8,2.8-1.1
		c0.9-0.3,1.7-0.8,2.5-1.1c0.8-0.4,1.6-0.7,2.3-1.1c1.4-0.7,2.6-1.3,3.6-1.9c2-1.1,3.1-1.7,3.1-1.7l0.1,0.2c0,0-1,0.8-2.8,2.3
		c-0.9,0.7-2.1,1.4-3.4,2.4c-0.7,0.5-1.4,0.9-2.2,1.3c-0.8,0.4-1.6,1-2.5,1.4c-0.9,0.4-1.8,0.9-2.8,1.3c-1,0.4-2,0.8-3.1,1.2
		c-2.1,0.8-4.4,1.5-6.9,2.1c-2.4,0.6-5,1-7.5,1.3c-1.3,0.2-2.6,0.2-3.9,0.3c-1.3,0-2.6,0.1-4,0.1c-1.3,0-2.6,0-3.9-0.1
		c-1.3,0-2.6-0.1-3.9-0.2c-2.6-0.1-5.1-0.3-7.6-0.5c-1.2-0.1-2.4-0.2-3.6-0.4c-0.6-0.1-1.2-0.1-1.8-0.2c-0.6-0.1-1.1-0.2-1.7-0.3
		c-2.2-0.4-4.3-1-6.2-1.6c-1.9-0.6-3.6-1.2-5.1-1.8c-1.5-0.6-2.8-1.2-3.8-1.7c-2.1-1-3.2-1.8-3.2-1.8L297.8,598.8z"/>
</g>
<g>
	<path fill="#FFFFFF" d="M283.1,483.6c0,0-0.4,0.6-1.1,1.9c-0.7,1.2-1.7,3-2.8,5.4c-1.1,2.4-2.3,5.3-3.2,8.9
		c-0.5,1.8-0.8,3.7-0.9,5.7c-0.1,2-0.1,4.1,0.5,6.3c0.5,2.1,1.5,4.2,3.1,5.9c1.5,1.7,3.6,3.1,5.9,4.1l0.5,0.2l0.4,0.1
		c0.2,0.1,0.5,0,0.7,0c0.4-0.1,0.8-0.4,1.1-0.8c0.7-0.9,1.2-2.2,2.1-3.4c0.9-1.2,2.2-2.2,3.6-2.7l0.5-0.2l0.3-0.1l0.1,0
		c0.1,0,0,0,0.1,0l0.1,0c0.3-0.1,0.9-0.1,1.3,0c0.8,0.1,1.5,0.3,2.2,0.5c2.8,0.9,5.4,2.3,8,3.6c2.6,1.4,5.1,2.9,7.6,4.5l1.9,1.2
		l0.9,0.6c0.2,0.1,0.6,0.4,0.9,0.5c1.2,0.6,2.6,1.1,4,1.6c2.8,0.9,5.7,1.4,8.6,1.6c2.9,0.2,5.9,0.1,8.6-0.6c0.7-0.2,1.4-0.4,2-0.6
		c0.7-0.2,1.3-0.6,1.9-0.9c1.2-0.7,2.4-1.4,3.6-2.3c2.4-1.7,4.8-3.4,7.3-5c2.5-1.6,5.1-3,7.9-4l0.5-0.2c0.2-0.1,0.3-0.1,0.6-0.1
		c0.4-0.1,0.8-0.1,1.2-0.1c0.4,0,0.8,0,1.2,0.1l1.1,0.2c1.5,0.4,2.8,1.2,3.9,2.1c1.1,0.9,2.1,1.9,3,2.8c0.5,0.4,0.9,0.9,1.4,1.2
		c0.1,0.1,0.2,0.2,0.3,0.2c0.1,0,0.2,0.1,0.2,0.1c0.4,0,0.5-0.1,0.7-0.1c1.1-0.4,2.1-1.1,3-1.8c0.9-0.8,1.8-1.6,2.6-2.5
		c1.6-1.8,2.9-3.7,4-5.6c2.1-3.9,3-8,2.9-11.6c0-3.6-1-6.7-2-9.1c-0.5-1.2-1.1-2.2-1.5-3.1c-0.5-0.9-1-1.6-1.4-2.2
		c-0.8-1.1-1.3-1.8-1.3-1.8s0.5,0.6,1.3,1.7c0.4,0.6,0.9,1.3,1.5,2.1c0.5,0.9,1.2,1.9,1.7,3.1c1.1,2.4,2.2,5.5,2.4,9.2
		c0.2,3.7-0.6,8-2.7,12.1c-1,2.1-2.4,4.1-4,5.9c-0.8,0.9-1.7,1.8-2.7,2.7c-1,0.8-2.1,1.6-3.4,2.2c-0.2,0.1-0.4,0.1-0.6,0.2
		c-0.3,0.1-0.4,0-0.5,0.1c-0.6,0-1-0.2-1.3-0.4c-0.7-0.4-1.2-0.9-1.7-1.3c-1-0.9-2-1.8-3-2.6c-1-0.8-2.1-1.4-3.3-1.8l-0.9-0.2
		l-0.9,0c-0.3,0-0.6,0.1-0.8,0.1c-0.1,0-0.3,0-0.5,0.1l-0.5,0.2c-2.5,0.9-5,2.3-7.4,3.8c-2.4,1.6-4.8,3.3-7.2,5
		c-1.2,0.9-2.5,1.8-3.8,2.5c-0.7,0.3-1.4,0.7-2.1,1c-0.7,0.2-1.5,0.5-2.2,0.7c-3,0.8-6.2,1-9.3,0.8c-3.1-0.2-6.1-0.9-9.1-1.8
		c-1.5-0.5-2.9-1-4.3-1.7c-0.4-0.2-0.6-0.3-1-0.6L314,526l-1.9-1.2c-2.5-1.6-5-3.1-7.5-4.5c-2.5-1.4-5.1-2.7-7.6-3.6
		c-0.6-0.2-1.3-0.4-1.9-0.4c-0.4,0-0.4-0.1-0.8,0l-0.8,0.3c-1.2,0.4-2.1,1.2-2.9,2.1c-0.8,1-1.3,2.2-2.2,3.4
		c-0.5,0.6-1.2,1.2-2.1,1.3c-0.4,0-0.9,0.1-1.2-0.1c-0.2,0-0.4-0.1-0.6-0.1l-0.4-0.2c-2.5-1.1-4.6-2.7-6.3-4.6
		c-1.7-1.9-2.7-4.2-3.2-6.5c-0.5-2.3-0.5-4.5-0.3-6.6c0.2-2.1,0.7-4,1.2-5.8c1.1-3.6,2.4-6.5,3.6-8.8c1.2-2.4,2.3-4.1,3.1-5.3
		C282.7,484.2,283.1,483.6,283.1,483.6z"/>
</g>
<path fill="none" stroke="#FFFFFF" stroke-width="1.5" stroke-miterlimit="10" d="M276.5,403.4c0,0-41.8-44-83.7-5.9
	C192.8,397.5,211.7,423.3,276.5,403.4z"/>
<g>
	<path fill="#FFFFFF" d="M180.1,387.7c0,0,0.3-0.3,0.8-0.9c0.6-0.6,1.4-1.5,2.5-2.5c2.2-2,5.6-4.8,10-7.5c2.2-1.3,4.7-2.6,7.5-3.8
		c2.8-1.1,5.7-2.2,8.9-3c0.8-0.2,1.6-0.4,2.4-0.5c0.8-0.1,1.6-0.3,2.5-0.5c1.7-0.2,3.4-0.5,5.1-0.5c3.4-0.3,6.9-0.1,10.4,0.3
		c1.7,0.3,3.5,0.5,5.1,0.9c1.7,0.4,3.4,0.7,5,1.3c1.6,0.5,3.3,1,4.8,1.6c1.6,0.6,3.1,1.2,4.6,1.9c3,1.3,5.7,2.9,8.3,4.3
		c2.5,1.6,4.9,3.1,6.9,4.7c1,0.8,2,1.5,3,2.2c0.9,0.8,1.8,1.5,2.6,2.2c0.8,0.7,1.6,1.3,2.2,1.9c0.7,0.6,1.3,1.2,1.8,1.7
		c2.2,2.1,3.4,3.3,3.4,3.3s-1.3-1.1-3.7-3c-0.6-0.5-1.2-1-1.9-1.6c-0.7-0.5-1.5-1.1-2.4-1.7c-0.8-0.6-1.7-1.3-2.7-2
		c-1-0.6-2-1.3-3.1-2c-2.1-1.5-4.5-2.8-7-4.3c-2.6-1.4-5.3-2.8-8.3-4c-1.4-0.7-3-1.2-4.5-1.8c-1.5-0.6-3.1-1-4.7-1.5
		c-1.6-0.5-3.2-0.8-4.9-1.2c-1.6-0.4-3.3-0.5-5-0.8c-3.4-0.3-6.7-0.6-10-0.3c-1.7,0-3.3,0.3-4.9,0.4c-0.8,0.1-1.6,0.3-2.4,0.4
		c-0.8,0.1-1.6,0.3-2.3,0.5c-0.8,0.2-1.5,0.4-2.3,0.5c-0.7,0.2-1.5,0.4-2.2,0.6c-0.7,0.2-1.5,0.4-2.2,0.7c-0.7,0.3-1.4,0.5-2.1,0.7
		c-2.7,1.1-5.2,2.2-7.5,3.4c-2.2,1.2-4.3,2.4-6,3.6c-1.7,1.2-3.2,2.2-4.4,3.2C181.3,386.5,180.1,387.7,180.1,387.7z"/>
</g>
<path fill="none" stroke="#FFFFFF" stroke-width="1.5" stroke-miterlimit="10" d="M390.6,396c0,0,33.2-37.9,77.4-9.2
	C468,386.8,437.4,421.9,390.6,396z"/>
<g>
	<path fill="#FFFFFF" d="M377.2,393.2c0,0,1.1-1.4,3.1-3.6c2.1-2.2,5.2-5.3,9.2-8.6c2-1.6,4.3-3.4,6.7-5c1.2-0.9,2.5-1.7,3.9-2.5
		c1.4-0.8,2.7-1.6,4.2-2.4c0.7-0.4,1.5-0.8,2.2-1.2c0.7-0.4,1.5-0.7,2.3-1.1c1.5-0.8,3.1-1.4,4.7-2c3.2-1.2,6.5-2.3,10-3.1
		c0.9-0.2,1.7-0.4,2.6-0.6l2.6-0.4l1.3-0.2l1.3-0.1c0.9-0.1,1.7-0.2,2.6-0.2c1.7-0.1,3.4-0.1,5.1-0.1c1.7,0.1,3.4,0.1,5,0.4
		c0.8,0.1,1.6,0.2,2.4,0.3c0.8,0.1,1.6,0.2,2.4,0.4c0.8,0.2,1.5,0.3,2.3,0.5c0.8,0.2,1.5,0.3,2.2,0.6c1.4,0.5,2.8,0.8,4.2,1.3
		c1.3,0.5,2.6,1,3.8,1.5c1.2,0.5,2.3,1.1,3.4,1.6c1.1,0.5,2.1,1,3,1.6c0.9,0.6,1.8,1.1,2.5,1.5c0.4,0.2,0.8,0.5,1.1,0.7
		c0.4,0.2,0.7,0.5,1,0.7c2.5,1.8,3.9,2.8,3.9,2.8s-1.5-0.9-4.1-2.5c-0.3-0.2-0.7-0.4-1-0.6c-0.4-0.2-0.8-0.4-1.2-0.6
		c-0.8-0.4-1.7-0.9-2.6-1.4c-0.9-0.5-2-0.9-3-1.4c-1.1-0.4-2.2-1-3.4-1.4c-1.2-0.4-2.5-0.9-3.8-1.3c-1.3-0.4-2.7-0.7-4.1-1.1
		c-0.7-0.2-1.4-0.3-2.2-0.5c-0.7-0.1-1.5-0.3-2.2-0.4c-0.8-0.2-1.5-0.2-2.3-0.3c-0.8-0.1-1.6-0.2-2.4-0.3c-1.6-0.2-3.2-0.2-4.9-0.2
		c-0.8,0-1.6,0-2.5,0.1c-0.8,0-1.7,0-2.5,0.1c-0.8,0.1-1.7,0.2-2.5,0.2l-1.3,0.1l-1.3,0.2l-2.5,0.4c-0.8,0.2-1.7,0.4-2.5,0.6
		c-3.3,0.7-6.6,1.8-9.7,3c-3.1,1.2-6.2,2.5-9,4c-1.4,0.7-2.8,1.5-4.2,2.3c-1.3,0.8-2.6,1.5-3.9,2.4c-2.5,1.6-4.8,3.2-6.9,4.7
		c-2.1,1.6-3.9,3-5.5,4.4c-1.6,1.3-3,2.6-4.1,3.6c-1.1,1-2,1.8-2.5,2.4C377.5,392.9,377.2,393.2,377.2,393.2z"/>
</g>
<path fill="none" stroke="#FFFFFF" stroke-width="1.5" stroke-miterlimit="10" d="M377.2,340.7c0,0-8.1,2.1-10,7.9s-7.6,15.5-4,16.1
	c3.7,0.6,74.3-34.4,84.9-34.4s29.5-2.7,48.1,17.2s-6.4-30.6-35.9-33.3C430.8,311.4,399.6,328.2,377.2,340.7z"/>
<path fill="none" stroke="#FFFFFF" stroke-width="1.5" stroke-miterlimit="10" d="M276.5,348.8c2.3,0.6,8.4,1.6,9.6,3.4
	c2.8,4.1,9.3,18.7-0.5,17.3c-0.9-0.1-45.6-16-51-19c-8.7-4.9-41-15.8-46.2-14.3c-5.2,1.5-21,13.1-28.9,20.4s14.8-44.3,47.3-32.1
	C220.6,329.6,259.9,344.2,276.5,348.8z"/>
<g>
	<path fill="#FFFFFF" d="M239.7,390.5c0,0,0,0.2,0,0.5c0,0.3-0.1,0.8-0.2,1.4c-0.2,0.6-0.4,1.3-0.8,2c-0.4,0.7-1.1,1.4-1.9,2.1
		c-0.8,0.6-1.9,1.1-3.1,1.4c-0.3,0-0.6,0.1-1,0.1c-0.3,0-0.6,0-0.9,0c-0.7,0-1.3-0.2-2-0.4c-0.7-0.2-1.3-0.6-1.9-1
		c-0.6-0.4-1.1-1-1.5-1.6c-0.9-1.2-1.3-2.8-1.4-4.3c0-0.5,0-0.7,0.1-1.1c0.1-0.4,0.2-0.8,0.3-1.1c0.2-0.7,0.6-1.4,1-2
		c0.4-0.6,1-1.1,1.5-1.6c0.6-0.4,1.2-0.8,1.9-1c1.3-0.5,2.7-0.6,3.9-0.3c1.3,0.2,2.3,0.7,3.1,1.4c1.7,1.3,2.4,2.9,2.7,4.1
		c0.2,0.6,0.2,1,0.2,1.4C239.7,390.3,239.7,390.5,239.7,390.5z M239.7,390.5c0,0,0-0.2,0-0.5c0-0.3-0.1-0.8-0.2-1.3
		c-0.2-0.6-0.4-1.2-0.9-1.9c-0.5-0.7-1.1-1.3-2-1.8c-0.8-0.5-1.9-0.8-2.9-0.8c-1.1,0-2.2,0.2-3.2,0.8c-1,0.5-1.9,1.4-2.5,2.3
		c-0.3,0.5-0.5,1-0.7,1.6c-0.1,0.3-0.1,0.6-0.2,0.8c-0.1,0.2,0,0.7-0.1,0.9c0,0.6,0.1,1.2,0.2,1.7c0.2,0.5,0.4,1.1,0.7,1.6
		c0.6,1,1.5,1.8,2.5,2.3c0.5,0.3,1,0.5,1.6,0.6c0.2,0.1,0.6,0.1,0.9,0.1c0.2,0,0.5,0,0.8,0c1.1,0,2.1-0.4,3-0.9
		c0.9-0.5,1.5-1.2,2-1.8c0.5-0.7,0.7-1.3,0.9-1.9c0.2-0.6,0.2-1,0.2-1.3C239.7,390.6,239.7,390.5,239.7,390.5z"/>
</g>
<g>
	<path fill="#FFFFFF" d="M435.6,385.1c0,0,0,0.2,0,0.5c0,0.3-0.1,0.8-0.2,1.4c-0.2,0.6-0.4,1.3-0.8,2c-0.4,0.7-1.1,1.4-1.9,2.1
		c-0.8,0.6-1.9,1.1-3.1,1.4c-0.3,0-0.6,0.1-1,0.1c-0.3,0-0.6,0-0.9,0c-0.7,0-1.3-0.2-2-0.4c-0.7-0.2-1.3-0.6-1.9-1
		c-0.6-0.4-1.1-1-1.5-1.6c-0.9-1.2-1.4-2.7-1.4-4.4c0-0.6,0.1-1.5,0.4-2.2c0.2-0.7,0.6-1.4,1-2c0.4-0.6,1-1.1,1.5-1.6
		c0.6-0.4,1.2-0.8,1.9-1c1.3-0.5,2.7-0.6,3.9-0.3c1.3,0.2,2.3,0.7,3.1,1.4c1.7,1.3,2.4,2.9,2.7,4.1c0.2,0.6,0.2,1,0.2,1.4
		C435.6,384.9,435.6,385.1,435.6,385.1z M435.6,385.1c0,0,0-0.2,0-0.5c0-0.3-0.1-0.8-0.2-1.3c-0.2-0.6-0.4-1.2-0.9-1.9
		c-0.5-0.7-1.1-1.3-2-1.8c-0.8-0.5-1.9-0.8-2.9-0.8c-1.1,0-2.2,0.2-3.2,0.8c-1,0.5-1.9,1.4-2.5,2.3c-0.3,0.5-0.5,1-0.7,1.6
		c-0.2,0.6-0.2,1-0.2,1.8c0,0.5,0.1,1.1,0.2,1.7c0.2,0.5,0.4,1.1,0.7,1.6c0.6,1,1.5,1.8,2.5,2.3c0.5,0.3,1,0.5,1.6,0.6
		c0.2,0.1,0.6,0.1,0.9,0.1c0.2,0,0.5,0,0.8,0c1.1,0,2.1-0.4,3-0.9c0.9-0.5,1.5-1.2,2-1.8c0.5-0.7,0.7-1.3,0.9-1.9
		c0.2-0.6,0.2-1,0.2-1.3C435.6,385.3,435.6,385.1,435.6,385.1z"/>
</g>
<g>
	<path fill="#FFFFFF" d="M219.5,383c0,0-0.5,1-1.1,2.9c-0.6,1.9-1.4,4.6-1.5,7.9c0,1.7,0.1,3.4,0.7,5.2c0.6,1.8,1.6,3.4,3,4.8
		c1.4,1.4,3.2,2.5,5.2,3.3c1.9,0.8,4.1,1.4,6.3,1.8c2.1,0.3,4.3,0.4,6.4,0c2.1-0.4,4-1.2,5.6-2.4c1.6-1.2,3-2.6,4.1-4.1
		c1.1-1.5,1.9-3.1,2.6-4.7c1.3-3.1,1.9-5.9,2-7.8c0.1-1,0-1.8-0.1-2.3c-0.1-0.5-0.3-0.8-0.3-0.8s0.2,0.2,0.4,0.7
		c0.2,0.5,0.3,1.3,0.4,2.3c0.1,2-0.2,4.9-1.3,8.2c-0.6,1.6-1.3,3.4-2.4,5.1c-1.1,1.7-2.5,3.4-4.3,4.7c-1.8,1.3-4,2.4-6.3,2.8
		c-2.3,0.5-4.7,0.4-7.1,0.1c-0.6-0.1-1.2-0.2-1.7-0.3c-0.6-0.1-1.1-0.3-1.7-0.4c-1.1-0.3-2.2-0.7-3.3-1.2c-2.1-0.9-4.1-2.2-5.7-3.9
		c-1.6-1.6-2.6-3.6-3.2-5.6c-0.5-2-0.6-3.9-0.4-5.7c0.2-1.7,0.5-3.3,1-4.6c0.4-1.3,0.9-2.5,1.3-3.4c0.4-0.9,0.8-1.6,1.1-2.1
		C219.4,383.3,219.5,383,219.5,383z"/>
</g>
<g>
	<path fill="#FFFFFF" d="M411.1,381.4c0,0-0.1,1.2,0,3.2c0.1,2,0.5,4.9,1.8,8.1c0.6,1.6,1.5,3.2,2.7,4.7c1.2,1.5,2.7,2.9,4.5,4
		c1.8,1.1,3.8,1.9,6,2.5c0.3,0.1,0.6,0.2,0.8,0.2l0.9,0.2c0.6,0.1,1.1,0.2,1.6,0.2c1.1,0.1,2.2,0,3.3-0.1c2.2-0.3,4.2-1.2,6-2.4
		c1.8-1.2,3.3-2.9,4.4-4.6c2.3-3.5,3.5-7.5,3.5-10.9c0-1.7-0.2-3.3-0.6-4.6c-0.4-1.3-1-2.4-1.6-3.2c-0.6-0.8-1.2-1.3-1.7-1.6
		c-0.5-0.3-0.7-0.5-0.7-0.5s0.3,0.1,0.8,0.4c0.3,0.1,0.5,0.3,0.9,0.5c0.4,0.2,0.7,0.5,1.1,0.9c0.7,0.8,1.5,1.8,2,3.2
		c0.6,1.4,0.9,3,1,4.8c0.2,3.6-0.8,7.9-3.2,11.8c-1.2,1.9-2.8,3.8-4.8,5.2c-2,1.4-4.3,2.5-6.8,2.8c-1.2,0.2-2.5,0.2-3.7,0.1
		c-0.6-0.1-1.3-0.1-1.8-0.3l-0.9-0.2c-0.4-0.1-0.6-0.2-0.9-0.2c-2.3-0.6-4.5-1.6-6.4-2.9c-1.9-1.2-3.5-2.8-4.8-4.5
		c-1.2-1.7-2.1-3.5-2.6-5.2c-0.6-1.7-0.8-3.3-1-4.8c-0.1-1.4-0.1-2.7-0.1-3.7c0-1,0.2-1.8,0.2-2.4
		C411.1,381.7,411.1,381.4,411.1,381.4z"/>
</g>
<g>
	<path fill="#FFFFFF" d="M137.9,468.7c0,0,0.1,1.2-0.1,3.3c-0.1,1.1-0.2,2.4-0.6,4c-0.2,0.8-0.4,1.6-0.8,2.4
		c-0.4,0.8-0.9,1.7-1.7,2.4c-0.8,0.7-2,1-3.1,0.9c-1.2-0.1-2.3-0.6-3.4-1.2c-2.2-1.2-4.2-3-6.2-5.1c-3.9-4.1-7.8-9.2-11.8-15
		c-2-2.9-3.9-5.9-5.9-9.2c-0.9-1.8-1.5-3.6-2-5.6c-0.5-1.9-0.8-3.9-1-5.9c-0.5-4-0.7-8.1-0.7-12.4c0-2.1,0.2-4.3,0.3-6.4
		c0.1-2.1,0.2-4.2,0.2-6.4c-0.1-8.6-1.1-17.6-2.4-26.6c-0.7-4.5-1.5-9-2.3-13.6c-0.4-2.3-0.9-4.5-1.4-6.8c-0.1-0.3-0.1-0.6-0.2-0.8
		c-0.1-0.2-0.2-0.5-0.3-0.7c-0.2-0.5-0.4-1-0.6-1.6c-0.5-1.1-0.9-2.1-1.4-3.2c-3.9-8.4-8-16.8-11.3-25.3c-1.7-4.3-3.2-8.6-4.1-13.1
		c-0.2-1.1-0.4-2.3-0.4-3.5c0-0.6,0-1.2,0.1-1.8c0.1-0.6,0.4-1.3,0.6-1.8c0.9-2,2-4,3.2-5.9c1.3-1.8,2.8-3.6,4.8-4.8
		c1-0.6,2.2-1,3.4-1.1c1.2-0.1,2.4,0.1,3.4,0.5c2.1,0.8,3.8,2.3,5.3,3.7c1.5,1.5,2.7,3.2,3.9,4.8c4.5,6.7,7.8,13.7,9.5,20.5
		c0.9,3.4,1.3,6.8,1.4,10c0.2,3.2,0.1,6.2,1.1,8.8c0.2,0.6,0.5,1.3,0.9,1.8c0.3,0.5,0.8,1.1,1.1,1.7c0.6,1.2,1.2,2.3,1.7,3.4
		c1,2.2,2,4.3,2.8,6.1c1.7,3.7,3.1,6.5,4.4,8.3c0.6,0.9,1.2,1.5,1.7,1.8c0.2,0.2,0.4,0.2,0.6,0.3c0.1,0,0.2,0,0.2,0s-0.1,0-0.2,0
		c-0.1,0-0.3-0.1-0.6-0.2c-0.5-0.3-1.1-0.9-1.7-1.8c-1.3-1.8-2.9-4.6-4.7-8.2c-0.9-1.8-1.9-3.8-3-6c-0.5-1.1-1.1-2.2-1.8-3.4
		c-0.3-0.6-0.7-1.1-1.1-1.7c-0.4-0.6-0.7-1.2-1-1.9c-1-2.8-1-5.9-1.3-9c-0.2-3.1-0.7-6.4-1.6-9.8c-1.8-6.7-5.2-13.4-9.6-19.9
		c-1.1-1.6-2.4-3.2-3.8-4.6c-1.4-1.4-3-2.7-4.8-3.3c-0.9-0.3-1.8-0.5-2.8-0.4c-0.9,0.1-1.8,0.4-2.6,0.9c-1.7,1-3,2.6-4.2,4.3
		c-1.2,1.7-2.2,3.7-3.1,5.6c-0.3,0.5-0.4,0.9-0.5,1.4c-0.1,0.5-0.1,1-0.1,1.5c0,1,0.2,2.1,0.4,3.2c0.9,4.3,2.4,8.5,4.1,12.7
		c3.4,8.4,7.5,16.8,11.4,25.2c0.5,1.1,1,2.1,1.5,3.2c0.2,0.5,0.5,1.1,0.7,1.7c0.1,0.3,0.2,0.6,0.3,0.9c0.1,0.3,0.1,0.6,0.2,0.9
		c0.5,2.3,0.9,4.6,1.4,6.8c0.9,4.6,1.6,9.1,2.3,13.7c1.3,9.1,2.3,18.1,2.3,26.8c0,2.2-0.1,4.4-0.2,6.5c-0.2,2.1-0.4,4.2-0.4,6.3
		c-0.1,4.2,0,8.2,0.4,12.2c0.2,2,0.5,3.9,0.9,5.8c0.4,1.9,0.9,3.7,1.7,5.3c1.8,3.2,3.8,6.3,5.7,9.2c3.8,5.8,7.5,11,11.4,15.1
		c1.9,2.1,3.9,3.9,5.9,5.1c1,0.6,2.1,1.1,3.2,1.2c1.1,0.1,2.1-0.1,2.9-0.8c0.8-0.6,1.3-1.4,1.7-2.2c0.4-0.8,0.7-1.6,0.9-2.4
		c0.4-1.5,0.6-2.9,0.7-3.9C137.9,469.9,137.9,468.7,137.9,468.7z"/>
</g>
<g>
	<path fill="#FFFFFF" d="M31.3,752.8c0,0,0-7.4,0-21.4c0-13.9-0.2-34.4-0.5-60.4c-0.4-26-0.9-57.6-2.3-93.9
		c-0.7-18.1-1.6-37.4-3.1-57.7c-0.7-10.1-1.7-20.5-3-31.1c-0.7-5.3-1.4-10.6-2.5-15.9c-0.6-2.7-1.2-5.3-2-7.9
		c-0.8-2.6-1.6-5.3-2.3-8c-2.8-10.9-4.5-22.2-5.7-33.8c-1.1-11.6-1.6-23.5-1.6-35.5c0.1-24.1,2.1-49,6-74.3
		c2-12.7,4.4-25.4,7.5-38.2c1.6-6.4,3.3-12.8,5.4-19.1c2-6.3,4.3-12.7,7.2-18.8c1.4-3.1,3-6.1,4.9-9c1.9-2.9,4-5.7,7-7.9
		c1.6-1,2.8-1.8,4.2-2.8c1.3-1,2.5-2.1,3.7-3.3c2.3-2.4,4.2-5.1,5.8-8c3.3-5.8,5.1-12.4,7.3-19c1.2-3.3,2.4-6.7,4.6-9.7
		c1.1-1.5,2.5-2.9,4.2-3.8c0.2-0.1,0.4-0.2,0.6-0.3l0.6-0.3c0.4-0.2,0.7-0.4,1-0.6c0.6-0.4,1.1-0.9,1.5-1.5c0.7-1.1,0.8-2.5,0.6-4.2
		c-0.2-1.6-0.7-3.3-1.1-5c-0.8-3.4-1.3-7.2-0.8-10.9c0.5-3.7,2-7.2,4-10.3c1.9-2.9,3.4-6,5-9.2c1.6-3.2,3.3-6.4,5.4-9.4
		c2.1-3,4.5-5.9,7.7-8c1.6-1,3.4-1.8,5.3-2.3c0.9-0.2,1.9-0.4,2.9-0.4c1,0,1.8,0,2.3-0.2c1.2-0.3,2-1.6,2.6-3.1c0.6-1.5,1-3.2,1.3-5
		c0.7-3.5,1.3-7.1,2.2-10.6c0.9-3.6,2.1-7.1,3.7-10.4c3.1-6.7,7.9-12.7,13.7-17.4c5.8-4.7,12.4-8.3,19.2-11
		c3.4-1.4,6.9-2.6,10.5-3.6c3.5-1.1,7.1-1.8,10.6-2.9c7-2,13.9-4.5,20.7-7.1c6.9-2.6,13.7-5.3,20.6-7.9c13.8-5.3,27.7-10.4,42-14.7
		c14.2-4.3,28.8-7.7,43.5-10.1c14.7-2.4,29.7-3.7,44.6-3.9c29.9-0.4,59.8,3.7,88.6,11c28.8,7.3,56.7,17.8,83.4,30
		c3.3,1.5,6.6,3.1,10,4.7c3.3,1.6,6.6,3.2,9.8,4.8c6.5,3.3,13,6.6,19.3,10.3c12.6,7.4,24.4,16.3,34.3,26.9
		c9.9,10.6,17.7,23.1,22.9,36.5c2.6,6.7,4.6,13.5,6.1,20.5c1.6,6.9,2.7,13.9,3.7,20.8c1.1,6.9,2,13.8,3.6,20.4
		c0.8,3.3,1.7,6.6,3,9.6c0.7,1.5,1.4,3,2.2,4.4c0.4,0.7,0.9,1.4,1.4,2.1l0.8,1c0.3,0.4,0.5,0.7,0.8,1.1c2,3,3.4,6.2,4.7,9.5
		c1.2,3.2,2.2,6.5,3.1,9.9c1.7,6.6,3,13.3,4.1,20c2.1,13.3,3.4,26.6,4.3,39.7c0.9,13.1,1.4,26.1,1.5,38.9c0,6.4-0.1,12.8-0.2,19.1
		c-0.1,6.3-0.3,12.6-0.4,18.8c-0.3,12.4-0.6,24.7-0.9,36.7c-0.6,24.1-1.3,47.3-2.1,69.6c-0.8,22.3-1.6,43.7-2.5,64
		c-1,20.3-2.1,39.6-4.2,57.7c-2,18-4,34.9-5.6,50.5c-1.6,15.6-2.9,30-3.6,43c-0.7,13-0.9,24.6-0.6,34.7c0.3,10.1,1.2,18.7,2.5,25.5
		c1.3,6.9,3,11.9,4.5,15.2c0.7,1.6,1.4,2.9,1.8,3.7c0.5,0.8,0.7,1.2,0.7,1.2s-0.2-0.4-0.7-1.2c-0.5-0.8-1.1-2-1.9-3.6
		c-1.5-3.3-3.3-8.4-4.6-15.2c-1.4-6.8-2.3-15.4-2.7-25.5c-0.4-10.1-0.3-21.8,0.3-34.8c0.6-13,1.8-27.4,3.3-43
		c1.5-15.6,3.4-32.5,5.2-50.5c1.9-18,3-37.3,3.9-57.6c0.9-20.3,1.6-41.7,2.3-64c0.7-22.3,1.3-45.5,1.9-69.6
		c0.3-12,0.5-24.3,0.8-36.7c0.1-6.2,0.2-12.5,0.3-18.8c0.1-6.3,0.3-12.7,0.2-19c-0.2-12.8-0.8-25.7-1.7-38.8
		c-0.9-13.1-2.2-26.3-4.3-39.5c-1.1-6.6-2.3-13.2-4.1-19.7c-0.9-3.2-1.8-6.5-3-9.6c-1.2-3.1-2.6-6.2-4.4-8.9c-0.2-0.3-0.5-0.7-0.7-1
		l-0.8-1c-0.5-0.7-1-1.5-1.5-2.2c-0.9-1.5-1.7-3.1-2.4-4.8c-1.4-3.3-2.4-6.7-3.2-10.1c-1.6-6.8-2.6-13.7-3.6-20.6
		c-1-6.9-2.2-13.8-3.7-20.6c-1.5-6.8-3.5-13.5-6-20.1c-5.1-13.1-12.7-25.2-22.4-35.6c-9.7-10.4-21.3-19.1-33.7-26.4
		c-6.2-3.6-12.7-6.9-19.2-10.2c-3.3-1.6-6.5-3.2-9.8-4.8c-3.3-1.5-6.6-3.2-9.9-4.6c-26.6-12.2-54.2-22.5-82.9-29.8
		c-28.6-7.2-58.2-11.3-87.8-10.9c-14.8,0.1-29.6,1.4-44.2,3.8c-14.6,2.3-29,5.8-43.2,10c-14.1,4.2-28,9.3-41.8,14.6
		c-6.9,2.6-13.7,5.3-20.6,7.9c-6.9,2.6-13.8,5.1-20.9,7.1c-3.6,1.1-7.1,1.9-10.6,2.9c-3.5,1-6.9,2.2-10.2,3.5
		c-6.7,2.7-13,6.1-18.5,10.6c-5.5,4.5-10,10.1-13,16.4c-1.5,3.2-2.6,6.5-3.5,9.9c-0.9,3.4-1.5,6.9-2.2,10.5
		c-0.4,1.8-0.7,3.6-1.4,5.4c-0.4,0.9-0.8,1.8-1.5,2.7c-0.7,0.9-1.7,1.6-2.8,2c-1.2,0.4-2.3,0.3-3,0.4c-0.8,0-1.6,0.2-2.4,0.4
		c-1.6,0.4-3.1,1-4.5,1.9c-2.8,1.8-5.1,4.4-7,7.3c-2,2.8-3.6,5.9-5.2,9.1c-1.6,3.1-3.1,6.4-5.1,9.4c-1.8,2.8-3.1,6-3.6,9.3
		c-0.5,3.3,0,6.6,0.7,10c0.4,1.7,0.8,3.4,1.1,5.2c0.1,0.9,0.2,1.9,0.1,2.9c-0.1,1-0.5,2.1-1.1,3c-0.6,0.9-1.4,1.6-2.2,2.2
		c-0.4,0.3-0.9,0.5-1.3,0.7L78,175c-0.2,0.1-0.3,0.2-0.5,0.3c-1.3,0.8-2.5,1.9-3.4,3.1c-1.9,2.6-3.1,5.8-4.3,9
		c-2.2,6.5-4.1,13.3-7.6,19.4c-1.7,3.1-3.8,6-6.3,8.5c-1.2,1.3-2.5,2.4-3.9,3.5c-1.4,1.1-3,2.1-4.3,2.9c-2.5,1.8-4.6,4.5-6.4,7.2
		c-1.8,2.8-3.3,5.7-4.7,8.7c-2.8,6-5.1,12.3-7.1,18.5c-2,6.3-3.8,12.6-5.4,19c-3.2,12.7-5.6,25.4-7.6,38c-3.9,25.2-6,50-6.2,74
		c-0.1,12,0.4,23.8,1.4,35.3c1.1,11.5,2.8,22.8,5.5,33.5c0.7,2.7,1.4,5.3,2.2,8c0.8,2.7,1.5,5.4,2,8.1c1.1,5.4,1.8,10.8,2.5,16.1
		c1.3,10.6,2.1,21,2.8,31.2c1.4,20.3,2.1,39.6,2.7,57.7c1.2,36.3,1.5,67.9,1.8,93.9c0.2,26,0.2,46.5,0.2,60.4
		C31.4,745.4,31.3,752.8,31.3,752.8z"/>
</g>
<g>
	<path fill="#FFFFFF" d="M181.1,595.6c0,0,3,36.6,4.2,73.3c0.6,18.4,0.8,36.7-0.1,50.5c-0.4,6.9-1.2,12.6-2.2,16.5
		c-0.5,1.9-1.1,3.4-1.7,4.3c-0.3,0.4-0.6,0.8-0.8,0.9c-0.2,0.2-0.3,0.3-0.3,0.3s0.1-0.1,0.3-0.3c0.2-0.2,0.5-0.5,0.8-0.9
		c0.6-0.9,1.2-2.4,1.7-4.3c1-3.9,1.6-9.6,2-16.5c0.7-13.7,0.3-32.1-0.6-50.4c-1.7-36.7-5.2-73.2-5.2-73.2L181.1,595.6z"/>
</g>
<g>
	<path fill="#FFFFFF" d="M494.8,579.5c0,0-0.7,10.2-1.3,25.6c-0.7,15.4-1.3,35.9-1.2,56.4c0.1,20.5,0.9,41.1,3.2,56.3
		c1.1,7.6,2.7,13.9,4.6,18c0.9,2,1.9,3.5,2.8,4.4c0.2,0.2,0.4,0.4,0.6,0.6c0.2,0.1,0.3,0.2,0.5,0.3c0.3,0.2,0.4,0.3,0.4,0.3
		s-0.1-0.1-0.4-0.3c-0.1-0.1-0.3-0.2-0.5-0.3c-0.2-0.1-0.4-0.3-0.6-0.5c-0.9-0.8-1.9-2.3-2.8-4.3c-1.9-4.1-3.5-10.4-4.8-18
		c-2.5-15.2-3.6-35.8-3.9-56.3c-0.7-41.1,1.5-82.2,1.5-82.2L494.8,579.5z"/>
</g>
<g>
	<path fill="#FFFFFF" d="M297.8,653.9c0,0,1.2-0.2,3.4-0.5c2.2-0.3,5.3-0.8,9-1.2c3.7-0.4,8.1-0.9,12.8-1.3
		c4.7-0.4,9.7-0.7,14.7-0.9c2.5-0.1,5-0.1,7.5-0.2c2.5,0,4.9,0,7.2,0.1c4.7,0.1,9.1,0.5,12.8,1c1.9,0.2,3.6,0.5,5.1,0.9
		c0.8,0.1,1.4,0.3,2.1,0.5c0.6,0.2,1.2,0.3,1.7,0.5c0.5,0.2,1,0.3,1.4,0.5c0.4,0.2,0.7,0.3,1,0.4c0.5,0.2,0.8,0.3,0.8,0.3
		s-0.3-0.1-0.8-0.3c-0.3-0.1-0.6-0.2-1-0.4c-0.4-0.1-0.9-0.2-1.4-0.4c-0.5-0.2-1.1-0.3-1.8-0.4c-0.6-0.1-1.3-0.3-2.1-0.4
		c-1.5-0.3-3.2-0.5-5.1-0.7c-3.7-0.4-8.1-0.6-12.8-0.6c-2.3,0-4.8,0-7.2,0c-2.5,0-4.9,0.1-7.4,0.2c-5,0.2-10,0.5-14.6,0.8
		c-4.7,0.3-9,0.6-12.8,1c-3.7,0.3-6.8,0.6-9,0.8C299,653.8,297.8,653.9,297.8,653.9z"/>
</g>
<g>
	<path fill="#FFFFFF" d="M404.2,385.1c0,0,0.8-1.1,2.5-2.8c1.7-1.7,4.3-3.9,7.9-6c1.8-1.1,3.8-2.1,6-3c2.2-0.9,4.6-1.7,7.1-2.3
		c2.5-0.6,5.2-1,7.9-1.1c0.7,0,1.4-0.1,2-0.1c0.7,0,1.4,0,2.1,0c1.4,0,2.8,0.2,4.1,0.3c1.4,0.2,2.7,0.4,4.1,0.6
		c1.3,0.3,2.7,0.5,4,0.9c2.6,0.7,5.2,1.5,7.6,2.4c1.2,0.5,2.4,0.9,3.5,1.4c1.1,0.5,2.2,1,3.3,1.5c2.1,1.1,4.1,2.1,5.8,3.2
		c0.9,0.5,1.7,1,2.5,1.5c0.4,0.2,0.8,0.6,1.1,1c0.1,0.2,0.3,0.5,0.3,0.8c0,0.3-0.1,0.6-0.3,0.8c-0.7,0.8-1.4,1-2.1,1.3
		c-0.7,0.2-1.3,0.4-1.9,0.5c-1.2,0.3-2.1,0.4-2.7,0.5c-0.6,0.1-1,0.1-1,0.1s1.3-0.3,3.6-1c0.6-0.2,1.2-0.4,1.8-0.7
		c0.6-0.3,1.4-0.7,1.7-1.2c0.3-0.5-0.2-1-1.1-1.4c-0.8-0.4-1.7-0.9-2.6-1.3c-1.8-1-3.8-1.8-5.9-2.9c-1.1-0.4-2.2-0.9-3.3-1.4
		c-1.1-0.5-2.3-0.9-3.5-1.3c-2.4-0.8-4.9-1.6-7.4-2.2c-1.3-0.3-2.6-0.5-3.9-0.8c-1.3-0.2-2.6-0.4-4-0.5c-1.3-0.1-2.7-0.3-4-0.3
		c-0.7,0-1.3-0.1-2,0c-0.7,0-1.3,0-2,0.1c-2.6,0.1-5.2,0.4-7.6,0.9c-2.4,0.5-4.8,1.1-6.9,1.9c-2.2,0.8-4.2,1.6-5.9,2.6
		c-1.8,0.9-3.4,1.9-4.7,2.8c-1.4,0.9-2.5,1.8-3.4,2.5C405.2,384.1,404.2,385.1,404.2,385.1z"/>
</g>
<g>
	<path fill="#FFFFFF" d="M259.8,390.8c0,0-1-1.1-3.1-2.7c-1-0.8-2.3-1.7-3.9-2.6c-1.6-0.9-3.4-1.9-5.4-2.8c-2-0.9-4.3-1.6-6.8-2.3
		c-2.5-0.7-5.1-1.1-7.9-1.3c-1.4-0.2-2.8-0.2-4.2-0.2c-0.7,0-1.4,0-2.1,0c-0.7,0-1.4,0-2.2,0.1c-2.9,0.1-5.8,0.6-8.7,1.2
		c-1.4,0.3-2.9,0.6-4.3,1c-1.4,0.4-2.8,0.8-4.2,1.3c-2.8,0.9-5.5,1.9-8,3.1c-1.3,0.6-2.5,1.1-3.7,1.7c-1.2,0.6-2.4,1.2-3.5,1.7
		c-1.1,0.6-2.2,1.2-3.3,1.8c-1.1,0.6-2.1,1.1-3,1.7c-0.9,0.6-1.6,1.3-1.9,2.1c-0.3,0.8,0.3,1.5,1,2c1.5,0.9,3.1,1.2,4.3,1.4
		c1.3,0.1,2.3,0.1,3,0c0.3-0.1,0.6-0.2,0.8-0.3c0.2-0.1,0.2-0.1,0.2-0.1s-0.1,0.1-0.2,0.2c-0.2,0.1-0.4,0.2-0.7,0.3
		c-0.7,0.2-1.7,0.4-3.1,0.3c-1.3-0.1-3-0.2-4.7-1.2c-0.4-0.3-0.9-0.6-1.2-1c-0.3-0.5-0.5-1.2-0.4-1.8c0.3-1.2,1.2-2.1,2.1-2.8
		c0.9-0.8,1.9-1.3,3-2c1-0.6,2.1-1.3,3.3-1.9c1.1-0.6,2.3-1.3,3.5-1.9c1.2-0.6,2.5-1.2,3.8-1.8c2.6-1.2,5.3-2.3,8.1-3.3
		c1.4-0.5,2.9-0.9,4.3-1.3c1.5-0.4,2.9-0.7,4.4-1.1c3-0.5,6-1,9-1.2c3-0.2,6-0.1,8.8,0.3c5.7,0.6,10.9,2.3,14.9,4.3
		c4.1,2,7.1,4.4,9.1,6.1c1,0.9,1.7,1.6,2.2,2.2C259.6,390.5,259.8,390.8,259.8,390.8z"/>
</g>
<g>
	<path fill="#FFFFFF" d="M288.7,519.8c0,0,1.1,0.1,2.6,0.2c0.4,0,0.8,0.1,1.2,0.1c0.4,0,0.9,0.1,1.4,0.1c0.5,0.1,0.9,0,1.4,0.1
		c0.5,0,1,0,1.5,0c0.5,0,1,0,1.5,0c0.5,0,1,0,1.4-0.1c0.5,0,0.9-0.1,1.3-0.1c0.4-0.1,0.8-0.1,1.2-0.2c0.4-0.1,0.7-0.1,1-0.2
		c0.3-0.1,0.6-0.1,0.8-0.2c0.4-0.1,0.7-0.2,0.7-0.2s-0.2,0.2-0.5,0.5c-0.2,0.2-0.4,0.3-0.7,0.5c-0.3,0.2-0.6,0.4-0.9,0.6
		c-0.3,0.2-0.8,0.4-1.2,0.5c-0.4,0.2-0.9,0.3-1.4,0.4c-0.5,0.1-1,0.2-1.5,0.3c-0.5,0.1-1.1,0.1-1.6,0.1c-0.5,0-1.1,0-1.6-0.1
		c-0.5-0.1-1-0.2-1.5-0.3c-1-0.2-1.9-0.5-2.6-0.8C289.5,520.5,288.7,519.8,288.7,519.8z"/>
</g>
<g>
	<path fill="#FFFFFF" d="M353.8,519.8c0,0,1.2,0.1,2.8,0.3c0.8,0.1,1.8,0.2,2.8,0.4c0.5,0.1,1,0.1,1.6,0.2c0.5,0,1.1,0.1,1.6,0.2
		c0.5,0.1,1.1,0.1,1.6,0.1c0.5,0,1,0,1.5,0c0.5,0,1-0.1,1.4-0.1c0.5,0,0.9-0.1,1.3-0.2c0.4-0.1,0.7-0.2,1.1-0.3
		c0.3-0.1,0.6-0.2,0.8-0.3c0.4-0.2,0.7-0.3,0.7-0.3s-0.2,0.2-0.5,0.6c-0.2,0.2-0.4,0.5-0.7,0.7c-0.3,0.2-0.6,0.5-1,0.7
		c-0.4,0.2-0.9,0.5-1.4,0.6c-0.5,0.1-1,0.3-1.6,0.4c-0.6,0.1-1.1,0.2-1.7,0.2c-0.6,0-1.2,0-1.8-0.1c-0.6,0-1.2-0.1-1.7-0.2
		c-0.6-0.1-1.1-0.3-1.6-0.4c-1-0.3-2-0.6-2.8-1C354.7,520.6,353.8,519.8,353.8,519.8z"/>
</g>
<g>
	<path fill="#FFFFFF" d="M297.8,370.8c0,0,0.6,0.5,1.4,1.4c0.9,0.9,2.1,2.2,3.5,3.9c1.4,1.7,2.9,3.7,4.3,6c0.7,1.2,1.4,2.4,2,3.7
		c0.7,1.3,1.2,2.6,1.8,4c0.5,1.4,1,2.8,1.3,4.2c0.3,1.4,0.6,2.8,0.8,4.1c0.1,0.7,0.2,1.3,0.2,2c0,0.7,0,1.3,0,1.9
		c0,0.6-0.1,1.2-0.1,1.8c0,0.6-0.1,1.2-0.2,1.7c-0.1,1.1-0.4,2-0.7,2.9c-0.3,0.8-0.5,1.6-0.8,2.2c-0.5,1.2-0.8,1.8-0.8,1.8
		s0.2-0.7,0.6-1.9c0.2-0.6,0.4-1.3,0.6-2.2c0.2-0.9,0.4-1.8,0.5-2.9c0.1-0.5,0.1-1.1,0.1-1.7c0-0.6,0.1-1.2,0-1.8
		c0-0.6,0-1.2-0.1-1.9c-0.1-0.6-0.1-1.3-0.2-1.9c-0.2-1.3-0.5-2.7-0.8-4c-0.4-1.4-0.8-2.7-1.3-4c-0.5-1.3-1.1-2.6-1.7-3.9
		c-0.6-1.3-1.3-2.5-2-3.6c-0.7-1.1-1.4-2.3-2-3.3c-0.7-1-1.3-2-2-2.8c-1.3-1.7-2.4-3.1-3.2-4.1C298.2,371.3,297.8,370.8,297.8,370.8
		z"/>
</g>
<g>
	<path fill="#FFFFFF" d="M353.8,370.8c0,0-0.2,0.6-0.5,1.8c-0.3,1.1-0.7,2.8-1.2,4.7c-0.5,1.9-0.9,4.2-1.3,6.7
		c-0.2,1.2-0.4,2.5-0.5,3.8c-0.1,1.3-0.3,2.6-0.3,3.9c-0.1,1.3-0.1,2.7-0.1,4c0,0.7,0,1.3,0.1,1.9c0,0.6,0.1,1.3,0.1,1.9
		c0.1,1.2,0.3,2.4,0.5,3.5c0.2,1.1,0.5,2.2,0.7,3.1c0.3,0.9,0.6,1.8,0.9,2.6c0.3,0.8,0.6,1.4,0.8,1.9c0.5,1,0.9,1.6,0.9,1.6
		s-0.1-0.1-0.3-0.4c-0.2-0.3-0.5-0.6-0.8-1.1c-0.3-0.5-0.7-1.1-1-1.9c-0.2-0.4-0.4-0.8-0.6-1.2c-0.2-0.4-0.3-0.9-0.5-1.4
		c-0.3-1-0.6-2-0.9-3.1c-0.3-1.1-0.5-2.3-0.6-3.6c-0.1-1.3-0.3-2.6-0.3-3.9c0-1.3,0-2.7,0.1-4c0.2-2.7,0.5-5.4,1-7.9
		c0.5-2.5,1.1-4.8,1.6-6.7c0.6-1.9,1.1-3.5,1.5-4.6C353.5,371.4,353.8,370.8,353.8,370.8z"/>
</g>
<g>
	<path fill="#FFFFFF" d="M77.6,320.7c0,0,0.6,0.2,1.5,0.7c0.5,0.2,1,0.6,1.7,0.9c0.6,0.4,1.3,0.8,2.1,1.4c0.7,0.5,1.5,1.1,2.3,1.8
		c0.8,0.7,1.6,1.4,2.4,2.2c0.4,0.4,0.8,0.8,1.2,1.3c0.4,0.4,0.8,0.9,1.2,1.3c0.8,0.9,1.5,1.9,2.2,2.9c0.3,0.5,0.7,1,1,1.5
		c0.3,0.5,0.6,1.1,0.9,1.6c0.6,1,1.1,2.1,1.5,3.2c0.5,1,0.8,2.1,1.1,3.1c0.2,0.5,0.3,1,0.5,1.5c0.1,0.5,0.2,0.9,0.3,1.4
		c0.2,0.9,0.4,1.7,0.4,2.4c0.1,0.7,0.1,1.4,0.1,1.9c0.1,1.1,0.1,1.6,0.1,1.6s-0.2-0.6-0.5-1.6c-0.1-0.5-0.3-1.1-0.5-1.8
		c-0.2-0.7-0.5-1.4-0.8-2.3c-0.1-0.4-0.3-0.8-0.5-1.3c-0.2-0.4-0.4-0.9-0.6-1.4c-0.4-0.9-0.8-1.9-1.3-2.9c-0.5-1-1-2-1.6-3
		c-0.3-0.5-0.6-1-0.9-1.5c-0.3-0.5-0.7-1-1-1.4c-0.6-1-1.3-1.9-2-2.8c-0.7-0.9-1.5-1.8-2.1-2.6c-0.8-0.8-1.4-1.6-2.2-2.3
		c-0.7-0.7-1.4-1.4-2-2c-1.3-1.2-2.4-2.2-3.2-2.9C78.1,321.1,77.6,320.7,77.6,320.7z"/>
</g>
<g>
	<path fill="#FFFFFF" d="M112,394.7c0,0-0.1,0.3-0.2,1c-0.1,0.6-0.3,1.5-0.6,2.7c-0.2,1.2-0.5,2.6-0.7,4.2c-0.2,1.6-0.5,3.5-0.4,5.4
		c0.1,1,0.2,2,0.7,2.7c0.6,0.8,1.3,1.8,1.9,2.7c1.4,1.9,2.8,3.9,4.3,6c1.5,2.1,2.9,4.3,4.4,6.6c1.5,2.3,2.9,4.6,4.3,6.9
		c1.4,2.4,2.7,4.8,4,7.2c1.2,2.4,2.4,4.8,3.4,7.2c2.1,4.7,3.6,9.3,4.4,13.4c0.8,4.1,0.8,7.6,0.4,10c-0.2,1.2-0.5,2.1-0.7,2.7
		c-0.2,0.6-0.3,0.9-0.3,0.9s0.1-0.3,0.2-0.9c0.1-0.6,0.3-1.5,0.4-2.7c0.1-1.2,0.1-2.6-0.1-4.3c-0.2-1.6-0.5-3.5-1-5.4
		c-0.5-2-1.2-4-2-6.2c-0.8-2.2-1.8-4.4-2.9-6.7c-2.2-4.6-4.8-9.3-7.6-14c-1.4-2.3-2.8-4.6-4.3-6.9c-1.4-2.3-2.9-4.4-4.3-6.6
		c-1.4-2.1-2.8-4.2-4.1-6.1c-0.7-1-1.3-1.9-1.9-2.9c-0.7-1.2-0.7-2.4-0.7-3.5c0.1-2.1,0.4-4,0.8-5.6c0.4-1.6,0.8-3,1.2-4.2
		c0.4-1.1,0.7-2,0.9-2.6C111.9,395,112,394.7,112,394.7z"/>
</g>
</svg>
