<?xml version="1.0" encoding="utf-8"?>
<!-- Generator: Adobe Illustrator 18.1.1, SVG Export Plug-In . SVG Version: 6.00 Build 0)  -->
<svg version="1.1" id="Lager_4" xmlns="http://www.w3.org/2000/svg" xmlns:xlink="http://www.w3.org/1999/xlink" x="0px" y="0px"
	 viewBox="0 0 272.5 400.2" enable-background="new 0 0 272.5 400.2" xml:space="preserve">
<path fill="none" stroke="#FFFFFF" stroke-width="2" stroke-miterlimit="10" d="M181.2,174.7c0,39.5-31.6,71.6-70.7,71.6
	s-70.7-32-70.7-71.6s31.6-71.6,70.7-71.6S181.2,135.2,181.2,174.7z M110.5,70.5C51.8,70.5,4.1,117.2,4.1,174.7S51.8,279,110.5,279
	s106.4-46.7,106.4-104.3S169.3,70.5,110.5,70.5z M95.5,278l0.2,48.2H50.3l0,23h44.8l0.1,48.2l32.8-0.1l0.1-48.6l46.4,0.2l0-22.8
	h-45.3l0.1-48.3 M133.7,134.5"/>
<path fill="none" stroke="#FFFFFF" stroke-width="2" stroke-miterlimit="10" d="M222.2,233.6"/>
<path fill="none" stroke="#FFFFFF" stroke-width="2" stroke-miterlimit="10" d="M65.8,175.2"/>
<rect x="65.8" y="155.2" fill="none" stroke="#FFFFFF" stroke-width="2" stroke-miterlimit="10" width="90" height="17"/>
<rect x="65.8" y="179.2" fill="none" stroke="#FFFFFF" stroke-width="2" stroke-miterlimit="10" width="90" height="17"/>
<polyline fill="none" stroke="#FFFFFF" stroke-width="2" stroke-miterlimit="10" points="194.3,110.5 239.8,56.7 256.1,71.4 
	260,12.7 203.1,22.5 220.1,37.9 173.4,91.3 "/>
</svg>
