<?xml version="1.0" encoding="utf-8"?>
<!-- Generator: Adobe Illustrator 18.1.1, SVG Export Plug-In . SVG Version: 6.00 Build 0)  -->
<svg version="1.1" id="Lager_4" xmlns="http://www.w3.org/2000/svg" xmlns:xlink="http://www.w3.org/1999/xlink" x="0px" y="0px"
	 viewBox="0 0 222.2 337.9" enable-background="new 0 0 222.2 337.9" xml:space="preserve">
<path fill="none" stroke="#000000" stroke-miterlimit="10" d="M181.2,112.4c0,39.5-31.6,71.6-70.7,71.6s-70.7-32-70.7-71.6
	s31.6-71.6,70.7-71.6S181.2,72.9,181.2,112.4z M110.5,8.2C51.8,8.2,4.1,54.9,4.1,112.4s47.6,104.3,106.4,104.3
	S216.9,170,216.9,112.4S169.3,8.2,110.5,8.2z M95.5,215.5l0.2,48H50.3l0,23h44.8l0.1,48.5l32.8,0l0.1-48.5l46.4,0l0-23l-45.3,0
	l0.1-48.2 M129.1,181.7l0.1-15.4c0,0,0-1.9,1.5-2.8c0.4-0.2,4.3-3.4,5.6-4.3c2.5-1.7,17.8-9.9,20.6-13.8c1.5-2.1,7.2-14.9,4.1-26.2
	c-3.1-11.3-21.1-11.2-22.4-10.9c-3.2,0.7-10,1.8-14.2,0.1c-3.5-1.4-12.2-2.9-22.1,0.5s0.7,17.9,3,18.9c1.6,0.7,13.6,3.1,14.3,4.7
	c0.6,1.6-7-0.1-9.2-0.8c-3.8-1.3-28.4-7.3-35.6-5.3s3.4,23.7,4.7,25.3c1.2,1.6,10.2,9.5,14.1,12.8c1,0.8,1.6,2,1.6,3.3V183
	 M133.7,72.2c0,0-1.4,28.2,0.8,30.1c2.2,1.8,17.1,11.9,19.7-2.2c2.7-14.1-4.2-26.7-8.3-28.6C141.7,69.5,137.8,60.9,133.7,72.2
	 M128.5,63.6c-2.7-9.1-23,0.2-23.3,0.9c-0.3,0.7-0.2,6.2,3,27.2c3.2,21,22.4,11.3,22.4,11.3C132.1,103.4,131.2,72.7,128.5,63.6z
	 M92.2,63.1c0,0-13.8,1.7-9.2,23.4c4.6,21.7,4.3,22.2,6.7,22.7c2.4,0.4,19.7-0.6,19.7-5.6s-7.1-33.1-7.3-33.7
	C102,69.2,100.9,62.5,92.2,63.1z M69.3,79.4c0,0-10.1,3.9-7.3,20.8c2.8,16.9,3.4,19.8,5.9,20.8c2.1,0.9,12.7,3.6,14.2-3.5
	c1.5-7.1,0.2-21.2,0-22.9C81.7,91.9,82.3,73.6,69.3,79.4z"/>
<path fill="none" stroke="#000000" stroke-miterlimit="10" d="M222.2,171.3"/>
</svg>
