<?xml version="1.0" encoding="utf-8"?>
<!-- Generator: Adobe Illustrator 18.1.1, SVG Export Plug-In . SVG Version: 6.00 Build 0)  -->
<svg version="1.1" id="Lager_2" xmlns="http://www.w3.org/2000/svg" xmlns:xlink="http://www.w3.org/1999/xlink" x="0px" y="0px"
	 viewBox="0 0 539.3 768" enable-background="new 0 0 539.3 768" xml:space="preserve">
<path fill="none" stroke="#FFFFFF" stroke-width="2" stroke-miterlimit="10" d="M262,759.1c0,0-57.9-6.7-110.2-89.8
	c-44.2-70.2-52-102.9-53.1-109.1c-2-10.9-3.4-15.8-4.4-26.7c-0.7-8.3-7.2-58.2-11.6-65c-6.6-10-4.7-31.6-13.5-51.3
	c-10.8-24.3-29.8-108.4-26.7-125.5c3.1-17.1-9.1-51.5-9.1-59.8c0-8.3-2.6-29-5.2-32.7c-2.6-3.6-23.7-32-9.6-45.1
	c14.4-13.3,15.4-12.6,16.9-18c1.8-6.4-13.1-16.2-4.2-16.8c17.6-1.3,6.7-26.3,15-26.8c8.3-0.5,22.3-47.3,45.2-43.7
	c22.8,3.6,21.6-11.2,38.9-8.8c14.8,2-19.5-7.1-26.5-5.7c-10.4,2,23.8-11.5,62.8-0.2c16.7,4.8,15.1-19,30.6-20
	c23.3-1.5,54.5,0.1,67.1,5.7c3.3,1.5,9.6-12,26.7-5.8c17.1,6.3,27,10.4,35.8,12.5s32-2.6,49.6,7.8c17.6,10.4,32.8,12.4,47.6,28.7
	c6.8,7.5,16.6-2.2,28.3,25.3c12.3,28.7,15.7,15,15.2,24.8s9.2-1.3,10.8,2.8c1.6,4.1,9.2,8.4-0.8,14.6c-17.5,10.8,17.7,5.6,13.1,33.4
	c-2.2,13.3,26.1,9.1,27.2,24.1c1.4,18.9,11.3,62.7,1.9,74.5c-9.4,11.9-16.3,30.6-14.5,35.8c2.6,7.5,3.2,35.9-9.2,68.5
	s-20.9,39.3-21.4,50.8c-0.5,11.4-9.9,68.7-9.3,75.2c0.7,8.3-2.1,66.5-9.3,84.7c-5.4,13.6-22.7,59.4-33.7,74.5
	c-11.3,15.5-23.9,40.5-46.7,60.7C352.9,733.1,336.6,765.4,262,759.1z"/>
<g>
	<path fill="#FFFFFF" d="M265.5,529.5c-4.4-0.3-8.8-0.7-13.1-1.3c-2.2-0.3-4.4-0.6-6.5-1c-1.1-0.2-2.2-0.4-3.3-0.7
		c-0.5-0.2-1.1-0.3-1.6-0.5c-0.3-0.1-0.5-0.2-0.8-0.4c-0.3-0.2-0.6-0.4-0.9-0.8l0-0.1l0-0.1c-0.3-1.3-0.3-2.7,0.3-4
		c0.3-0.7,0.8-1.2,1.4-1.6c0.6-0.4,1.3-0.6,2-0.7c0.7-0.1,1.3-0.1,2-0.1c0.7,0.1,1.2,0.1,1.9,0.2l1,0.2l0.9,0.2
		c0.6,0.1,1.2,0.3,1.8,0.5c2.4,0.8,4.6,1.8,6.8,2.9c2.2,1.2,4.3,2.5,6.2,4.1c1,0.8,1.9,1.6,2.8,2.5c0.4,0.5,0.9,0.9,1.2,1.4l1.1,1.4
		c0.4,0.5,0.7,0.8,1.1,1.2c0.4,0.4,0.8,0.8,1.3,1.1c0.9,0.7,1.9,1.2,2.9,1.6c2.1,0.8,4.4,1,6.5,0.4c1-0.3,2-0.8,2.9-1.5
		c0.5-0.4,0.9-0.8,1.2-1.1c0.4-0.4,0.8-0.9,1.1-1.3c1.5-1.8,2.8-3.9,4.3-5.8c1.5-1.9,3.1-3.9,5.1-5.5c0.5-0.4,1-0.8,1.6-1.1l0.8-0.5
		l0.9-0.4c0.6-0.3,1.2-0.4,1.9-0.6c0.6-0.2,1.2-0.3,1.8-0.4c2.4-0.5,4.8-0.9,7.3-1c0.6,0,1.3,0,1.9,0.1c0.6,0.1,1.4,0.2,2.1,0.8
		c0.4,0.3,0.5,0.9,0.4,1.4c-0.1,0.4-0.2,0.8-0.4,1.1c-0.4,0.6-0.8,1.1-1.2,1.5c-0.3,0.3-0.5,0.4-0.7,0.6c-0.2,0.2-0.5,0.4-0.7,0.6
		l-0.8,0.5c-0.3,0.2-0.6,0.3-0.8,0.4c-1.1,0.6-2.3,1-3.4,1.4c-2.3,0.8-4.7,1.3-7.1,1.7c-1.2,0.2-2.4,0.4-3.6,0.5
		c-0.6,0.1-1.2,0.1-1.8,0.1c-0.6,0-1.2,0-1.8-0.1c0.6,0.1,1.2,0,1.8,0c0.6-0.1,1.2-0.1,1.8-0.2c1.2-0.2,2.4-0.4,3.6-0.7
		c2.4-0.5,4.7-1.2,6.9-2.1c1.1-0.4,2.2-0.9,3.2-1.5c0.3-0.1,0.5-0.3,0.8-0.4l0.7-0.5c0.2-0.1,0.5-0.3,0.7-0.6
		c0.2-0.2,0.5-0.4,0.6-0.6c0.4-0.4,0.7-0.9,1-1.3c0.1-0.2,0.2-0.5,0.2-0.6c0-0.2,0-0.2-0.1-0.3c-0.2-0.2-0.8-0.3-1.3-0.4
		c-0.6,0-1.1,0-1.7,0c-2.3,0.2-4.7,0.6-7.1,1.2c-0.6,0.1-1.2,0.3-1.7,0.4c-0.5,0.2-1.1,0.3-1.6,0.6l-0.8,0.4l-0.7,0.5
		c-0.5,0.3-0.9,0.7-1.4,1c-1.8,1.5-3.3,3.3-4.7,5.2c-1.4,1.9-2.8,3.9-4.3,5.9c-0.4,0.5-0.8,1-1.2,1.4c-0.5,0.5-1,1-1.4,1.3
		c-1.1,0.8-2.2,1.5-3.5,1.9c-2.6,0.7-5.3,0.6-7.8-0.4c-1.2-0.5-2.4-1.1-3.4-1.9c-0.5-0.4-1-0.8-1.5-1.3c-0.4-0.5-0.9-1-1.3-1.5
		l-1.1-1.4c-0.3-0.5-0.7-0.9-1.1-1.3c-0.8-0.8-1.7-1.6-2.6-2.4c-1.8-1.5-3.8-2.8-5.9-4c-2.1-1.2-4.2-2.2-6.5-2.9
		c-1.1-0.4-2.3-0.7-3.4-0.9c-0.5-0.1-1.2-0.2-1.7-0.3c-0.6,0-1.1,0-1.6,0.1c-0.5,0.1-1,0.2-1.4,0.5c-0.4,0.3-0.7,0.6-1,1
		c-0.4,0.9-0.5,2.1-0.3,3.1l-0.1-0.1c0,0,0.2,0.2,0.4,0.3c0.2,0.1,0.4,0.2,0.7,0.3c0.5,0.2,1,0.4,1.5,0.5c1,0.3,2.1,0.6,3.1,0.8
		c2.1,0.5,4.3,0.9,6.4,1.3C256.8,528.3,261.1,528.9,265.5,529.5z"/>
</g>
<g>
	<path fill="#FFFFFF" d="M231.4,502.2c0,0-0.5,0.7-1.3,2c-0.8,1.3-1.9,3.2-3,5.6c-0.5,1.2-1.1,2.5-1.5,3.9c-0.4,1.4-0.8,2.9-1.1,4.5
		c-0.2,1.6-0.3,3.2-0.2,4.8c0.1,1.6,0.4,3.3,1.1,4.8c0.2,0.8,0.7,1.5,1,2.3c0.4,0.7,0.8,1.4,1.3,2.1c0.5,0.6,1,1.3,1.6,1.9
		c0.5,0.6,1.1,1.2,1.7,1.7c0.6,0.5,1.2,1.1,1.8,1.5c0.6,0.5,1.2,1,1.8,1.4c0.6,0.4,1.2,0.8,1.8,1.2c0.6,0.4,1.2,0.7,1.7,1
		c1.1,0.7,2.2,1.2,3.1,1.7c0.9,0.5,1.8,0.9,2.5,1.2c1.4,0.7,2.2,1,2.2,1s-0.9-0.2-2.3-0.7c-0.7-0.2-1.7-0.5-2.7-0.9
		c-1-0.4-2.2-0.8-3.4-1.4c-0.6-0.3-1.2-0.6-1.9-0.9c-0.6-0.4-1.3-0.7-2-1.1c-0.7-0.4-1.3-0.9-2-1.3c-0.7-0.4-1.3-1-2-1.5
		c-0.7-0.5-1.3-1.1-1.9-1.8c-0.7-0.6-1.2-1.3-1.7-2c-0.6-0.7-1-1.5-1.5-2.3c-0.4-0.8-0.9-1.6-1.2-2.5c-0.7-1.7-1-3.6-1.1-5.4
		c-0.2-1.8,0.1-3.6,0.4-5.3c0.3-1.7,0.9-3.2,1.4-4.7c0.6-1.4,1.2-2.7,1.9-3.9c1.3-2.3,2.7-4.1,3.7-5.3
		C230.8,502.8,231.4,502.2,231.4,502.2z"/>
</g>
<g>
	<path fill="#FFFFFF" d="M305.5,540c0,0,0.9-0.1,2.3-0.3c1.5-0.2,3.6-0.6,6-1.3c1.2-0.3,2.5-0.8,3.8-1.4c1.3-0.6,2.6-1.3,3.8-2.2
		c1.2-0.9,2.2-2.1,3.1-3.4c0.8-1.3,1.4-2.8,1.6-4.4c0.2-0.8,0.1-1.6,0.2-2.4c0-0.8-0.1-1.6-0.2-2.4c-0.2-0.8-0.2-1.6-0.4-2.4
		c-0.2-0.8-0.4-1.5-0.6-2.3c-0.2-0.7-0.5-1.5-0.7-2.2c-0.3-0.7-0.5-1.4-0.8-2.1c-0.1-0.3-0.3-0.7-0.4-1c-0.1-0.3-0.3-0.6-0.4-0.9
		c-0.3-0.6-0.6-1.2-0.8-1.8c-0.6-1.1-1.1-2.2-1.6-3.1c-0.5-0.9-0.9-1.7-1.3-2.4c-0.7-1.3-1.1-2.1-1.1-2.1s0.5,0.7,1.4,1.9
		c0.4,0.6,1,1.3,1.6,2.2c0.6,0.9,1.3,1.8,1.9,2.9c0.6,1.1,1.4,2.3,2,3.7c0.3,0.7,0.7,1.4,1,2.1c0.3,0.7,0.6,1.5,0.9,2.2
		c0.3,0.8,0.5,1.6,0.7,2.4c0.2,0.8,0.4,1.7,0.5,2.5c0.1,0.9,0.2,1.8,0.2,2.6c0,0.9,0,1.8-0.2,2.7c-0.3,1.8-0.9,3.6-1.9,5.1
		c-1,1.5-2.3,2.8-3.6,3.8c-2.8,1.9-5.8,2.8-8.3,3.3c-2.6,0.5-4.7,0.6-6.2,0.5C306.4,540.2,305.5,540,305.5,540z"/>
</g>
<g>
	<path fill="#FFFFFF" d="M252.7,390.8c0,0,0.4,1,1,2.9c0.6,1.8,1.5,4.5,2.3,7.6c0.4,1.6,0.9,3.3,1.3,5.2c0.4,1.8,0.9,3.8,1.3,5.8
		c0.8,4.1,1.5,8.4,1.9,12.8c0.2,2.2,0.3,4.4,0.4,6.6c0.1,2.2,0,4.3,0,6.4c0,1-0.1,2.1-0.2,3.1c-0.1,1-0.2,2-0.3,2.9
		c-0.1,0.9-0.3,1.9-0.4,2.7c-0.2,0.9-0.3,1.7-0.5,2.5c-0.4,1.6-0.8,3.1-1.2,4.4c-0.4,1.3-0.9,2.4-1.2,3.3c-0.4,0.9-0.7,1.6-1,2
		c-0.2,0.5-0.4,0.7-0.4,0.7s0.1-0.3,0.3-0.7c0.2-0.5,0.5-1.2,0.8-2.1c0.3-0.9,0.7-2,1-3.3c0.4-1.3,0.7-2.8,1-4.4
		c0.1-0.8,0.3-1.7,0.4-2.5c0.1-0.9,0.2-1.8,0.3-2.7c0.1-0.9,0.1-1.9,0.2-2.9c0-1,0.1-2,0.1-3c0-2.1,0.1-4.2,0-6.3
		c-0.1-2.2-0.2-4.3-0.5-6.5c-0.4-4.4-1-8.7-1.7-12.8c-0.7-4.1-1.5-7.8-2.3-11C254,395.1,252.7,390.8,252.7,390.8z"/>
</g>
<g>
	<path fill="#FFFFFF" d="M306.7,390.8c0,0-0.1,0.2-0.4,0.7c-0.3,0.5-0.6,1.1-1,2c-0.4,0.9-0.9,1.9-1.5,3.2c-0.5,1.2-1.1,2.7-1.7,4.2
		c-0.6,1.5-1.1,3.3-1.7,5.1c-0.3,0.9-0.5,1.9-0.8,2.8c-0.3,1-0.5,2-0.7,3c-0.2,1-0.4,2.1-0.7,3.1c-0.2,1-0.3,2.1-0.5,3.2
		c-0.1,1.1-0.4,2.2-0.4,3.3c-0.1,1.1-0.2,2.2-0.3,3.3l-0.1,1.7l0,1.7c0,1.1,0,2.2-0.1,3.3c-0.1,1.1,0.1,2.2,0.1,3.2
		c0.1,1.1,0.1,2.1,0.2,3.2c0,1,0.2,2,0.3,3c0.1,1,0.2,2,0.4,2.9c0.2,1.9,0.6,3.7,1,5.3c0.2,0.8,0.3,1.6,0.5,2.3
		c0.1,0.4,0.1,0.7,0.2,1.1c0.1,0.3,0.2,0.7,0.3,1c0.4,1.3,0.7,2.4,1,3.4c0.5,1.9,0.8,3,0.8,3s-0.4-1.1-1-2.9c-0.3-0.9-0.7-2-1.1-3.3
		c-0.1-0.3-0.2-0.7-0.3-1c-0.1-0.4-0.2-0.7-0.3-1.1c-0.2-0.7-0.4-1.5-0.6-2.3c-0.4-1.6-0.9-3.4-1.1-5.3c-0.1-1-0.3-1.9-0.5-2.9
		c-0.1-1-0.3-2-0.4-3.1c-0.1-1-0.1-2.1-0.2-3.2c-0.1-1.1-0.2-2.2-0.1-3.3c0-1.1,0-2.2,0-3.3l0-1.7l0.1-1.7c0.1-1.1,0.2-2.2,0.3-3.3
		c0.1-1.1,0.3-2.2,0.5-3.3c0.2-1.1,0.3-2.2,0.5-3.2c0.2-1.1,0.5-2.1,0.7-3.1c0.2-1,0.5-2,0.8-3c0.3-1,0.6-1.9,0.8-2.8
		c0.7-1.8,1.2-3.5,1.9-5.1c0.3-0.8,0.6-1.5,0.9-2.2c0.3-0.7,0.6-1.3,0.9-2c0.6-1.2,1.2-2.3,1.6-3.1
		C306.1,391.7,306.7,390.8,306.7,390.8z"/>
</g>
<path fill="none" stroke="#FFFFFF" stroke-width="1.5" stroke-miterlimit="10" d="M326.5,415.1c0,0,31.8-39.1,70.4-4.3
	C396.8,410.8,375.6,442,326.5,415.1z"/>
<g>
	<path fill="#FFFFFF" d="M366.7,409.3c0,0,0,0.1,0,0.4c0,0.2,0,0.6-0.2,1c-0.2,0.8-0.7,2-1.9,3c-0.6,0.5-1.4,0.9-2.3,1.1
		c-0.2,0-0.4,0.1-0.7,0.1c-0.2,0-0.4,0-0.7,0c-0.5,0-1-0.1-1.5-0.3c-1-0.3-1.9-1-2.6-1.9c-0.7-0.9-1.1-2.1-1.1-3.3
		c0-0.4,0-0.5,0.1-0.9c0-0.3,0.1-0.6,0.2-0.9c0.2-0.6,0.5-1.1,0.8-1.5c0.3-0.5,0.7-0.9,1.2-1.2c0.5-0.3,0.9-0.6,1.4-0.8
		c1-0.4,2.1-0.4,2.9-0.2c0.9,0.2,1.7,0.6,2.3,1.1c1.2,1,1.7,2.2,1.9,3c0.1,0.4,0.1,0.8,0.2,1C366.7,409.2,366.7,409.3,366.7,409.3z
		 M366.7,409.3c0,0,0-0.1,0-0.4c0-0.2-0.1-0.6-0.2-1c-0.1-0.4-0.3-0.9-0.7-1.4c-0.4-0.5-0.8-1-1.5-1.3c-0.6-0.3-1.4-0.6-2.1-0.5
		c-0.8,0-1.6,0.2-2.3,0.6c-0.7,0.4-1.3,1-1.7,1.7c-0.2,0.3-0.3,0.7-0.4,1.1c0,0.2-0.1,0.4-0.1,0.6c0,0.1,0,0.5,0,0.6
		c0,0.8,0.2,1.6,0.6,2.3c0.4,0.7,1,1.3,1.7,1.7c0.3,0.2,0.7,0.4,1.1,0.5c0.2,0.1,0.4,0.1,0.6,0.1c0.2,0,0.4,0,0.6,0
		c0.8,0,1.5-0.2,2.1-0.6c0.6-0.3,1.1-0.8,1.5-1.3c0.4-0.5,0.6-1,0.7-1.4c0.1-0.4,0.2-0.7,0.2-1C366.7,409.4,366.7,409.3,366.7,409.3
		z"/>
</g>
<g>
	<path fill="#FFFFFF" d="M194.7,414c0,0,0,0.1,0,0.4c0,0.2,0,0.6-0.2,1c-0.2,0.8-0.7,2-1.9,3c-0.6,0.5-1.4,0.9-2.3,1.1
		c-0.2,0-0.4,0.1-0.7,0.1c-0.2,0-0.4,0-0.7,0c-0.5,0-1-0.1-1.5-0.3c-1-0.3-1.9-1-2.6-1.9c-0.7-0.9-1.1-2-1.1-3.3
		c0-0.4,0.1-1.2,0.3-1.7c0.2-0.6,0.5-1.1,0.8-1.5c0.3-0.5,0.7-0.9,1.2-1.2c0.5-0.3,0.9-0.6,1.4-0.8c1-0.4,2.1-0.4,2.9-0.2
		c0.9,0.2,1.7,0.6,2.3,1.1c1.2,1,1.7,2.2,1.9,3c0.1,0.4,0.1,0.8,0.2,1C194.7,413.8,194.7,414,194.7,414z M194.7,414c0,0,0-0.1,0-0.4
		c0-0.2-0.1-0.6-0.2-1c-0.1-0.4-0.3-0.9-0.7-1.4c-0.4-0.5-0.8-1-1.5-1.3c-0.6-0.3-1.4-0.6-2.1-0.5c-0.8,0-1.6,0.2-2.3,0.6
		c-0.7,0.4-1.3,1-1.7,1.7c-0.2,0.3-0.3,0.7-0.4,1.1c-0.1,0.4-0.1,0.7-0.2,1.2c0,0.3,0.1,0.8,0.2,1.1c0.1,0.4,0.3,0.7,0.4,1.1
		c0.4,0.7,1,1.3,1.7,1.7c0.3,0.2,0.7,0.4,1.1,0.5c0.2,0.1,0.4,0.1,0.6,0.1c0.2,0,0.4,0,0.6,0c0.8,0,1.5-0.2,2.1-0.6
		c0.6-0.3,1.1-0.8,1.5-1.3c0.4-0.5,0.6-1,0.7-1.4c0.1-0.4,0.2-0.7,0.2-1C194.7,414.1,194.7,414,194.7,414z"/>
</g>
<path fill="none" stroke="#FFFFFF" stroke-width="1.5" stroke-miterlimit="10" d="M155.1,414.7c0,0,22.6,29,72.1,6.1
	C227.1,420.8,196.1,378.7,155.1,414.7z"/>
<g>
	<path fill="#FFFFFF" d="M175,402.5c0,0-0.5,1.1-1.1,3.1c-0.6,2-1.3,4.9-1.1,8.3c0.1,1.7,0.5,3.6,1.3,5.3c0.8,1.7,2,3.4,3.7,4.8
		c1.6,1.4,3.6,2.4,5.6,3.3c0.5,0.2,1.1,0.4,1.6,0.6l1.6,0.5c0.5,0.1,1.1,0.3,1.7,0.4c0.5,0.1,1.1,0.2,1.6,0.2c2.2,0.2,4.5-0.1,6.4-1
		c2-0.9,3.7-2.2,5.1-3.8c1.4-1.6,2.4-3.4,3.1-5.3c0.7-1.8,1.1-3.7,1.2-5.4c0.1-1.7,0-3.3-0.2-4.7c-0.2-1.4-0.7-2.6-1.1-3.5
		c-0.2-0.5-0.4-0.9-0.7-1.2c-0.2-0.3-0.4-0.6-0.6-0.8c-0.3-0.4-0.5-0.7-0.5-0.7s0.2,0.2,0.6,0.6c0.2,0.2,0.4,0.5,0.7,0.8
		c0.3,0.3,0.5,0.7,0.8,1.2c0.5,0.9,1.1,2.1,1.5,3.5c0.4,1.4,0.7,3.1,0.6,4.9c0,1.8-0.3,3.8-1,5.8c-0.7,2-1.7,4.1-3.1,5.9
		c-1.5,1.8-3.4,3.5-5.7,4.5c-2.3,1.1-4.9,1.4-7.4,1.2c-0.6-0.1-1.3-0.2-1.9-0.3c-0.6-0.2-1.1-0.3-1.8-0.5l-1.7-0.6
		c-0.6-0.2-1.1-0.4-1.7-0.7c-2.2-0.9-4.3-2.2-6-3.8c-1.8-1.5-3.1-3.5-3.9-5.5c-0.8-2-1.1-4-1.1-5.9c0-1.8,0.3-3.5,0.6-4.9
		c0.4-1.4,0.8-2.6,1.2-3.6c0.4-1,0.8-1.7,1-2.2C174.9,402.8,175,402.5,175,402.5z"/>
</g>
<g>
	<path fill="#FFFFFF" d="M348.8,399.3c0,0-0.5,1.1-1.2,3.1c-0.3,1-0.7,2.2-1,3.6c-0.3,1.4-0.5,3-0.4,4.8c0.1,1.7,0.3,3.6,1.1,5.4
		c0.8,1.8,2,3.5,3.7,4.8c1.7,1.3,3.7,2.3,5.8,3.1c1.1,0.4,2.2,0.7,3.3,1l1.7,0.3c0.5,0,1.1,0.1,1.6,0.1c2.2,0.1,4.5-0.4,6.5-1.3
		c2-1,3.7-2.4,5.1-4.1c2.8-3.3,4.3-7.3,4.8-10.7c0.3-1.7,0.3-3.4,0.1-4.8c-0.2-1.4-0.6-2.6-1-3.5c-0.2-0.5-0.5-0.8-0.7-1.2
		c-0.3-0.3-0.5-0.6-0.7-0.8c-0.4-0.4-0.7-0.6-0.7-0.6s0.3,0.2,0.7,0.5c0.2,0.2,0.5,0.4,0.8,0.7c0.3,0.3,0.6,0.7,0.9,1.1
		c1.2,1.8,2.1,4.9,1.7,8.6c-0.1,1.8-0.6,3.8-1.3,5.8c-0.7,2-1.8,4-3.3,5.9c-1.5,1.8-3.3,3.5-5.6,4.7c-2.3,1.1-4.9,1.7-7.4,1.6
		c-0.6,0-1.3-0.1-1.9-0.2l-1.8-0.4c-1.2-0.3-2.4-0.6-3.5-1.1c-2.3-0.8-4.5-2-6.3-3.6c-1.8-1.5-3.2-3.5-3.9-5.6c-0.8-2-1-4.1-0.9-6
		c0.1-1.9,0.5-3.5,0.9-4.9c0.4-1.4,0.9-2.6,1.3-3.6c0.4-1,0.8-1.7,1.1-2.2C348.6,399.6,348.8,399.3,348.8,399.3z"/>
</g>
<g>
	<path fill="#FFFFFF" d="M217.3,627.5c0,0,3.2,3.8,9.1,10.3c2.9,3.3,6.5,7.2,10.6,11.7c2.1,2.2,4.3,4.6,6.7,7.1
		c2.4,2.5,4.9,5,7.7,7.6c1.4,1.3,2.8,2.5,4.4,3.7c0.4,0.3,0.8,0.5,1.2,0.8c0.4,0.2,0.8,0.4,1.3,0.6c0.9,0.4,1.9,0.7,2.8,1.1
		c3.8,1.4,7.7,2.9,11.9,3.7c2.1,0.4,4.2,0.7,6.4,0.7c1.1,0.1,2.2,0,3.3-0.1c1.1-0.1,2.2-0.2,3.3-0.4c1.1-0.2,2.2-0.4,3.3-0.7
		c1.1-0.2,2.2-0.6,3.3-0.9c2.2-0.7,4.4-1.4,6.3-2.6c4-2.2,7.6-5.4,11-8.7c3.4-3.4,6.6-7.1,9.7-10.9c6.2-7.6,12-15.8,17.5-24.2
		l2.1-3.1l1-1.6l0.1-0.2c0.1-0.1,0,0,0-0.1l0.1-0.1l0.1-0.2l0.1-0.1c0.1-0.2,0.1-0.4,0.2-0.6c0.1-0.9-0.2-2-0.8-3
		c-0.6-1-1.3-1.9-2.1-2.8c-1.6-1.8-3.5-3.4-5.5-4.8c-2-1.4-4.1-2.7-6.2-4.1c-4.2-2.6-8.4-5.2-12.5-7.6c-2.1-1.2-4.2-2.4-6.3-3.5
		c-1-0.6-2.1-1.1-3.1-1.6c-0.5-0.2-1-0.5-1.5-0.6c-0.5-0.2-1.1-0.3-1.7-0.5c-4.4-1.1-9.1-1-13.1,0.7c-2,0.8-3.9,1.9-5.6,3.3
		c-1,0.8-2.3,1.2-3.5,1.2c-1.2,0-2.4-0.3-3.4-0.7c-2.1-0.7-4-1.7-5.9-2.5c-1.9-0.8-3.8-1.6-5.7-1.9c-1.9-0.4-3.9-0.4-5.6,0.2
		c-0.9,0.3-1.7,0.7-2.6,1.1c-0.9,0.4-1.7,0.9-2.5,1.3c-6.5,3.7-12.3,7.5-17.2,11.1c-4.9,3.6-9,7.1-12,10.3c-3,3.2-5,6-5.9,8.2
		c-0.5,1.1-0.5,2-0.6,2.6c0,0.3,0.1,0.5,0.1,0.7C217.3,627.4,217.3,627.5,217.3,627.5z M217.1,627.5c0,0,0-0.1,0-0.2
		c0-0.2,0-0.4,0-0.7c0-0.6,0.2-1.5,0.6-2.6c0.8-2.2,2.7-5.2,5.7-8.4c3-3.3,7-6.8,11.8-10.6c4.9-3.7,10.5-7.7,17.1-11.5
		c0.8-0.5,1.7-0.9,2.5-1.4c0.9-0.4,1.8-0.9,2.8-1.2c2-0.6,4.1-0.7,6.2-0.3c4.2,0.7,7.9,3,11.9,4.3c2,0.7,4.1,0.9,5.6-0.3
		c1.7-1.4,3.7-2.7,5.9-3.6c4.4-1.8,9.4-2,14.2-0.8c0.6,0.2,1.1,0.3,1.7,0.5c0.6,0.2,1.2,0.5,1.7,0.7c1.1,0.5,2.2,1.1,3.2,1.6
		c2.1,1.1,4.2,2.3,6.4,3.5c4.2,2.4,8.4,4.9,12.6,7.6c2.1,1.3,4.2,2.7,6.3,4.1c2.1,1.5,4,3.1,5.8,5c0.9,1,1.7,2,2.4,3.2
		c0.6,1.2,1.2,2.6,1,4.2c-0.1,0.4-0.2,0.8-0.4,1.2l-0.1,0.3l-0.1,0.2l-0.2,0.2l-0.1,0.2l-1,1.6l-2.1,3.2
		c-5.5,8.4-11.4,16.6-17.7,24.3c-3.2,3.8-6.4,7.5-9.9,11c-3.5,3.4-7.2,6.6-11.4,9c-2.2,1.2-4.4,1.9-6.6,2.7
		c-1.1,0.3-2.2,0.7-3.4,0.9c-1.1,0.3-2.3,0.5-3.4,0.7c-1.1,0.2-2.3,0.3-3.4,0.4c-1.1,0-2.3,0.1-3.4,0c-2.3-0.1-4.5-0.4-6.6-0.8
		c-4.3-0.9-8.3-2.4-12.1-3.9c-0.9-0.4-1.9-0.8-2.8-1.1c-0.4-0.2-1-0.4-1.4-0.7c-0.5-0.3-0.9-0.6-1.3-0.9c-1.6-1.2-3-2.5-4.4-3.8
		c-5.5-5.2-10.1-10.4-14.2-14.9c-4.1-4.6-7.6-8.6-10.4-12c-2.9-3.3-5.1-6-6.6-7.8C217.9,628.5,217.1,627.5,217.1,627.5z"/>
</g>
<g>
	<path fill="#FFFFFF" d="M217.1,627.4c0,0,0.9-0.4,2.7-1.2c1.8-0.8,4.4-2,7.7-3.4c3.3-1.5,7.3-3.2,12-5.2c2.3-1,4.7-2.1,7.5-3
		c2.8-1,5.9-1.4,9.1-1c3.2,0.3,6.4,1.3,9.5,2.4c1.6,0.5,3.2,1.3,4.8,1.8c1.6,0.5,3.2,0.8,4.9,0.9c3.4,0.3,7-0.3,10.5-1.2
		c3.6-0.9,7.1-2.2,10.8-3.4c3.7-1.2,7.5-2.5,11.6-2.8c1-0.1,2-0.1,3.1,0.1c1,0.1,2,0.4,3,0.7c1.9,0.5,3.9,1,5.9,1.5
		c3.9,1,7.9,2,11.9,3.2c2,0.6,3.9,1.2,5.9,1.8l3,0.9c0.2,0.1,0.5,0.2,0.8,0.3c0.1,0,0.1,0.1,0.2,0.1c0.1,0,0.1,0.1,0.2,0.2
		c0.3,0.4-0.2,1-0.2,0.8c-0.2,0.1-0.2,0.1-0.3,0.1l-0.2,0c-0.5,0-1.1,0.1-1.6,0.1c-4.1,0.2-8.1,0.9-11.8,2.5c-1.8,0.8-3.5,1.9-5.2,3
		c-1.7,1.2-3.4,2.3-5,3.5c-6.8,4.6-13.6,8.9-20.8,12.1c-1.8,0.8-3.7,1.5-5.6,2c-1,0.2-1.9,0.5-2.9,0.6c-0.5,0.1-1,0.1-1.5,0.1
		c-0.3,0-0.5,0-0.8,0l-0.7,0c-3.8,0-7.5-0.3-11-0.7c-7.1-0.9-13.8-2.5-19.6-4.7c-5.9-2.2-11.1-4.9-15-8.1c-0.5-0.4-1-0.8-1.4-1.2
		c-0.5-0.3-0.9-0.7-1.4-1c-1-0.6-2-1.1-2.9-1.5c-2-0.8-3.9-1.2-5.7-1.4c-3.5-0.4-6.4,0.1-8.3,0.5c-1.9,0.4-2.8,0.8-2.8,0.8
		L217.1,627.4z M217.1,627.4c0,0,0.9-0.4,2.8-1c1.9-0.5,4.7-1.1,8.4-0.9c1.8,0.1,3.9,0.4,6,1.2c1.1,0.4,2.1,0.9,3.2,1.4
		c0.5,0.3,1.1,0.6,1.6,1c0.5,0.4,1,0.7,1.5,1.1c4,2.9,9,5.5,14.8,7.5c2.9,1,6,1.9,9.2,2.6c3.2,0.7,6.6,1.3,10.1,1.7
		c3.5,0.4,7.1,0.7,10.8,0.7c3.5,0.1,7.1-1.1,10.6-2.5c7-3,13.8-7.2,20.6-11.6c1.7-1.1,3.4-2.2,5.1-3.4c1.7-1.1,3.5-2.3,5.5-3.1
		c3.9-1.6,8.2-2.1,12.4-2.2c0.5,0,1,0,1.5,0c0.1,0,0.3,0,0.2,0c0-0.1-0.4,0.4-0.2,0.7c0.1,0.1,0.1,0.1,0.1,0.1l-0.1-0.1
		c-0.2-0.1-0.4-0.2-0.7-0.3l-2.9-1c-2-0.7-3.9-1.4-5.9-2c-3.9-1.2-7.8-2.4-11.8-3.3c-2-0.5-3.9-1-5.9-1.4c-1-0.2-1.9-0.5-2.9-0.6
		c-1-0.1-1.9-0.1-2.9,0c-3.9,0.4-7.6,1.8-11.2,3.1c-3.6,1.4-7.2,2.8-10.8,3.8c-3.6,1-7.4,1.7-11,1.4c-1.8-0.1-3.6-0.4-5.4-1
		c-1.7-0.6-3.2-1.2-4.8-1.7c-3.1-1.1-6.2-2.1-9.1-2.4c-3-0.4-5.8,0-8.4,0.8c-1.3,0.4-2.6,0.9-3.8,1.4c-1.2,0.5-2.5,0.9-3.6,1.4
		c-4.7,1.8-8.8,3.4-12.1,4.7c-3.4,1.3-6,2.3-7.8,3c-1.8,0.7-2.8,1-2.8,1L217.1,627.4z"/>
</g>
<g>
	<path fill="#FFFFFF" d="M479.3,403.6c0,0,0.4-0.8,1.1-2.2c0.8-1.4,2-3.5,3.7-6c1.7-2.5,3.9-5.5,6.8-8.6c2.9-3,6.6-6.3,11.5-8.4
		c2.4-1,5.2-1.6,8.1-1.5c0.7,0,1.4,0.2,2.2,0.2c0.5,0.1,0.7,0.2,1.1,0.3c0.3,0.1,0.7,0.1,1.1,0.3c0.7,0.3,1.5,0.6,2.1,1
		c0.3,0.2,0.7,0.4,1,0.6l0.9,0.7c2.4,2.1,3.9,5,5,8c1,3,1.5,6.3,1.8,9.6c0.5,6.6-0.2,13.3-1.4,20.1c-0.6,3.4-1.4,6.7-2.5,10.1
		c-0.5,1.7-1.1,3.3-1.8,4.9c-0.7,1.6-1.5,3.1-2.3,4.7c-2.8,6.2-5.2,12.7-7.7,19c-2.4,6.3-4.8,12.6-7.4,18.6
		c-2.5,6-5.2,11.7-8.6,16.7c-0.4,0.6-0.9,1.2-1.4,1.8l-0.8,0.9c-0.2,0.2-0.5,0.5-0.7,0.8c-0.8,1-1.5,2.3-2.2,3.5
		c-1.3,2.4-2.5,4.9-3.7,7.2c-2.3,4.6-4.5,8.9-6.6,12.5c-2.1,3.6-4.2,6.7-6.4,8.9c-1.1,1.1-2.1,2-3.1,2.6c-1,0.6-2,0.9-2.8,0.9
		c-0.4,0.1-0.8,0-1.1-0.1c-0.3,0-0.6-0.1-0.8-0.2c-0.4-0.1-0.6-0.2-0.6-0.2s0.2,0.1,0.6,0.2c0.2,0.1,0.4,0.2,0.8,0.2
		c0.3,0,0.7,0.1,1.1,0c0.8,0,1.7-0.4,2.7-1c1-0.6,2-1.5,3-2.6c2-2.2,4-5.3,6-9c2-3.7,4-8,6.2-12.7c1.1-2.3,2.3-4.8,3.6-7.3
		c0.7-1.3,1.3-2.5,2.3-3.8c0.2-0.3,0.5-0.5,0.7-0.9l0.7-0.8c0.5-0.5,0.9-1.1,1.3-1.7c0.4-0.6,0.8-1.2,1.2-1.8c0.4-0.6,0.7-1.3,1.1-2
		c0.8-1.3,1.4-2.7,2.1-4.1c0.7-1.4,1.3-2.8,2-4.3c0.6-1.5,1.3-2.9,1.9-4.4c2.5-6,4.8-12.2,7.2-18.6c2.4-6.4,4.8-12.8,7.6-19.2
		c0.7-1.5,1.6-3.1,2.3-4.6c0.7-1.5,1.3-3.1,1.8-4.7c1.1-3.2,1.9-6.5,2.5-9.8c1.3-6.6,1.9-13.3,1.5-19.6c-0.2-3.2-0.7-6.3-1.6-9.2
		c-0.9-2.9-2.3-5.5-4.4-7.4l-0.8-0.7c-0.3-0.2-0.6-0.4-0.9-0.6c-0.6-0.4-1.2-0.6-1.8-0.9c-0.3-0.1-0.7-0.2-1-0.3
		c-0.3-0.1-0.7-0.2-1-0.3c-0.7-0.1-1.3-0.3-2-0.3c-2.7-0.2-5.3,0.3-7.7,1.2c-2.4,0.9-4.5,2.2-6.3,3.6c-1.9,1.4-3.6,2.8-5,4.3
		c-3,2.9-5.2,5.8-7,8.3c-1.8,2.4-3,4.4-3.9,5.8C479.7,402.9,479.3,403.6,479.3,403.6z"/>
</g>
<g>
	<path fill="#FFFFFF" d="M60.3,390.8c0,0-0.6-0.6-1.8-1.6c-1.2-1-2.9-2.5-5.2-4.3c-2.3-1.7-5.1-3.8-8.6-5.7c-1.8-0.9-3.7-1.7-5.9-2
		c-1.1-0.1-2.2-0.1-3.1,0.3l-0.6,0.3l-0.7,0.6c-0.3,0.4-0.6,0.8-0.9,1.4c-1.2,2.1-1.9,4.5-2.5,7.1c-0.6,2.6-1.1,5.3-1.4,8
		c-0.7,5.6-0.8,11.5-0.7,17.6c0.2,6.1,0.9,12.4,2,18.8c1.2,6.3,2.9,12.6,5.1,18.8c2.2,6.1,5,12,8.4,17.5l1.3,2l1.4,2
		c0.9,1.3,1.8,2.6,2.8,3.9c1.9,2.6,3.7,5.2,5.4,7.7c6.9,10.3,12.6,20.3,17.6,28.9c2.5,4.3,4.7,8.2,6.9,11.6c2.2,3.4,4.2,6.2,6.4,8.1
		c1.1,0.9,2.2,1.6,3.2,2c1,0.4,2,0.4,2.8,0.3c0.8-0.1,1.3-0.3,1.7-0.4c0.4-0.1,0.6-0.2,0.6-0.2s-0.2,0.1-0.6,0.2
		c-0.4,0.2-0.9,0.4-1.7,0.5c-0.8,0.1-1.8,0.2-2.8-0.2c-1.1-0.3-2.3-1-3.4-1.9c-2.3-1.8-4.5-4.6-6.8-7.9c-2.3-3.3-4.7-7.2-7.2-11.4
		c-2.6-4.2-5.3-8.8-8.3-13.6c-3-4.8-6.3-9.8-9.7-14.9c-1.7-2.5-3.5-5.1-5.4-7.7c-0.9-1.3-1.9-2.6-2.8-3.9l-1.4-2l-1.3-2.1
		c-3.5-5.5-6.4-11.6-8.7-17.8c-2.3-6.3-4-12.7-5.1-19.1c-1.1-6.4-1.8-12.8-1.9-19.1c-0.1-3.1,0-6.2,0.1-9.2c0.2-3,0.4-5.9,0.8-8.7
		c0.4-2.8,0.9-5.6,1.6-8.2c0.7-2.6,1.5-5.1,2.8-7.3c0.2-0.3,0.3-0.6,0.5-0.8l0.7-0.8l0.7-0.6c0,0,0.1-0.1,0.1-0.1l0.1,0l0.1-0.1
		l0.2-0.1c0.1-0.1,0.3-0.2,0.4-0.2c1.2-0.5,2.5-0.5,3.7-0.3c2.3,0.4,4.3,1.3,6.1,2.3c3.5,2,6.3,4.2,8.5,6c2.2,1.8,3.9,3.4,5,4.5
		C59.7,390.2,60.3,390.8,60.3,390.8z"/>
</g>
<path fill="none" stroke="#FFFFFF" stroke-width="1.5" stroke-miterlimit="10" d="M238.1,359.5c0,0-72.7-22.6-80.3-24.3
	c-13.1-2.9-18.9,0-37.7,22.5c-25.8,31.1,13.7-9.9,31.9-6.7c12.5,2.2,73.4,29.4,81.9,25.7C239,374.6,245.6,369.2,238.1,359.5z"/>
<path fill="none" stroke="#FFFFFF" stroke-width="1.5" stroke-miterlimit="10" d="M310.9,361.8c0,0-2.6,16.9,6.8,16.8
	c6.6,0,53.3-17.1,60.4-20.4c11.1-5.1,31.6-14.4,54.3,7c23.4,22.1-22.5-36.8-41.2-30.9C371.1,340.6,319.3,353.4,310.9,361.8z"/>
<g>
	<path fill="#FFFFFF" d="M262.1,555.1c0,0,0.1,0.4,0.2,1.1c0.1,0.7,0.3,1.8,0.4,3c0.1,1.3,0.3,2.7,0.4,4.3c0.1,1.6,0.2,3.2,0.2,4.9
		c0,1.7,0,3.4-0.1,4.9c-0.1,1.6-0.3,3-0.5,4.3c-0.2,1.2-0.6,2.3-1,2.9c-0.2,0.3-0.6,0.4-0.8,0.4c-0.2,0-0.3-0.1-0.3-0.1
		c0,0,0.1,0.1,0.3,0c0.2,0,0.4-0.2,0.6-0.5c0.4-0.6,0.5-1.7,0.6-2.9c0.1-1.2,0.1-2.7,0.2-4.2c0-1.6,0-3.2,0-4.9
		c0-3.3-0.1-6.7-0.1-9.2c0-1.3,0-2.3,0-3C262.1,555.6,262.1,555.1,262.1,555.1z"/>
</g>
<g>
	<path fill="#FFFFFF" d="M292.3,555.1c0,0,0.1,0.4,0.2,1c0.1,0.7,0.3,1.6,0.5,2.8c0.4,2.3,0.8,5.3,1.2,8.4c0.4,3.1,0.8,6.1,1.1,8.4
		c0.2,1.1,0.4,2.1,0.6,2.7c0.1,0.3,0.2,0.6,0.3,0.7c0.1,0.1,0.2,0.1,0.2,0.1c0,0-0.1,0-0.3-0.1c-0.1-0.1-0.3-0.3-0.5-0.7
		c-0.3-0.6-0.6-1.5-1-2.7c-0.6-2.3-1.2-5.3-1.6-8.4c-0.4-3.1-0.6-6.2-0.8-8.5c-0.1-1.2-0.1-2.1-0.1-2.8
		C292.3,555.5,292.3,555.1,292.3,555.1z"/>
</g>
<g>
	<path fill="#FFFFFF" d="M74.4,433.7c0,0,0.9-2.7,2.6-7.7c1.6-5,4-12.4,6.9-21.8c2.8-9.4,6.2-20.9,9.6-34.2
		c1.7-6.6,3.4-13.8,4.9-21.3c1.5-7.5,3-15.5,3.7-23.9c0.3-4.2,0.5-8.5-0.3-12.7c-0.2-1.1-0.5-2.1-0.8-3.1c-0.4-0.9-0.9-2-1.4-3
		c-1-2.1-1.8-4.1-2.7-6.3c-1.6-4.3-3-8.8-4-13.4c-1-4.6-1.7-9.4-1.7-14.3c0-2.5,0.2-4.9,0.7-7.4c0.5-2.5,1.4-4.9,3.1-7
		c1.6-2.1,4.1-3.6,6.8-4l1.9-0.2c0.3,0,0.6-0.1,0.9-0.1l0.9-0.2c0.6-0.1,1.2-0.3,1.8-0.4c0.6-0.2,1.2-0.3,1.8-0.5
		c4.8-1.5,9.5-3.5,14.3-5.6c4.7-2.1,9.5-4.3,14.3-6.5c9.6-4.4,19.4-8.9,29.6-12.7c5.1-1.9,10.4-3.6,15.9-4.6
		c2.8-0.5,5.6-0.8,8.5-0.6c0.7,0.1,1.4,0.1,2.2,0.3l2.1,0.5c1.3,0.3,2.7,0.7,4,1c5.3,1,10.9,1.7,16.4,2.3c5.5,0.6,11.1,1.1,16.7,1.5
		c11.2,0.9,22.4,1.5,33.7,1.9c11.2,0.5,22.5,0.8,33.7,0.8c2.8,0,5.6,0,8.4,0c2.8,0,5.6-0.1,8.4-0.1c2.8,0,5.6-0.2,8.3-0.3
		c2.8-0.1,5.5-0.4,8.3-0.6c1.4-0.1,2.7-0.3,4.1-0.5l2-0.3l2-0.4c2.7-0.5,5.4-1.1,8-1.8c5.3-1.3,10.5-3,15.6-4.8
		c2.6-0.9,5.1-1.8,7.8-2.4c1.3-0.3,2.7-0.6,4.1-0.8c1.4-0.1,3,0,4.4,0.6c0.7,0.3,1.4,0.8,1.9,1.3l1.4,1.4c0.9,0.9,1.9,1.8,3,2.6
		c2,1.7,4.1,3.3,6.2,4.9c4.2,3.2,8.5,6.2,12.9,8.9c2.2,1.4,4.4,2.6,6.7,3.7c1.1,0.5,2.3,1,3.4,1.4c0.6,0.2,1.2,0.3,1.7,0.4
		c0.3,0.1,0.5,0,0.8,0c0.4,0,0.3,0,0.6,0c0.1,0,0.3,0.1,0.4,0.1c0.1,0,0.2,0.1,0.3,0.1c0.8,0.4,1.2,1,1.6,1.5
		c0.4,0.5,0.8,1.1,1.2,1.6c0.7,1.1,1.3,2.2,1.9,3.4c1.2,2.3,2.2,4.6,3.2,6.8c2,4.6,3.8,9.1,5.6,13.6c1.8,4.5,3.7,8.9,5.6,13.2
		c1.9,4.3,3.9,8.4,6.4,12.2c1.2,1.8,2.6,3.7,4.3,4.8c0.4,0.3,0.9,0.4,1.3,0.5l0.4,0c0.1,0,0.4,0.1,0.6,0.2c0.4,0.2,0.6,0.4,0.9,0.6
		c0.9,0.9,1.3,2,1.8,3c0.8,2.1,1.4,4.2,1.9,6.3c0.5,2.1,0.9,4.2,1.3,6.3c1.5,8.3,2.5,16.4,3.4,24c0.9,7.7,1.6,14.9,2.3,21.8
		c1.3,13.7,2.4,25.6,3.5,35.4c1,9.8,2,17.5,2.9,22.7c0.5,2.6,0.9,4.6,1.4,5.8c0.2,0.6,0.5,1.1,0.7,1.3c0.2,0.3,0.5,0.2,0.4,0.2
		c0,0-0.2,0-0.4-0.2c-0.2-0.3-0.5-0.7-0.7-1.3c-0.5-1.3-1-3.2-1.5-5.8c-1-5.2-2-12.9-3.2-22.7c-1.1-9.8-2.4-21.7-3.9-35.3
		c-0.8-6.8-1.6-14.1-2.5-21.7c-1-7.6-2-15.7-3.6-23.9c-0.4-2.1-0.8-4.2-1.3-6.2c-0.5-2.1-1.1-4.2-1.9-6.2c-0.4-1-0.9-2-1.5-2.6
		c-0.2-0.2-0.3-0.3-0.5-0.4c0,0-0.1,0-0.1,0c0,0,0,0-0.1,0l-0.4,0c-0.7-0.1-1.3-0.3-1.8-0.6c-1.1-0.6-1.9-1.5-2.7-2.4
		c-0.8-0.9-1.4-1.8-2.1-2.8c-2.5-3.9-4.5-8.1-6.5-12.4c-2-4.3-3.8-8.7-5.7-13.2c-1.9-4.5-3.7-9-5.7-13.5c-1-2.3-2-4.5-3.2-6.7
		c-0.6-1.1-1.2-2.2-1.8-3.2c-0.3-0.5-0.7-1-1-1.5c-0.4-0.4-0.8-0.9-1.1-1.1c0,0-0.1-0.1-0.1-0.1c0,0,0,0,0,0c0,0-0.4,0-0.3,0
		c-0.4,0-0.8,0-1.1,0c-0.7-0.1-1.4-0.3-2-0.5c-1.3-0.4-2.5-0.9-3.7-1.5c-2.4-1.1-4.6-2.4-6.8-3.8c-4.4-2.7-8.8-5.7-13-8.9
		c-2.1-1.6-4.2-3.2-6.3-5c-1-0.9-2-1.7-3-2.7l-1.4-1.4c-0.4-0.4-0.9-0.7-1.4-1c-1-0.5-2.3-0.6-3.5-0.4c-1.3,0.1-2.5,0.4-3.8,0.7
		c-2.6,0.7-5.1,1.6-7.7,2.4c-5.1,1.8-10.4,3.5-15.7,4.8c-2.7,0.7-5.4,1.3-8.1,1.8l-2,0.4l-2.1,0.3c-1.4,0.2-2.8,0.4-4.2,0.5
		c-2.8,0.2-5.6,0.5-8.4,0.6c-2.8,0.1-5.6,0.3-8.4,0.3c-2.8,0.1-5.6,0.1-8.4,0.2c-2.8,0-5.6,0-8.4,0c-11.2-0.1-22.5-0.3-33.8-0.8
		c-11.3-0.5-22.5-1.1-33.7-2c-5.6-0.5-11.2-0.9-16.8-1.6c-5.6-0.6-11.1-1.3-16.7-2.4c-1.4-0.3-2.7-0.7-4-1l-2-0.5
		c-0.6-0.2-1.3-0.2-1.9-0.3c-2.6-0.2-5.3,0.1-8,0.5c-5.3,1-10.5,2.7-15.6,4.5c-10.2,3.7-19.9,8.2-29.5,12.6
		c-4.8,2.2-9.6,4.4-14.3,6.4c-4.8,2.1-9.5,4.1-14.5,5.6c-0.6,0.2-1.2,0.4-1.9,0.5c-0.6,0.2-1.2,0.3-1.9,0.4
		c-0.7,0.1-1.3,0.3-1.9,0.3l-1.8,0.2c-2.3,0.3-4.4,1.5-5.8,3.3c-1.4,1.8-2.3,4.1-2.8,6.4c-0.5,2.3-0.7,4.7-0.7,7.1
		c0,4.8,0.7,9.5,1.6,14c1,4.6,2.3,9,3.9,13.2c0.8,2.1,1.7,4.2,2.6,6.2c0.5,1,1,2,1.4,3.1c0.4,1.1,0.7,2.2,0.9,3.3
		c0.7,4.4,0.5,8.8,0.2,13c-0.7,8.5-2.2,16.5-3.8,24c-1.6,7.5-3.4,14.6-5.2,21.3c-3.5,13.3-7,24.7-10,34.1c-3,9.4-5.4,16.8-7.1,21.8
		C75.3,431,74.4,433.7,74.4,433.7z"/>
</g>
<g>
	<path fill="#FFFFFF" d="M317.7,409.3c0,0,0.9-1.4,2.7-3.6c0.9-1.1,2-2.4,3.4-3.9c1.4-1.5,2.9-3.1,4.8-4.7c1.8-1.7,3.9-3.3,6.1-5
		c2.3-1.6,4.8-3.3,7.5-4.8c2.7-1.5,5.6-2.9,8.6-4c3-1.2,6.2-2,9.5-2.7c3.3-0.5,6.6-1,9.8-1c0.8,0,1.6,0,2.4,0
		c0.8,0.1,1.6,0.1,2.4,0.2c1.6,0.1,3.2,0.3,4.7,0.5c1.5,0.2,3,0.6,4.5,0.9c1.5,0.3,2.8,0.8,4.2,1.2c0.7,0.2,1.3,0.4,2,0.6
		c0.6,0.3,1.3,0.5,1.9,0.7c1.2,0.5,2.4,0.9,3.5,1.5c2.2,1.1,4.3,2,6,3.1c1.7,1,3.2,1.8,4.4,2.7c2.4,1.6,3.7,2.5,3.7,2.5
		s-1.4-0.8-3.9-2.2c-1.2-0.8-2.8-1.5-4.5-2.4c-1.7-0.9-3.8-1.7-6.1-2.7c-1.1-0.5-2.3-0.8-3.6-1.3c-0.6-0.2-1.2-0.4-1.9-0.7
		c-0.6-0.2-1.3-0.4-2-0.5c-1.3-0.4-2.7-0.8-4.1-1c-1.4-0.3-2.9-0.6-4.4-0.8c-1.5-0.2-3-0.4-4.6-0.4c-0.8,0-1.5-0.1-2.3-0.1
		c-0.8,0-1.6,0-2.4,0c-3.2,0-6.3,0.5-9.5,1c-3.1,0.7-6.2,1.4-9.2,2.6c-1.5,0.5-2.9,1.2-4.4,1.7c-1.4,0.7-2.8,1.3-4.1,2
		c-2.7,1.4-5.2,2.9-7.5,4.5c-2.3,1.6-4.4,3.1-6.3,4.7c-3.8,3.1-6.7,5.9-8.6,8c-1,1-1.7,1.9-2.2,2.4C318,409,317.7,409.3,317.7,409.3
		z"/>
</g>
<g>
	<path fill="#FFFFFF" d="M345.3,400.8c0,0,0.9-1,2.9-2.5c1-0.7,2.2-1.5,3.7-2.4c1.5-0.8,3.2-1.7,5.2-2.4c2-0.7,4.2-1.4,6.5-1.8
		c2.4-0.5,4.9-0.7,7.6-0.7c2.6,0,5.4,0.2,8.1,0.8c2.7,0.5,5.4,1.3,8.1,2.3c1.3,0.5,2.6,1,3.9,1.6l1.9,0.9c0.6,0.3,1.2,0.7,1.8,1
		c0.6,0.3,1.2,0.7,1.8,1c0.6,0.4,1.2,0.7,1.7,1.1c0.6,0.4,1.1,0.7,1.7,1.1c0.5,0.4,1.1,0.8,1.6,1.1c0.5,0.4,1.1,0.8,1.6,1.1
		c0.5,0.4,1,0.8,1.5,1.2c1,0.8,2,1.5,2.8,2.3c0.9,0.8,1.8,1.6,2.6,2.3c0.4,0.4,0.8,0.8,1.2,1.4c0.1,0.1,0.1,0.4,0.2,0.5
		c0,0.2,0.1,0.5,0,0.7c-0.2,0.5-0.6,0.7-0.9,0.9c-1.2,0.5-2.2,0.4-3.2,0.3c-1-0.1-1.9-0.2-2.7-0.3c-1.7-0.2-3.1-0.5-4.3-0.8
		c-2.4-0.5-3.7-0.9-3.7-0.9s1.4,0.2,3.8,0.5c1.2,0.1,2.7,0.3,4.3,0.4c0.8,0,1.7,0.1,2.6,0.1c0.9,0,1.9-0.1,2.7-0.4
		c0.1-0.1,0.3-0.2,0.2-0.2c0,0,0,0,0-0.1c0-0.1,0-0.1-0.1-0.2c-0.2-0.3-0.6-0.7-1-1c-0.9-0.7-1.7-1.4-2.7-2.1
		c-0.9-0.8-1.9-1.4-2.9-2.2c-0.5-0.4-1-0.7-1.5-1.1c-0.5-0.4-1-0.7-1.6-1.1c-0.5-0.4-1.1-0.7-1.6-1.1c-0.5-0.4-1.1-0.7-1.7-1
		c-0.6-0.3-1.1-0.7-1.7-1c-0.6-0.3-1.2-0.6-1.8-1c-0.6-0.3-1.2-0.6-1.8-0.9l-1.8-0.9c-1.2-0.6-2.5-1-3.7-1.6
		c-2.5-0.9-5.1-1.8-7.7-2.2c-2.6-0.5-5.2-0.9-7.7-0.9c-2.5,0-5,0.1-7.3,0.4c-2.3,0.4-4.5,0.9-6.4,1.5c-3.9,1.2-7,2.8-9,4
		C346.3,399.9,345.3,400.8,345.3,400.8z"/>
</g>
<g>
	<path fill="#FFFFFF" d="M232,407c0,0-0.3-0.3-0.8-0.8c-0.5-0.5-1.3-1.3-2.3-2.2c-2-1.9-5-4.4-8.9-7.1c-1.9-1.3-4.1-2.7-6.4-4
		c-2.3-1.3-4.9-2.5-7.6-3.6c-2.7-1-5.6-2-8.6-2.6c-0.7-0.2-1.5-0.3-2.2-0.5c-0.8-0.1-1.5-0.3-2.3-0.4c-1.5-0.1-3.1-0.4-4.6-0.4
		l-2.3-0.1l-2.3,0.1c-1.5,0-3.1,0.2-4.6,0.3c-0.8,0.1-1.5,0.2-2.3,0.3c-0.7,0.1-1.5,0.3-2.2,0.4c-1.5,0.3-2.9,0.7-4.3,1
		c-1.4,0.4-2.7,0.9-4.1,1.3c-1.3,0.5-2.6,1-3.8,1.5c-1.3,0.5-2.4,1.1-3.5,1.6c-1.1,0.5-2.3,1.1-3.3,1.7c-1,0.6-2,1.1-2.9,1.7
		c-0.9,0.5-1.8,1.1-2.6,1.6c-1.6,1-3,1.9-4.1,2.8c-2.2,1.6-3.5,2.5-3.5,2.5s1.2-1,3.3-2.8c1-0.9,2.4-1.9,3.9-3.1
		c0.8-0.6,1.6-1.2,2.5-1.8c0.9-0.6,1.9-1.2,2.9-1.8c1-0.7,2.1-1.2,3.2-1.9c1.1-0.6,2.3-1.3,3.6-1.8c1.3-0.5,2.5-1.2,3.9-1.7
		c1.4-0.5,2.7-1,4.2-1.5c1.5-0.4,2.9-0.8,4.4-1.2c1.5-0.3,3-0.7,4.6-0.8c1.6-0.2,3.2-0.4,4.8-0.4l2.4-0.1l2.4,0.1
		c1.6,0,3.2,0.3,4.8,0.5c0.8,0.1,1.6,0.3,2.4,0.4c0.8,0.1,1.6,0.3,2.3,0.5c0.8,0.2,1.5,0.4,2.3,0.6c0.8,0.2,1.5,0.5,2.2,0.7
		c1.5,0.4,2.9,1.1,4.3,1.6c2.7,1.2,5.3,2.5,7.7,3.9c1.2,0.7,2.3,1.4,3.4,2.1c1,0.8,2.1,1.5,3,2.2c1.9,1.4,3.5,2.9,5,4.2
		c1.4,1.3,2.6,2.5,3.5,3.5c0.9,1,1.6,1.9,2.1,2.4C231.8,406.7,232,407,232,407z"/>
</g>
<g>
	<path fill="#FFFFFF" d="M209,405.5c0,0-1.1-0.8-3.2-2.1c-1-0.6-2.3-1.3-3.8-2.1c-1.5-0.7-3.2-1.5-5.1-2.3c-1.9-0.7-4-1.4-6.3-2
		c-2.3-0.6-4.7-1-7.2-1.3c-2.5-0.3-5.2-0.3-7.8-0.1c-1.3,0.1-2.7,0.3-4,0.5c-0.7,0.1-1.3,0.3-2,0.4c-0.7,0.1-1.3,0.3-2,0.5
		c-2.6,0.6-5.1,1.7-7.6,2.7c-2.4,1.2-4.7,2.4-6.8,3.9c-0.5,0.4-1.1,0.7-1.6,1.1c-0.5,0.4-1,0.8-1.5,1.1c-1,0.7-2,1.5-2.8,2.3
		c-1.7,1.5-3.7,3-4.2,4.6c-0.1,0.4,0,0.7,0.2,0.9c0.3,0.3,0.6,0.5,1,0.6c0.8,0.3,1.7,0.5,2.5,0.5c1.6,0.2,3.1,0.2,4.3,0.1
		c2.4-0.1,3.8-0.2,3.8-0.2s-0.3,0.1-1,0.2c-0.6,0.1-1.6,0.3-2.8,0.4c-1.2,0.1-2.7,0.3-4.4,0.2c-0.9,0-1.8-0.1-2.8-0.4
		c-0.5-0.2-1-0.4-1.5-0.8c-0.5-0.4-0.8-1.2-0.6-1.9c0.1-0.6,0.4-1.2,0.7-1.7c0.3-0.5,0.7-1,1.1-1.4c0.8-0.9,1.7-1.6,2.5-2.4
		c0.9-0.8,1.8-1.6,2.8-2.4c1-0.8,2-1.6,3.1-2.3c2.1-1.5,4.5-2.9,7-4.2c2.5-1.1,5.1-2.2,7.9-2.9c0.7-0.2,1.4-0.4,2.1-0.5
		c0.7-0.1,1.4-0.3,2.1-0.4c1.4-0.2,2.8-0.4,4.2-0.4c2.8-0.2,5.5-0.1,8.1,0.3c2.6,0.3,5.1,0.9,7.4,1.6c2.3,0.7,4.4,1.5,6.3,2.4
		c3.8,1.8,6.7,3.7,8.7,5.1C208,404.6,209,405.5,209,405.5z"/>
</g>
<g>
	<path fill="#FFFFFF" d="M472.3,439c0,0,0.6-1,1.7-2.6c1.1-1.7,2.7-4.1,4.7-6.8c2-2.8,4.4-6,7-9.4c2.7-3.4,5.6-6.9,8.7-10.3
		c3.1-3.4,6.4-6.6,9.6-9.4c3.3-2.8,6.6-5.1,9.8-6.5c1.6-0.7,3.1-1.1,4.6-1.3c1.4-0.1,2.7,0.1,3.6,0.5c1,0.4,1.6,0.9,2,1.2
		c0.4,0.4,0.6,0.6,0.6,0.6s-0.2-0.2-0.6-0.5c-0.4-0.3-1.1-0.8-2-1.1c-0.9-0.3-2.1-0.5-3.5-0.3c-1.4,0.2-2.8,0.7-4.4,1.4
		c-3.1,1.4-6.3,3.9-9.5,6.7c-3.2,2.8-6.4,6.1-9.5,9.4c-3.1,3.3-6,6.8-8.7,10.1c-2.7,3.3-5.2,6.4-7.2,9.2c-2.1,2.7-3.8,5-5,6.6
		C473,438,472.3,439,472.3,439z"/>
</g>
<g>
	<path fill="#FFFFFF" d="M502.1,402.8c0,0,0.2,1.5,0.5,4c0.3,2.6,0.8,6.2,1.2,10.7c0.4,4.4,0.8,9.6,1,15.1
		c0.2,5.6,0.2,11.5-0.2,17.4c-0.2,3-0.6,5.9-1.3,8.8c-0.3,1.4-0.8,2.9-1.4,4.2c-0.6,1.3-1.4,2.7-2.7,3.5c-2.3,1.5-4.8,2.8-7.2,3.6
		c-1.2,0.4-2.4,0.7-3.3,1.4c-1,0.6-1.5,1.6-2,2.6c-1,2-1.9,3.8-2.8,5.4c-0.8,1.6-1.6,3-2.4,4c-0.4,0.5-0.8,1-1.2,1.3
		c-0.4,0.3-0.9,0.5-1.2,0.4c-0.3-0.1-0.5-0.3-0.6-0.5c-0.1-0.1-0.2-0.2-0.2-0.2s0.1,0.1,0.2,0.2c0.1,0.1,0.3,0.3,0.6,0.4
		c0.3,0.1,0.8-0.1,1.1-0.4c0.4-0.3,0.7-0.8,1.1-1.3c0.7-1.1,1.5-2.5,2.2-4.1c0.8-1.6,1.6-3.5,2.6-5.5c0.3-0.5,0.5-1,0.8-1.5
		c0.1-0.2,0.4-0.5,0.6-0.7c0.3-0.2,0.5-0.4,0.7-0.6c1-0.8,2.3-1.2,3.4-1.6c2.4-0.8,4.7-2.1,7-3.6c1-0.7,1.8-1.9,2.3-3.2
		c0.6-1.3,1-2.6,1.3-4c0.6-2.8,1-5.7,1.2-8.7c0.5-5.9,0.5-11.8,0.3-17.3c-0.2-5.5-0.4-10.7-0.7-15.1c-0.3-4.4-0.6-8.1-0.8-10.7
		C502.2,404.3,502.1,402.8,502.1,402.8z"/>
</g>
<g>
	<path fill="#FFFFFF" d="M75.6,439.8c0,0-0.6-0.8-1.8-2.3c-1.1-1.5-2.7-3.5-4.7-6c-1.9-2.5-4.2-5.4-6.7-8.5
		c-2.5-3.1-5.1-6.3-7.9-9.5c-2.7-3.2-5.5-6.3-8.3-9.2c-2.8-2.8-5.4-5.4-7.9-7.3c-2.5-1.9-4.7-3.3-6.5-3.8c-0.9-0.2-1.6-0.3-2.1-0.2
		c-0.2,0-0.4,0.1-0.6,0.1c-0.1,0-0.2,0-0.2,0s0.1,0,0.2-0.1c0.1,0,0.3-0.1,0.5-0.1c0.5-0.1,1.2-0.1,2.1,0.1c1.8,0.4,4.2,1.6,6.8,3.5
		c2.6,1.9,5.4,4.3,8.1,7.1c2.8,2.8,5.6,5.9,8.4,9.1c2.7,3.2,5.4,6.5,7.8,9.6c2.4,3.1,4.6,6.1,6.5,8.7c1.9,2.6,3.3,4.7,4.4,6.3
		C75,438.9,75.6,439.8,75.6,439.8z"/>
</g>
<g>
	<path fill="#FFFFFF" d="M46.9,404.3c0,0-0.1,1.5-0.3,4c-0.2,2.6-0.4,6.2-0.6,10.7c-0.3,4.4-0.5,9.6-0.6,15.1
		c-0.1,2.8-0.1,5.6,0,8.5c0,1.4,0.1,2.9,0.2,4.3c0.1,1.4,0.3,2.9,0.7,4.3c0.1,0.3,0.2,0.7,0.3,1l0.2,0.4l0.3,0.5
		c0.4,0.6,0.8,1.2,1.2,1.8c0.9,1.2,1.7,2.4,2.6,3.5c1.7,2.3,3.4,4.6,5.1,6.9c1.6,2.2,3.1,4.4,4.5,6.6c0.7,1.1,1.3,2.2,1.8,3.3
		c0.2,0.6,0.5,1.1,0.6,1.7c0.1,0.7,0.1,1.2,0.2,1.7c0.4,2.1,1.2,4,1.9,5.6c0.8,1.6,1.6,3,2.3,4c0.8,1,1.5,1.8,2.1,2
		c0.3,0.1,0.6,0.1,0.8,0c0.1-0.1,0.2-0.2,0.2-0.2s-0.1,0.1-0.2,0.2c-0.2,0.1-0.4,0.2-0.8,0c-0.7-0.2-1.5-0.9-2.3-1.9
		c-0.8-1-1.7-2.3-2.5-3.9c-0.8-1.6-1.7-3.5-2.2-5.7c-0.1-0.6-0.1-1.2-0.2-1.7c-0.1-0.5-0.3-1.1-0.6-1.6c-0.5-1.1-1.1-2.1-1.8-3.2
		c-1.4-2.1-2.9-4.3-4.6-6.5c-1.6-2.2-3.4-4.5-5.1-6.8c-0.9-1.2-1.7-2.3-2.6-3.5c-0.4-0.6-0.9-1.2-1.3-1.8l-0.3-0.5l-0.3-0.6
		c-0.2-0.4-0.3-0.7-0.4-1.1c-0.4-1.5-0.5-3-0.7-4.4c-0.1-1.5-0.2-2.9-0.2-4.4c-0.1-2.9,0-5.8,0.1-8.5c0.2-5.5,0.6-10.7,0.9-15.1
		c0.3-4.4,0.7-8.1,1-10.6C46.7,405.8,46.9,404.3,46.9,404.3z"/>
</g>
<g>
	<path fill="#FFFFFF" d="M468,469.6c0,0,0.5-0.3,1.2-0.8c0.8-0.5,1.8-1.3,3-2.2c0.6-0.5,1.3-1,1.9-1.6c0.7-0.6,1.3-1.2,2.1-1.9
		c0.7-0.7,1.4-1.4,2.1-2.2c0.6-0.8,1.4-1.5,2-2.4c0.6-0.8,1.3-1.6,1.8-2.5c0.3-0.4,0.5-0.9,0.8-1.3c0.2-0.4,0.5-0.9,0.7-1.3
		c0.2-0.4,0.4-0.9,0.7-1.3c0.2-0.4,0.4-0.9,0.5-1.3c0.2-0.4,0.3-0.8,0.5-1.2c0.2-0.4,0.2-0.8,0.4-1.2c0.2-0.7,0.4-1.4,0.6-2
		c0.1-0.6,0.2-1.2,0.3-1.6c0.2-0.9,0.3-1.4,0.3-1.4s0,0.5-0.1,1.4c0,0.5-0.1,1-0.1,1.7c-0.1,0.6-0.3,1.3-0.4,2.1
		c-0.1,0.4-0.2,0.8-0.3,1.2c-0.1,0.4-0.3,0.8-0.4,1.3c-0.1,0.4-0.3,0.9-0.5,1.3c-0.2,0.4-0.4,0.9-0.6,1.3c-0.2,0.5-0.4,0.9-0.7,1.4
		c-0.3,0.4-0.5,0.9-0.8,1.3c-0.5,0.9-1.2,1.8-1.8,2.6c-0.6,0.9-1.4,1.6-2,2.4c-0.7,0.8-1.4,1.5-2.2,2.2c-1.5,1.3-3,2.4-4.3,3.3
		c-1.3,0.9-2.5,1.5-3.3,2C468.5,469.4,468,469.6,468,469.6z"/>
</g>
<g>
	<path fill="#FFFFFF" d="M85.3,476.2c0,0-0.5-0.2-1.2-0.7c-0.8-0.4-1.9-1.1-3.1-2c-0.6-0.4-1.3-0.9-2-1.4c-0.7-0.5-1.5-1.1-2.2-1.7
		c-0.7-0.6-1.5-1.3-2.2-2c-0.8-0.7-1.5-1.4-2.2-2.2c-0.7-0.7-1.3-1.6-2-2.3c-0.6-0.8-1.2-1.6-1.7-2.4c-0.5-0.8-1-1.6-1.4-2.4
		c-0.4-0.8-0.7-1.6-1-2.3c-0.3-0.7-0.5-1.4-0.6-2c-0.2-0.6-0.2-1.2-0.3-1.6c-0.1-0.9-0.2-1.4-0.2-1.4s0.1,0.5,0.4,1.3
		c0.1,0.4,0.2,1,0.5,1.5c0.2,0.6,0.5,1.2,0.8,1.9c0.4,0.7,0.8,1.4,1.2,2.1c0.5,0.7,1,1.5,1.5,2.3c0.6,0.7,1.2,1.5,1.8,2.3
		c0.7,0.7,1.3,1.5,2,2.3c0.7,0.7,1.4,1.5,2.1,2.2c0.4,0.3,0.7,0.7,1.1,1c0.4,0.3,0.7,0.7,1.1,1c1.4,1.3,2.8,2.4,3.9,3.4
		c0.6,0.5,1.1,0.9,1.6,1.3c0.5,0.4,0.9,0.7,1.3,1C84.9,475.9,85.3,476.2,85.3,476.2z"/>
</g>
<g>
	<path fill="#FFFFFF" d="M138.1,645c0,0,1.4,7.3,2.8,18.3c0.3,2.8,0.7,5.7,1,8.9c0.3,3.2,0.6,6.5,0.9,10c0.3,3.5,0.4,7,0.6,10.7
		c0.1,3.6,0.2,7.4,0.2,11.1c0,1.9,0,3.7-0.1,5.5c0,1.8-0.1,3.7-0.3,5.5c-0.2,3.6-0.6,7.2-1,10.7c-0.2,1.7-0.5,3.4-0.8,5.1
		c-0.3,1.6-0.6,3.2-1,4.8c-0.4,1.5-0.8,3.1-1.2,4.5c-0.5,1.4-0.9,2.8-1.3,4.1c-0.5,1.3-1,2.5-1.5,3.7c-0.5,1.1-1.1,2.2-1.5,3.2
		c-0.6,1-1.1,1.9-1.6,2.7c-0.5,0.9-1.1,1.5-1.5,2.2c-0.9,1.4-1.8,2.2-2.4,2.9c-0.6,0.6-0.9,1-0.9,1s0.3-0.3,0.9-1
		c0.6-0.7,1.5-1.6,2.3-2.9c0.4-0.7,1-1.4,1.5-2.2c0.5-0.8,1-1.8,1.5-2.7c0.5-1,1-2.1,1.5-3.3c0.5-1.2,0.9-2.4,1.4-3.7
		c0.5-1.3,0.8-2.7,1.3-4.1c0.4-1.4,0.7-2.9,1.1-4.5c0.3-1.6,0.6-3.2,0.9-4.8c0.2-1.6,0.5-3.3,0.7-5c0.4-3.4,0.7-7,0.8-10.6
		c0.1-1.8,0.2-3.6,0.2-5.5c0-1.8,0-3.7,0-5.5c0-3.7-0.2-7.4-0.3-11c-0.2-3.6-0.5-7.2-0.8-10.6c-0.3-3.4-0.6-6.8-1-9.9
		c-0.4-3.1-0.8-6.1-1.2-8.9c-0.8-5.5-1.6-10-2.1-13.2c-0.6-3.2-1-5-1-5L138.1,645z"/>
</g>
<g>
	<path fill="#FFFFFF" d="M431.2,638.9c0,0-0.4,7.7-0.8,19.2c-0.4,11.5-0.7,26.9-0.6,42.3c0.2,15.4,0.9,30.8,2.7,42.2
		c0.9,5.7,2.1,10.4,3.6,13.4c0.7,1.5,1.6,2.6,2.3,3.1c0.2,0.1,0.3,0.3,0.5,0.4c0.2,0.1,0.3,0.1,0.4,0.2c0.2,0.1,0.3,0.2,0.3,0.2
		s-0.1-0.1-0.3-0.2c-0.1-0.1-0.2-0.1-0.4-0.2c-0.1-0.1-0.3-0.2-0.5-0.4c-0.7-0.6-1.6-1.6-2.3-3.1c-1.6-3-2.8-7.7-3.8-13.4
		c-2-11.4-3-26.8-3.4-42.2c-0.9-30.8,0.4-61.6,0.4-61.6L431.2,638.9z"/>
</g>
</svg>
