<?xml version="1.0" encoding="utf-8"?>
<!-- Generator: Adobe Illustrator 18.1.1, SVG Export Plug-In . SVG Version: 6.00 Build 0)  -->
<svg version="1.1" id="Lager_2" xmlns="http://www.w3.org/2000/svg" xmlns:xlink="http://www.w3.org/1999/xlink" x="0px" y="0px"
	 viewBox="0 0 622.3 768" enable-background="new 0 0 622.3 768" xml:space="preserve">
<path fill="none" stroke="#FFFFFF" stroke-width="2" stroke-miterlimit="10" d="M242.7,613c-11.4,10.8-53.2-10.6-97.9-60.5
	c-26.3-29.3-30.3-53.4-30.3-53.4s-16.3,31.9-36.4,7.6C55.3,479,47,472.8,49.4,433.9c1.3-21.3-17.8-67.5-20.8-82.9
	c-2.9-14.9-19.2-75.2-14.3-93.6c6.6-24.7,15.5-72.4,69.7-132.5C113.4,92.3,127.4,52,214.7,20.2c42.6-15.5,40.8,1.1,106.1-7.7
	c37.4-5,69.1,8.7,107.3,38.4c53.2,41.4,90.2,123.3,91.6,137.4c0.9,8.5,21.9,23.6,26.2,53.3c1.6,11.1,10.7,16.7,11,26.6
	c0.5,17-8.1,18.1-11,28.1c-0.4,1.4-2.6,4.8-1.2,6c8.4,7.3,1.2,8.1,1.9,10.9c5.7,23.3,21,52,29.9,61.8c11.4,12.5,28.6,38,15.8,143.4
	c-7.4,61-5.4,117.5-8,129.6c-3.1,14.7-19.3,41.6-27.3,46.3"/>
<path fill="none" stroke="#FFFFFF" stroke-width="2" stroke-miterlimit="10" d="M248.3,604.5c0,0-1.1-0.8,0.7,0.5s41,59.9,50.3,67.4
	c9.6,7.7,45,18.7,94.1,30.6c47.3,11.4,81.9,18.8,120.8,7.4c28.9-8.5,36.9-10.7,43.6-16.9"/>
<g>
	<path fill="#FFFFFF" d="M442.4,604c0,0,15.9-9.8,39.9-24.4c6-3.7,12.5-7.6,19.2-11.9c1.6-1,3.2-2.4,4.9-3.6c1.7-1.2,3.7-2.2,5.7-3
		c2-0.8,4.2-1.3,6.4-1.5c1.1-0.1,2.2-0.2,3.3-0.3l1.6-0.1c0.5,0,0.9-0.1,1.4-0.2c0.9-0.3,1.7-0.8,2.3-1.5c0.6-0.7,1.2-1.6,1.7-2.6
		c0.5-1,1.1-2,1.9-3c0.4-0.5,0.9-0.9,1.5-1.3c0.3-0.2,0.6-0.3,0.9-0.4c0.2-0.1,0.5-0.2,0.8-0.3c2.2-0.8,4.5-1.3,6.7-1.7
		c2.3-0.4,4.5-0.8,6.8-1.1c4.6-0.6,9.2-1,14-1c1.2,0,2.5,0.1,3.8,0.8c0.3,0.2,0.7,0.4,1,0.9c0.3,0.5,0.4,1.1,0.2,1.6
		c-0.3,0.9-0.7,1.4-1.1,1.9c-0.8,1-1.6,1.7-2.2,2.6c-0.7,0.9-1.3,1.8-1.9,2.8c-1.2,2-2.1,4-3,6.2c-0.2,0.5-0.4,1.1-0.6,1.6
		c-0.2,0.5-0.2,1-0.3,1.5c-0.1,1.1-0.2,2.2-0.3,3.4c-0.1,2.3-0.2,4.7-0.5,7c-0.3,2.3-0.7,4.7-1.7,7c-0.5,1.1-1.2,2.2-2.1,3.1
		c-0.8,0.8-1.6,1.7-2.4,2.5c-1.6,1.6-3.3,3.2-4.9,4.7c-3.4,3.1-6.9,5.9-10.6,8.4c-3.7,2.5-7.6,4.6-11.7,6c-2,0.7-4.1,1.2-6.3,1.4
		c-2.1,0.2-4.1,0.4-6.1,0.5c-8,0.5-15.6,0.8-22.7,0.8c-14,0.1-25.8-0.8-33.8-2.4c-4-0.8-7.1-1.8-9.1-2.7c-1-0.5-1.7-0.9-2.2-1.2
		C442.6,604.1,442.4,604,442.4,604z M442.4,604c0,0,0.2,0.2,0.7,0.4c0.5,0.3,1.2,0.7,2.2,1.1c2,0.8,5.1,1.7,9.1,2.4
		c4,0.7,9,1.2,14.6,1.5c5.7,0.3,12.1,0.3,19.1,0.2c7-0.1,14.6-0.5,22.6-1.1c2-0.2,4-0.3,6-0.6c2-0.2,4-0.7,5.9-1.4
		c3.9-1.4,7.6-3.4,11.2-5.9c3.6-2.4,7-5.2,10.3-8.3c1.6-1.5,3.3-3.1,4.8-4.7c0.8-0.8,1.6-1.6,2.4-2.5c0.8-0.8,1.3-1.6,1.7-2.6
		c0.9-2,1.3-4.2,1.5-6.4c0.3-2.3,0.3-4.6,0.5-6.9c0.1-1.2,0.1-2.3,0.3-3.6c0.1-0.6,0.2-1.3,0.4-1.9c0.2-0.6,0.4-1.1,0.6-1.7
		c0.9-2.2,1.9-4.4,3.1-6.4c0.6-1,1.3-2,2-3c0.7-1,1.6-1.9,2.3-2.7c0.3-0.4,0.6-0.9,0.7-1.1c0-0.1,0-0.1,0-0.1c0,0-0.1-0.1-0.3-0.2
		c-0.8-0.4-1.8-0.5-3-0.6c-4.5-0.1-9.2,0.4-13.7,0.9c-2.3,0.3-4.5,0.6-6.7,1c-2.2,0.4-4.4,0.9-6.4,1.6c-1,0.4-1.8,0.8-2.4,1.5
		c-0.6,0.7-1.1,1.7-1.7,2.7c-0.5,1-1.1,2-1.9,3c-0.8,0.9-2,1.7-3.2,2c-0.6,0.2-1.2,0.2-1.8,0.3l-1.6,0c-1.1,0-2.1,0.1-3.2,0.2
		c-2.1,0.3-4.1,0.7-6,1.4c-1.9,0.7-3.7,1.6-5.4,2.7c-1.7,1.1-3.2,2.4-5,3.5c-6.9,4.2-13.4,8.1-19.4,11.7
		c-12.1,7.1-22.2,12.9-29.3,17.1C446.4,601.6,442.4,604,442.4,604z"/>
</g>
<g>
	<path fill="#FFFFFF" d="M565.8,548.1c0,0-1.7,1.4-4.6,3.8c-2.9,2.4-7.1,5.8-12.1,9.8c-2.5,2-5.2,4.2-8.1,6.5
		c-1.5,1.1-2.9,2.3-4.5,3.5c-1.6,1.2-3.3,2.3-5,3.3c-7,4.2-14.8,7.9-22.7,11.2c-4,1.7-8,3.2-12,4.7c-4,1.5-7.9,2.8-11.8,4.1
		c-3.9,1.2-7.6,2.3-11.2,3.1c-3.6,0.8-7.1,1.4-10.2,2c-6.3,1.2-11.6,2.1-15.3,2.7c-3.7,0.6-5.8,0.9-5.8,0.9s8.4-1.9,20.9-4.8
		c1.6-0.4,3.2-0.7,4.9-1.1c1.7-0.4,3.4-0.8,5.2-1.2c3.5-0.9,7.3-2.1,11.1-3.3c7.6-2.6,15.6-5.6,23.5-8.9c3.9-1.7,7.9-3.4,11.7-5.2
		c3.8-1.8,7.5-3.7,10.9-5.7c1.7-1,3.4-2,4.9-3.2c1.5-1.1,3.1-2.3,4.5-3.4c3-2.2,5.8-4.3,8.3-6.2c5.2-3.8,9.5-7,12.6-9.2
		C564,549.4,565.8,548.1,565.8,548.1z"/>
</g>
<g>
	<path fill="#FFFFFF" d="M436,507.5c1.8,2.8,3.7,5.6,5.8,8.2c2.1,2.6,4.4,5.1,7,7.1c0.7,0.5,1.3,1,2,1.4c0.7,0.4,1.4,0.8,2.2,1
		c0.8,0.3,1.6,0.4,2.3,0.5c0.8,0,1.6-0.2,2.3-0.4l1.1-0.5c0.3-0.2,0.7-0.4,1-0.6c0.6-0.5,1.2-1,1.7-1.7c0.4-0.6,0.7-1.4,0.9-2.1
		c0.1-0.7,0.1-1.6-0.1-2.2l-0.1-0.2l0.1-0.2c0.6-1.3,1.4-2.4,2.2-3.5c0.9-1.1,1.9-2,3-2.8c1.1-0.8,2.3-1.6,3.5-2.1
		c0.6-0.3,1.3-0.5,1.9-0.8c0.6-0.2,1.3-0.4,1.9-0.7c2.6-0.9,5.2-1.6,7.8-2.1c2.7-0.5,5.4-0.8,8.1-0.6c1.4,0.1,2.7,0.2,4.1,0.5
		c0.7,0.1,1.3,0.3,2,0.5c0.7,0.2,1.3,0.4,2,0.7c0.3,0.1,0.7,0.2,1,0.4l0.9,0.5c0.6,0.3,1.2,0.6,1.8,1c1.2,0.7,2.3,1.5,3.3,2.6
		c0.5,0.6,1,1.2,1.2,2.1c0.1,0.4,0.1,0.9-0.1,1.4c-0.1,0.2-0.2,0.4-0.3,0.6c-0.1,0.2-0.3,0.4-0.4,0.5c-0.6,0.6-1.2,1-1.9,1.3
		c-0.7,0.3-1.3,0.6-2,0.8c-1.3,0.4-2.7,0.7-4,0.9c-1.3,0.2-2.7,0.4-4.1,0.5l0.1-1.7c4.1,0.8,8.4,1.4,12.5,1.2c1-0.1,2-0.2,2.9-0.5
		l0.3-0.1l0,0c-0.1,0.1,0,0,0,0l0.1,0l0.2-0.1l0.7-0.4c0.5-0.2,0.8-0.6,1.2-0.8c1.6-1.2,3-2.7,4.3-4.4c2.6-3.3,4.8-6.9,7-10.5
		c1.1-1.8,2.2-3.7,3.3-5.5c0.3-0.5,0.6-0.9,0.9-1.4l0.9-1.3c0.3-0.4,0.6-0.8,0.8-1.3c0.3-0.4,0.5-0.9,0.8-1.3c1-1.8,1.7-3.7,2.1-5.7
		c0.4-2,0.6-4.1,0.8-6.2l0.2-1.6l0.1-0.8l0.1-0.8c0.1-1.1,0-2,0-3c-0.2-2.1-0.5-4.1-1.1-6.1c-1.1-4-2.7-7.9-4.9-11.5
		c-1.1-1.8-2.4-3.4-3.8-4.9c-0.7-0.7-1.5-1.5-2.2-2.1c-0.8-0.6-1.6-1.3-2.5-2c-3.4-2.6-6.7-5.5-9.8-8.3c-3.1-2.9-6.2-5.9-9.2-9
		c-3-3.1-5.9-6.2-8.7-9.5c-2.8-3.2-5.4-6.7-7.7-10.4c-2.3-3.7-4.3-7.4-6.1-11.3c-1.8-3.9-3.4-7.8-4.9-11.9c-0.7-2-1.5-4-2.1-6
		c-0.6-2.1-1.1-4.1-1.6-6.2c-0.8-4.2-1.1-8.5-0.8-12.8c-0.2,4.3,0.3,8.5,1.2,12.7c0.5,2.1,1,4.1,1.7,6.1c0.7,2,1.5,4,2.3,6
		c3.2,7.9,6.8,15.6,11.4,22.8c2.3,3.6,4.9,6.9,7.7,10.1c2.8,3.2,5.8,6.3,8.8,9.3c3,3,6.1,5.9,9.2,8.8c3.1,2.9,6.3,5.7,9.7,8.2
		c0.9,0.6,1.7,1.3,2.6,2c0.8,0.7,1.6,1.5,2.4,2.3c1.5,1.6,2.9,3.3,4,5.2c2.4,3.7,4,7.8,5.2,12c0.5,2.1,1,4.3,1.1,6.5
		c0.1,1.1,0.1,2.3,0,3.4l-0.1,0.8l-0.1,0.8l-0.2,1.6c-0.2,2.1-0.4,4.3-0.8,6.4c-0.4,2.2-1.2,4.3-2.2,6.3c-0.3,0.5-0.5,1-0.8,1.4
		c-0.3,0.5-0.6,1-0.9,1.4l-1,1.3c-0.3,0.4-0.6,0.8-0.9,1.3c-1.1,1.7-2.2,3.6-3.3,5.4c-2.2,3.7-4.5,7.3-7.2,10.7
		c-1.4,1.7-2.9,3.3-4.7,4.7c-0.5,0.3-1,0.7-1.4,0.9l-0.7,0.4l-0.2,0.1l-0.1,0l-0.1,0.1l-0.1,0l-0.4,0.1c-1.2,0.4-2.3,0.5-3.4,0.6
		c-2.2,0.1-4.4-0.1-6.5-0.3c-2.2-0.3-4.3-0.6-6.4-1L488,518l6.3-0.5c1.3-0.1,2.6-0.3,3.9-0.5c1.3-0.2,2.6-0.5,3.8-0.9
		c0.6-0.2,1.2-0.4,1.7-0.7c0.5-0.3,1-0.6,1.4-0.9c0.3-0.4,0.4-0.7,0.3-1.1c-0.1-0.4-0.4-0.9-0.8-1.3c-0.2-0.2-0.4-0.4-0.6-0.6
		c-0.2-0.2-0.5-0.4-0.7-0.6l-0.4-0.3l-0.4-0.3l-0.8-0.5c-0.5-0.4-1.1-0.7-1.7-1l-0.9-0.4c-0.3-0.1-0.6-0.2-0.9-0.4
		c-0.6-0.2-1.2-0.5-1.8-0.6c-0.6-0.2-1.2-0.4-1.9-0.5c-1.3-0.3-2.6-0.4-3.9-0.5c-2.6-0.1-5.2,0.1-7.8,0.5c-2.6,0.4-5.2,1.1-7.7,1.9
		c-0.6,0.2-1.3,0.4-1.9,0.6c-0.6,0.2-1.2,0.4-1.8,0.7c-1.2,0.5-2.3,1.2-3.3,2c-1,0.8-2,1.7-2.8,2.6c-0.8,1-1.6,2.1-2.1,3.2l0-0.3
		c0.2,0.9,0.2,1.8,0.1,2.7c-0.2,0.9-0.6,1.7-1.1,2.5c-0.5,0.7-1.2,1.3-1.9,1.8c-0.4,0.3-0.8,0.5-1.1,0.7L458,526
		c-0.8,0.3-1.7,0.5-2.6,0.4c-0.9-0.1-1.7-0.2-2.5-0.6c-0.8-0.3-1.6-0.7-2.3-1.1c-0.7-0.5-1.4-1-2.1-1.5c-2.6-2.1-4.8-4.7-6.9-7.4
		C439.6,513.2,437.7,510.4,436,507.5z"/>
</g>
<path fill="none" stroke="#FFFFFF" stroke-miterlimit="10" d="M396.7,376.7c0,0,23.9-7,23.9-11.5c0-4.5-19.3-16.9-30.9-13.6
	c-11.5,3.3-72.4,17.7-77,22.2s-38.3,38.7-40.7,42.8c-2.5,4.1-4.9,17.7-4.5,15.2c0.4-2.5,14-2.5,19.8-11.9c5.8-9.5,39.5-31.3,42-30.5
	C331.6,390.2,376.1,373.8,396.7,376.7z"/>
<path fill="none" stroke="#FFFFFF" stroke-miterlimit="10" d="M468.2,334.3c0,0-3.8,16.6,0,16.7c3.8,0,12.1-3.3,17.8-7
	s20.6-21.9,27.6-22.1s11.5-11.3,29.9-10.1c7.5,0.5,5.3-7.3,3.5-7.3s-3.5-6.8-11-6.1s-18.4,0-23.1,3.5c-4.7,3.5-19.1,4.2-21.9,9.2
	C488.2,316,471.3,324.4,468.2,334.3z"/>
<path fill="none" stroke="#FFFFFF" stroke-miterlimit="10" d="M382.7,407.8c0,0-37.4-19.5-60.4,24.3
	C322.3,432.1,360.9,435.5,382.7,407.8z"/>
<g>
	<path fill="#FFFFFF" d="M355.5,412.5c0,0,0,0.1,0,0.3c0,0.2,0,0.5-0.1,0.9c-0.2,0.8-0.6,1.8-1.7,2.7c-0.5,0.4-1.3,0.8-2.1,1
		c-0.2,0-0.4,0.1-0.7,0.1c-0.2,0-0.4,0-0.6,0c-0.5,0-0.9-0.1-1.4-0.3c-0.9-0.3-1.8-0.9-2.4-1.8c-0.6-0.9-1-1.9-1-3.1
		c0-0.4,0.1-1.1,0.3-1.6c0.2-0.5,0.4-1,0.7-1.4c0.3-0.4,0.7-0.8,1.1-1.1c0.4-0.3,0.9-0.5,1.3-0.7c0.9-0.3,1.9-0.3,2.7-0.2
		c0.9,0.2,1.5,0.6,2.1,1c1.1,0.9,1.6,2,1.7,2.7c0.1,0.4,0.1,0.7,0.1,0.9C355.5,412.4,355.5,412.5,355.5,412.5z M355.5,412.5
		c0,0,0-0.1,0-0.3c0-0.2,0-0.5-0.2-0.9c-0.2-0.7-0.8-1.8-2-2.4c-0.6-0.3-1.3-0.5-1.9-0.5c-0.7,0-1.4,0.2-2,0.6
		c-0.6,0.4-1.1,0.9-1.5,1.5c-0.2,0.3-0.3,0.6-0.4,1c-0.1,0.4-0.1,0.6-0.1,1.1c0,0.2,0.1,0.7,0.1,1c0.1,0.3,0.2,0.7,0.4,1
		c0.4,0.6,0.9,1.1,1.5,1.5c0.3,0.2,0.6,0.3,1,0.4c0.1,0.1,0.4,0.1,0.6,0.1c0.1,0,0.3,0,0.5,0c0.7,0,1.4-0.2,1.9-0.5
		c0.6-0.3,1-0.7,1.3-1.2c0.3-0.4,0.5-0.9,0.6-1.2c0.1-0.4,0.1-0.7,0.2-0.9C355.5,412.6,355.5,412.5,355.5,412.5z"/>
</g>
<g>
	<path fill="#FFFFFF" d="M335.5,414.4c0,0,0.3,0.9,0.9,2.3c0.6,1.4,1.6,3.4,3.3,5.3c0.8,1,1.8,2,3,2.8c1.2,0.8,2.6,1.4,4.1,1.8
		c3,0.8,6.4,0.3,9.6-0.8c1.6-0.6,3.1-1.3,4.4-2.2c1.3-1,2.4-2.1,3.3-3.4c0.9-1.3,1.5-2.7,1.9-4.1c0.4-1.4,0.6-2.8,0.6-4.1
		c0.1-2.6-0.3-4.7-0.7-6.2c-0.4-1.5-0.9-2.2-0.9-2.2s0.1,0.2,0.4,0.5c0.2,0.3,0.6,0.9,0.9,1.6c0.7,1.4,1.4,3.6,1.5,6.3
		c0.1,1.4,0,2.9-0.3,4.4c-0.3,1.5-0.9,3.2-1.8,4.7c-0.9,1.5-2.1,2.9-3.6,4c-1.5,1.1-3.2,2-4.9,2.6c-1.7,0.6-3.5,1-5.4,1.2
		c-1.8,0.2-3.7,0-5.4-0.5c-1.7-0.5-3.2-1.3-4.5-2.3c-1.3-1-2.2-2.1-3-3.3c-1.6-2.3-2.3-4.4-2.7-5.9
		C335.5,415.3,335.5,414.4,335.5,414.4z"/>
</g>
<g>
	<path fill="#FFFFFF" d="M516.9,345.9c0,0,0,0.1,0,0.3c0,0.2,0,0.5-0.1,0.8c-0.2,0.7-0.6,1.7-1.6,2.5c-0.5,0.4-1.1,0.7-1.9,0.9
		c-0.2,0-0.4,0.1-0.6,0.1c-0.2,0-0.3,0-0.6,0c-0.4,0-0.9-0.1-1.3-0.2c-0.8-0.3-1.7-0.8-2.2-1.6c-0.6-0.8-0.9-1.8-0.9-2.8
		c0-0.3,0-0.4,0.1-0.7c0-0.3,0.1-0.5,0.2-0.8c0.2-0.5,0.4-0.9,0.7-1.3c0.6-0.8,1.4-1.3,2.2-1.6c0.8-0.3,1.7-0.3,2.4-0.1
		c0.8,0.2,1.4,0.5,1.9,0.9c1,0.8,1.4,1.8,1.6,2.5c0.1,0.3,0.1,0.6,0.1,0.8C516.9,345.8,516.9,345.9,516.9,345.9z M516.9,345.9
		c0,0,0-0.1,0-0.3c0-0.2,0-0.5-0.2-0.8c-0.2-0.7-0.7-1.6-1.8-2.1c-0.5-0.3-1.1-0.4-1.7-0.4c-0.7,0-1.3,0.2-1.8,0.5
		c-0.5,0.3-1,0.8-1.3,1.3c-0.1,0.3-0.3,0.6-0.3,0.9c0,0.2-0.1,0.3-0.1,0.4c0,0.1,0,0.4,0,0.5c0,0.6,0.2,1.2,0.4,1.8
		c0.3,0.5,0.7,1,1.3,1.3c0.3,0.2,0.6,0.3,0.8,0.4c0.1,0.1,0.3,0.1,0.5,0.1c0.1,0,0.3,0,0.5,0c0.6,0,1.2-0.1,1.7-0.4
		c0.5-0.3,0.9-0.7,1.2-1c0.3-0.4,0.5-0.8,0.6-1.1c0.1-0.3,0.1-0.6,0.2-0.8C516.9,346,516.9,345.9,516.9,345.9z"/>
</g>
<path fill="none" stroke="#FFFFFF" stroke-miterlimit="10" d="M486,367.5c0,0,37.8-1.5,49.4-25C535.5,342.5,502.7,323,486,367.5z"/>
<g>
	<path fill="#FFFFFF" d="M499.7,345.7c0,0,0.1,0.8,0.5,2.1c0.4,1.3,1.1,3.1,2.3,5c1.2,1.9,3,3.9,5.5,4.8c2.5,1,5.5,0.9,8.4,0.2
		c0.3-0.1,0.7-0.2,1.1-0.3c0.4-0.1,0.6-0.2,1-0.4c0.6-0.3,1.3-0.6,1.8-1.1c1.1-0.8,2-1.9,2.6-3.1c0.6-1.2,1-2.5,1.2-3.7
		c0.2-1.3,0.2-2.5,0.1-3.6c-0.2-2.3-0.7-4.1-1.2-5.3c-0.3-0.6-0.5-1.1-0.8-1.3c-0.2-0.3-0.4-0.4-0.4-0.4s0.2,0.1,0.5,0.3
		c0.3,0.2,0.7,0.6,1,1.2c0.8,1.2,1.6,3,2,5.4c0.2,1.2,0.3,2.5,0.2,3.9c-0.1,1.4-0.4,2.9-1.1,4.3c-0.7,1.4-1.7,2.8-3,3.8
		c-0.7,0.5-1.4,0.9-2.2,1.3c-0.4,0.2-0.8,0.3-1.2,0.5c-0.4,0.1-0.7,0.2-1.2,0.3c-1.6,0.4-3.2,0.6-4.9,0.6c-1.6,0-3.3-0.4-4.7-1
		c-1.5-0.6-2.7-1.6-3.6-2.6c-1-1-1.7-2.2-2.2-3.3c-1.1-2.2-1.5-4.1-1.7-5.5C499.7,346.5,499.7,345.7,499.7,345.7z"/>
</g>
<g>
	<path fill="#FFFFFF" d="M113.8,500.2c0,0,0.4-0.7,1.2-2c0.8-1.3,2-3.3,3.8-5.7c1.7-2.4,4-5.4,7-8.5c1.5-1.6,3.2-3.2,5.3-4.7
		c2-1.5,4.3-2.9,7-3.8c1.3-0.4,2.8-0.8,4.3-0.9c1.5,0,3,0.3,4.5,0.9c2.9,1.1,5.7,2.8,8.5,4.8c5.5,4,10.9,8.9,16.5,14.4
		c2.8,2.7,5.7,5.6,8.6,8.5c1.5,1.5,3,2.9,4.5,4.4c1.6,1.5,3.1,2.9,4.9,4.2c0.4,0.3,0.9,0.6,1.3,0.9c0.4,0.2,1,0.5,1.3,0.5
		c0.1,0,0.2,0,0.1,0l0.3-0.2c0.2-0.2,0.5-0.3,0.7-0.5l1.2-1.1c1.5-1.6,2.9-3.4,4.2-5.2c2.6-3.7,5-7.8,6.9-12.2c2-4.3,3.6-9,4.7-13.8
		c1.1-4.8,1.6-9.9,1.5-15c-0.1-1.3-0.1-2.6-0.2-3.9c-0.1-1.3-0.2-2.6-0.4-3.9c-0.2-2.6-0.4-5.3-0.6-8c-0.3-5.4-0.5-10.8-0.5-16.3
		c0-5.5,0.3-11.1,1-16.8c0.7-5.6,1.8-11.4,3.9-16.9c1.1-2.7,2.5-5.4,4.4-7.8c0.4-0.6,1-1.1,1.5-1.7c0.3-0.3,0.6-0.5,0.9-0.8l0.4-0.4
		c0.1-0.1,0.1-0.1,0.2-0.1l0.2-0.2c0.9-0.8,1.3-2.1,1.3-3.4c0.1-2.7-0.8-5.6-1.9-8.3c-1.1-2.7-2.4-5.4-3.9-8
		c-2.9-5.2-6.3-10.2-9.8-15.2c-3.5-4.9-7.3-9.8-11.2-14.6c-3.9-4.8-8-9.5-12.3-14c-0.5-0.6-1.1-1.1-1.6-1.6l-0.8-0.8l-0.4-0.4
		c-0.2-0.2-0.2-0.2-0.3-0.3c0,0-0.2-0.2-0.3-0.4c-0.3-0.6-0.4-1.1-0.4-1.5c0-0.5,0-0.9,0-1.3c0.1-0.9,0.3-1.7,0.5-2.4
		c0.9-3.1,2.2-6,3.5-8.9c2.8-5.7,5.9-11.3,9.3-16.7c3.4-5.4,7-10.7,10.8-15.9c3.8-5.1,7.9-10.2,12.4-14.8c1.1-1.2,2.3-2.3,3.5-3.4
		c0.6-0.5,1.2-1.1,1.8-1.6l1.8-1.6c2.4-2.1,4.7-4.2,7-6.5c9.2-8.9,17.9-18.3,27.3-27c4.7-4.3,9.6-8.5,14.7-12.3
		c5.1-3.8,10.5-7.3,16.2-10.2c5.7-2.9,11.6-5.2,17.7-6.9c3-0.8,6.1-1.5,9.2-2c1.6-0.2,3.1-0.4,4.7-0.6c1.5-0.2,3.1-0.4,4.6-0.5
		c12.2-1.6,24-4.9,34.7-10.2c5.3-2.6,10.3-5.8,15.1-9.3c2.4-1.7,4.7-3.5,7.1-5.3c2.4-1.7,4.8-3.5,7.5-4.8c1.3-0.7,2.8-1.2,4.3-1.4
		c0.2,0,0.4-0.1,0.6-0.1l0.5,0c0.4,0,0.7-0.1,1.1-0.1c0.7,0,1.5-0.1,2.2-0.1c2.9-0.1,5.8,0.1,8.6,0.3c5.7,0.5,11.2,1.4,16.6,2.6
		c21.7,4.9,40.7,15.2,54.9,28.2c7.1,6.5,13.1,13.7,18,21c1.2,1.9,2.3,3.7,3.5,5.5c1.1,1.8,2.2,3.6,3.3,5.4c2.1,3.6,4.2,7,6.2,10.4
		c8,13.4,14.9,25.2,20.3,35c5.5,9.8,9.5,17.7,11.9,23.2c1.1,2.8,1.9,4.9,2.3,6.5c0.2,0.7,0.3,1.3,0.4,1.7c0.1,0.4,0.1,0.6,0.1,0.6
		s0-0.2-0.1-0.6c-0.1-0.4-0.2-1-0.4-1.7c-0.4-1.5-1.2-3.7-2.4-6.4c-2.4-5.5-6.5-13.3-12.1-23.1c-5.5-9.8-12.5-21.5-20.6-34.8
		c-2-3.3-4.1-6.8-6.3-10.3c-1.1-1.8-2.2-3.6-3.3-5.4c-1.2-1.8-2.3-3.6-3.5-5.4c-5-7.2-10.9-14.2-18-20.7
		c-14.2-12.9-33.1-23-54.5-27.6c-5.4-1.2-10.9-2-16.4-2.5c-2.8-0.2-5.6-0.3-8.4-0.3c-0.7,0-1.4,0-2.1,0.1c-0.7,0-1.5,0.1-2.1,0.2
		c-1.3,0.2-2.6,0.7-3.9,1.3c-2.5,1.2-4.8,2.9-7.2,4.7c-2.3,1.7-4.7,3.5-7.1,5.3c-4.8,3.5-9.9,6.7-15.3,9.5
		c-10.9,5.5-22.9,8.8-35.2,10.5c-1.5,0.2-3.1,0.4-4.6,0.5c-1.5,0.2-3.1,0.4-4.6,0.6c-3,0.5-6.1,1.1-9,1.9c-6,1.6-11.8,3.9-17.4,6.8
		c-5.6,2.9-10.9,6.3-15.9,10c-5.1,3.8-9.9,7.9-14.5,12.2c-9.3,8.7-18,18.1-27.3,27.1c-2.3,2.2-4.7,4.4-7.1,6.5l-1.8,1.6
		c-0.6,0.5-1.2,1-1.8,1.6c-1.2,1.1-2.3,2.2-3.4,3.3c-4.4,4.6-8.4,9.5-12.3,14.6c-3.8,5.1-7.4,10.3-10.7,15.7
		c-3.4,5.4-6.5,10.8-9.2,16.5c-1.3,2.8-2.6,5.7-3.4,8.6c-0.2,0.7-0.4,1.5-0.4,2.2c0,0.3-0.1,0.7,0,1c0,0.3,0.1,0.6,0.1,0.7
		c0,0,0,0,0.1,0.1c0,0,0.2,0.2,0.1,0.1l0.5,0.4l0.9,0.8c0.6,0.6,1.1,1.1,1.7,1.7c4.4,4.6,8.4,9.3,12.3,14.1
		c3.9,4.8,7.7,9.7,11.2,14.7c3.6,5,6.9,10.1,9.9,15.4c1.5,2.7,2.8,5.4,4,8.2c1.1,2.8,2.1,5.8,2,9c-0.1,1.6-0.6,3.3-1.9,4.6l-0.8,0.8
		c-0.3,0.2-0.5,0.5-0.8,0.7c-0.5,0.5-1,1-1.4,1.6c-1.8,2.2-3.1,4.7-4.2,7.3c-2.1,5.3-3.2,10.9-3.9,16.5c-0.7,5.6-1,11.1-1.1,16.6
		c-0.1,5.5,0.1,10.9,0.4,16.2c0.1,2.7,0.3,5.3,0.5,7.9c0.1,1.3,0.2,2.6,0.3,3.9c0.1,1.3,0.1,2.6,0.2,3.9c0.1,5.2-0.5,10.4-1.6,15.3
		c-1.2,4.9-2.9,9.6-4.9,14c-2,4.4-4.4,8.5-7.1,12.3c-1.3,1.9-2.8,3.7-4.4,5.3l-1.3,1.2c-0.2,0.2-0.5,0.3-0.7,0.5l-0.3,0.2
		c-0.3,0.1-0.4,0.2-0.7,0.2c-0.8,0-1.3-0.3-1.8-0.6c-0.5-0.3-1-0.6-1.4-1c-1.8-1.4-3.4-2.9-4.9-4.3c-1.5-1.5-3-3-4.5-4.4
		c-2.9-2.9-5.8-5.8-8.5-8.6c-5.6-5.5-10.9-10.5-16.3-14.5c-2.7-2-5.5-3.7-8.4-4.8c-1.4-0.5-2.9-0.9-4.3-0.9c-1.5,0-2.9,0.4-4.2,0.8
		c-2.6,0.9-4.9,2.3-6.9,3.7c-2,1.5-3.7,3.1-5.3,4.6c-3.1,3.1-5.3,6-7.1,8.5c-1.8,2.4-3,4.4-3.8,5.7
		C114.2,499.5,113.8,500.2,113.8,500.2z"/>
</g>
<g>
	<path fill="#FFFFFF" d="M398.3,398.9c0,0,0-0.1-0.1-0.3c-0.1-0.1-0.4-0.4-0.7-0.6c-0.6-0.4-1.7-1-3-1.6c-2.7-1.2-6.6-2.7-11.5-3.5
		c-2.4-0.4-5.2-0.5-7.8,0.1c-0.3,0.1-0.7,0.2-1,0.3c-0.3,0.1-0.7,0.2-1,0.4c-0.7,0.2-1.4,0.5-2.2,0.6c-0.8,0.2-1.6,0.3-2.3,0.5
		c-0.8,0.1-1.5,0.2-2.3,0.4c-3.1,0.5-6.3,1.1-9.5,1.8c-3.1,0.9-6.3,1.8-9.3,3.2l-2.3,1c-0.7,0.4-1.5,0.8-2.2,1.1
		c-0.7,0.4-1.5,0.8-2.2,1.1c-0.7,0.4-1.4,0.9-2.1,1.3c-0.7,0.4-1.4,0.9-2.1,1.3l-1,0.6l-1,0.7c-1.3,0.9-2.6,1.9-3.9,2.8
		c-1.2,1-2.4,2-3.6,2.9c-1.2,1-2.3,1.9-3.3,2.9c-1,1-2.1,1.9-3.1,2.9c-0.5,0.5-1,0.9-1.5,1.4c-0.5,0.5-0.9,0.9-1.3,1.4
		c-1.7,1.8-3.3,3.5-4.8,4.9c-1.4,1.5-2.5,2.9-3.5,4c-2,2.2-3.1,3.5-3.1,3.5s1-1.4,2.8-3.7c0.9-1.2,2-2.6,3.2-4.2
		c1.3-1.6,2.8-3.3,4.5-5.2c0.4-0.5,0.8-1,1.3-1.5c0.5-0.5,0.9-0.9,1.4-1.4c1-1,2-2,3-3c1-1.1,2.1-2,3.3-3c1.2-1,2.3-2.1,3.5-3.1
		c1.3-1,2.6-1.9,3.9-2.9l1-0.7l1-0.7c0.7-0.4,1.4-0.9,2.1-1.3c0.7-0.4,1.4-0.9,2.1-1.3c0.7-0.4,1.5-0.8,2.2-1.2
		c0.8-0.4,1.5-0.8,2.3-1.2l2.3-1c3.1-1.4,6.4-2.4,9.7-3.2c3.3-0.8,6.5-1.3,9.7-1.7c0.8-0.1,1.5-0.2,2.3-0.3c0.7-0.1,1.5-0.2,2.2-0.4
		c0.7-0.1,1.5-0.4,2.2-0.6c0.4-0.1,0.7-0.2,1.1-0.3c0.4-0.1,0.7-0.2,1.1-0.3c3-0.5,5.8-0.2,8.3,0.3c2.5,0.5,4.7,1.2,6.7,2
		c1.9,0.8,3.5,1.6,4.8,2.3c1.3,0.7,2.3,1.4,2.9,1.9c0.3,0.2,0.5,0.5,0.6,0.6C398.3,398.8,398.2,398.9,398.3,398.9z"/>
</g>
<g>
	<path fill="#FFFFFF" d="M472.7,365.2c0,0,0.7-1.1,2-2.9c1.3-1.8,3.2-4.4,5.7-7.3c1.2-1.5,2.6-3.1,4.1-4.7c1.5-1.6,3.2-3.3,5.1-4.8
		c0.5-0.4,0.9-0.8,1.5-1.1c0.5-0.3,1-0.7,1.7-1l0.9-0.4l0.9-0.3c0.6-0.2,1.2-0.4,1.8-0.6c2.4-0.8,4.8-1.6,7.2-2.4
		c2.4-0.8,4.9-1.5,7.3-2.3c2.4-0.8,4.8-1.4,7.1-2.1c2.3-0.7,4.6-1.3,6.7-1.8c2.1-0.5,4.2-1,6.1-1.3c0.4-0.1,1.1-0.1,1.5,0
		c0.5,0.1,0.9,0.1,1.3,0.1c0.8,0,1.7-0.1,2.5-0.1c1.6-0.1,3,0.1,4.1,0.4c1.1,0.3,1.9,0.8,2.4,1.1c0.5,0.3,0.8,0.5,0.8,0.5
		s-0.3-0.1-0.8-0.4c-0.5-0.2-1.4-0.6-2.4-0.8c-1.1-0.3-2.4-0.3-3.9-0.1c-0.8,0.1-1.6,0.3-2.5,0.3c-0.4,0-1,0-1.4,0
		c-0.3,0-0.4,0-0.6,0c-0.2,0-0.4,0-0.6,0.1c-1.8,0.4-3.8,0.9-5.9,1.6c-2.1,0.6-4.3,1.3-6.6,2c-2.3,0.7-4.6,1.5-7,2.3
		c-2.4,0.8-4.8,1.6-7.2,2.4c-2.4,0.8-4.8,1.6-7.2,2.4c-0.6,0.2-1.2,0.4-1.8,0.6l-0.9,0.3l-0.8,0.3c-0.5,0.2-1,0.5-1.5,0.8
		c-0.5,0.3-0.9,0.7-1.4,1c-3.7,2.9-6.8,6.1-9.4,8.9c-2.6,2.8-4.8,5.1-6.3,6.8C473.6,364.2,472.7,365.2,472.7,365.2z"/>
</g>
<g>
	<path fill="#FFFFFF" d="M189,513.5c0,0,0.4,2,1.1,5.5c0.7,3.5,1.8,8.5,3.1,14.5c0.7,3,1.4,6.2,2.3,9.6c0.9,3.4,1.9,7,3.2,10.6
		c0.3,0.9,0.7,1.8,1.1,2.6c0.2,0.4,0.5,0.8,0.7,1.2c0.3,0.4,0.6,0.6,0.8,0.6c0,0,0.1,0,0.1-0.1c0.1-0.1,0.2-0.1,0.3-0.2
		c0.3-0.2,0.6-0.3,0.9-0.3c0.6-0.1,1.2,0.1,1.7,0.2c1,0.4,1.9,0.9,2.7,1.5c3.3,2.5,6,5.6,8.5,8.9c1.2,1.7,2.4,3.4,3.4,5.2
		c0.5,0.9,0.9,1.9,1.1,3c0,0.3,0.1,0.6,0,0.9c0,0.2-0.1,0.4-0.3,0.5c-0.1,0.2-0.4,0.3-0.5,0.3c-0.2,0.1-0.5,0.1-0.8,0.2
		c-0.3,0-0.5,0.1-0.8,0.1c-2.1,0.2-4.1,0.2-6.1,0c-2-0.1-3.9-0.4-5.9-0.8c-1.9-0.4-3.8-0.8-5.5-1.5c-1.7-0.7-3.4-1.6-4.7-3
		c-0.3-0.3-0.6-0.8-0.8-1.1c-0.2-0.4-0.5-0.6-0.8-0.9c-0.6-0.5-1.3-0.9-2-1.3c-1.5-0.7-3-1.1-4.5-1.5c-3-0.7-5.7-1.2-8.2-1.6
		c-2.5-0.4-4.6-0.8-6.4-1.2c-1.7-0.4-3.1-0.9-3.9-1.4c-0.8-0.5-1-1.1-1-1.1c0,0,0.1,0.1,0.2,0.3c0.1,0.2,0.4,0.5,0.8,0.7
		c0.8,0.5,2.2,0.9,3.9,1.3c1.7,0.4,3.9,0.7,6.4,1.1c2.5,0.4,5.3,0.8,8.3,1.5c1.5,0.4,3.1,0.8,4.6,1.5c0.8,0.4,1.5,0.8,2.2,1.4
		c0.8,0.6,1.1,1.5,1.7,2c1.1,1.2,2.7,2.1,4.4,2.7c1.7,0.6,3.5,1.1,5.4,1.5c1.9,0.4,3.8,0.6,5.8,0.7c2,0.1,4,0.2,5.9-0.1
		c0.2,0,0.5-0.1,0.7-0.1c0.2,0,0.4-0.1,0.7-0.2c0.1-0.1,0.1,0,0.2-0.2c0-0.1,0-0.3,0-0.6c-0.2-0.9-0.6-1.8-1.1-2.7
		c-0.9-1.8-2.1-3.5-3.3-5.1c-2.4-3.2-5.1-6.4-8.3-8.8c-0.8-0.6-1.6-1.1-2.5-1.4c-0.4-0.2-0.9-0.2-1.3-0.2c-0.2,0-0.4,0.1-0.5,0.2
		c-0.1,0-0.2,0.1-0.3,0.2c-0.1,0.1-0.3,0.2-0.5,0.2c-0.4,0.1-0.8-0.1-1-0.3c-0.2-0.2-0.4-0.4-0.6-0.6c-0.3-0.4-0.6-0.9-0.8-1.3
		c-0.5-0.9-0.8-1.8-1.2-2.7c-1.3-3.6-2.2-7.3-3.1-10.7c-0.8-3.4-1.5-6.7-2.2-9.7c-1.3-6-2.1-11.1-2.7-14.6
		C189.3,515.5,189,513.5,189,513.5z"/>
</g>
<g>
	<path fill="#FFFFFF" d="M160.2,484.3c0,0-1.4,0-3.8,0.2c-2.4,0.2-5.9,0.7-9.8,1.8c-2,0.6-4.1,1.3-6.1,2.5c-2,1.2-4,2.8-4.9,5.1
		c-0.9,2.3-1.3,5-1.5,7.7c-0.2,2.7-0.1,5.5,0,8.2c0.3,5.5,1.2,11,2.2,16.1c1,5.1,2.2,9.8,3.4,13.8c1.2,4,2.3,7.2,3.3,9.5
		c0.5,1.1,0.9,2,1.3,2.5c0.3,0.6,0.5,0.8,0.5,0.8s-0.2-0.3-0.6-0.8c-0.3-0.5-0.9-1.4-1.4-2.5c-0.5-1.1-1.1-2.4-1.8-4
		c-0.6-1.6-1.3-3.4-1.9-5.4c-1.3-4-2.6-8.7-3.7-13.8c-1.1-5.1-2-10.6-2.3-16.2c-0.2-2.8-0.2-5.6,0-8.3c0.2-2.8,0.6-5.5,1.6-8
		c1.1-2.5,3.2-4.3,5.4-5.4c2.1-1.2,4.3-1.9,6.4-2.4c4.1-1,7.6-1.3,10-1.4C158.8,484.2,160.2,484.3,160.2,484.3z"/>
</g>
<g>
	<path fill="#FFFFFF" d="M428.1,518.6c0,0-0.7,0.8-1.8,2.4c-1.1,1.5-2.7,3.8-4.3,6.6c-0.4,0.7-0.8,1.4-1.2,2.2
		c-0.4,0.8-0.8,1.6-1.2,2.4c-0.7,1.7-1.5,3.5-2,5.4c-0.6,1.9-0.9,4-0.9,6.1c0.1,1,0.1,2.1,0.3,3.2c0.1,1.1,0.2,2.2,0.2,3.3
		c0.1,4.4-0.3,8.8-1.4,12.8c-1,4-2.9,7.5-5.3,9.9c-1.2,1.2-2.5,2-3.7,2.6c-1.2,0.5-2.4,0.8-3.3,0.9c-0.9,0.1-1.7,0.1-2.2,0.1
		c-0.5,0-0.8,0-0.8,0s0.3,0,0.8,0c0.5,0,1.3-0.1,2.2-0.3c0.9-0.2,2-0.5,3.2-1.1c1.2-0.6,2.4-1.5,3.5-2.6c1.1-1.2,2.1-2.6,2.9-4.3
		c0.8-1.7,1.4-3.5,1.9-5.5c1-3.9,1.4-8.3,1.2-12.6c0-1.1-0.1-2.2-0.2-3.2c-0.1-1.1-0.2-2.2-0.2-3.3c0.1-2.2,0.4-4.3,1-6.3
		c0.6-2,1.4-3.8,2.2-5.5c0.4-0.8,0.9-1.6,1.3-2.4c0.5-0.8,0.9-1.5,1.3-2.2c1.8-2.8,3.5-4.9,4.7-6.4
		C427.4,519.4,428.1,518.6,428.1,518.6z"/>
</g>
<g>
	<path fill="#FFFFFF" d="M511,632.3c0,0,0.6-0.2,1.6-0.4c1-0.3,2.5-0.7,4.2-1.1c1.7-0.5,3.8-1.1,5.9-1.7c2.2-0.7,4.4-1.4,6.7-2.2
		c2.3-0.8,4.5-1.7,6.5-2.6c1-0.5,2-0.9,2.9-1.4c0.9-0.5,1.8-1,2.5-1.4c0.8-0.5,1.4-1,2-1.4c0.6-0.5,1.1-0.9,1.4-1.2
		c0.4-0.4,0.7-0.7,0.8-0.9c0.2-0.2,0.3-0.3,0.3-0.3s-0.1,0.1-0.2,0.4c-0.2,0.2-0.4,0.6-0.7,1c-0.3,0.4-0.8,0.9-1.3,1.4
		c-0.3,0.2-0.6,0.5-0.9,0.8c-0.3,0.3-0.7,0.5-1,0.8c-0.7,0.5-1.6,1.1-2.5,1.6c-0.9,0.5-1.9,1.1-2.9,1.6c-2,1-4.3,1.9-6.6,2.7
		c-2.3,0.8-4.6,1.5-6.8,2.1c-2.2,0.6-4.3,1-6,1.4c-1.8,0.4-3.3,0.6-4.3,0.8C511.6,632.3,511,632.3,511,632.3z"/>
</g>
<g>
	<path fill="#FFFFFF" d="M294,455.8c0,0,0.3-0.1,0.8-0.3c0.5-0.2,1.2-0.5,2-0.8c0.8-0.4,1.7-0.8,2.7-1.4c0.5-0.3,0.9-0.6,1.4-0.9
		c0.5-0.3,0.9-0.7,1.4-1c0.4-0.4,0.9-0.8,1.3-1.2c0.3-0.4,0.8-0.8,1.1-1.3c0.3-0.4,0.6-0.8,0.8-1.3c0.2-0.4,0.5-0.8,0.6-1.3
		c0.1-0.4,0.3-0.8,0.4-1.1c0.1-0.4,0.1-0.7,0.2-0.9c0.1-0.5,0.2-0.8,0.2-0.8s0,0.3,0,0.8c0,0.3,0,0.6,0,1c-0.1,0.4-0.1,0.8-0.2,1.2
		c0,0.5-0.3,0.9-0.5,1.4c-0.2,0.5-0.5,1-0.8,1.5c-0.1,0.3-0.3,0.5-0.5,0.7c-0.2,0.2-0.4,0.5-0.6,0.7c-0.4,0.4-0.9,0.9-1.3,1.3
		c-0.5,0.4-1,0.8-1.5,1.1c-0.5,0.3-1,0.6-1.5,0.9c-0.5,0.3-1,0.5-1.5,0.7c-0.5,0.2-1,0.3-1.4,0.5c-0.9,0.3-1.6,0.4-2.1,0.5
		C294.3,455.8,294,455.8,294,455.8z"/>
</g>
<g>
	<path fill="#FFFFFF" d="M242,612.3c0,0,0.1-0.1,0.3-0.3c0.2-0.2,0.5-0.5,0.8-0.9c0.7-0.8,1.6-1.9,2.4-3.5c0.8-1.5,1.6-3.5,1.7-5.7
		c0.1-2.2-0.5-4.5-1.7-6.5c-0.6-1-1.4-2-2.2-2.8c-0.8-0.8-1.7-1.7-2.5-2.4c-1.7-1.6-3.3-3-4.7-4.2c-1.4-1.2-2.6-2.2-3.3-3
		c-0.8-0.8-1-1.4-1-1.4s0.3,0.6,1.1,1.3c0.8,0.7,2,1.7,3.5,2.8c1.5,1.1,3.2,2.4,5,3.9c0.9,0.7,1.8,1.5,2.7,2.3
		c0.9,0.9,1.7,1.8,2.4,2.9c0.7,1.1,1.3,2.3,1.6,3.5c0.4,1.2,0.5,2.5,0.5,3.7c0,2.5-0.8,4.7-1.7,6.4c-0.9,1.7-1.8,3.1-2.5,3.9
		c-0.4,0.4-0.7,0.8-0.9,1c-0.2,0.2-0.3,0.4-0.3,0.4L242,612.3z"/>
</g>
<g>
	<path fill="#FFFFFF" d="M462.8,517.9c0,0,2.4-0.2,5.9-0.3c1.8-0.1,3.8-0.1,6-0.1c1.1,0,2.2,0,3.4,0c1.2,0,2.3,0,3.5,0
		c4.7,0.1,9.3,0.2,12.8,0.3c0.9,0,1.7,0,2.4,0c0.7,0,1.3-0.1,1.8-0.1c0.5,0,0.9-0.1,1.2-0.1c0.3,0,0.4-0.1,0.4-0.1s-0.1,0.1-0.4,0.2
		c-0.3,0.1-0.6,0.3-1.1,0.4c-0.5,0.1-1.1,0.3-1.8,0.4c-0.7,0.1-1.5,0.3-2.4,0.4c-0.9,0.1-1.8,0.2-2.8,0.3c-1,0.1-2.1,0.2-3.2,0.2
		c-1.1,0-2.2,0.1-3.4,0.1c-1.2,0-2.3,0-3.5,0c-1.2,0-2.3-0.1-3.5-0.1c-1.2,0-2.3-0.1-3.4-0.2c-2.2-0.1-4.2-0.3-6-0.5
		C465.1,518.4,462.8,517.9,462.8,517.9z"/>
</g>
<g>
	<path fill="#FFFFFF" d="M172.3,506.3c0,0,0.4,0.5,1,1.5c0.6,1,1.5,2.4,2.3,4.3c0.4,0.9,0.8,1.9,1.1,3c0.3,1.1,0.6,2.3,0.7,3.6
		c0.1,1.3,0.1,2.7-0.5,4c-0.5,1.3-1.6,2.5-2.8,3.1c-1.3,0.7-2.6,0.9-3.7,1.5c-1.1,0.6-2,1.4-2.4,2.5c-0.4,1.1-0.3,2.2,0.1,3.3
		c0.3,1,0.9,2,1.4,2.8c1.1,1.6,2.4,2.7,3.4,3.2c0.5,0.3,0.9,0.4,1.2,0.5c0.3,0.1,0.5,0,0.5,0c0,0-0.2,0-0.5,0
		c-0.3,0-0.8-0.1-1.3-0.4c-1.1-0.5-2.5-1.5-3.8-3.1c-0.6-0.8-1.2-1.7-1.7-2.9c-0.4-1.1-0.6-2.5-0.2-3.8c0.4-1.3,1.5-2.4,2.7-3
		c1.2-0.7,2.6-0.9,3.7-1.5c1.1-0.6,2-1.5,2.4-2.6c0.5-1.1,0.6-2.4,0.5-3.6c-0.1-2.4-0.8-4.6-1.5-6.5c-0.7-1.9-1.4-3.4-1.9-4.4
		C172.7,506.9,172.3,506.3,172.3,506.3z"/>
</g>
<g>
	<path fill="#FFFFFF" d="M243.1,612.8c0,0,4.7,8.1,11.5,20.4c6.8,12.3,15.7,28.8,23.8,45.7c2,4.2,4,8.5,5.9,12.7
		c1.9,4.2,3.6,8.4,5.1,12.6c0.7,2.1,1.4,4.1,1.9,6.2c0.5,2.1,0.8,4.1,0.9,6.1c0.2,4,0,7.9-0.4,11.3c-0.4,3.5-1.1,6.7-2,9.4
		c-0.8,2.7-1.9,5-2.9,6.8c-0.5,0.9-1,1.6-1.4,2.3c-0.5,0.6-0.9,1.2-1.2,1.6c-0.7,0.8-1.1,1.2-1.1,1.2s0.4-0.4,1.1-1.2
		c0.4-0.4,0.7-1,1.2-1.6c0.4-0.7,1-1.4,1.4-2.3c1-1.8,2-4.1,2.8-6.8c0.8-2.7,1.5-5.9,1.9-9.4c0.4-3.5,0.5-7.3,0.3-11.3
		c0-2-0.4-4-0.9-6.1c-0.6-2-1.2-4.1-2-6.1c-1.5-4.1-3.3-8.3-5.2-12.5c-1.9-4.2-3.9-8.4-6-12.6c-8.3-16.8-17.3-33.2-24.1-45.5
		c-6.9-12.3-11.6-20.3-11.6-20.3L243.1,612.8z"/>
</g>
<g>
	<path fill="#FFFFFF" d="M558.2,693.4c0,0-0.1,1-0.3,2.9c-0.1,0.9-0.1,2-0.2,3.3c-0.1,1.3-0.1,2.7-0.1,4.3c0,1.6,0,3.3,0,5.1
		c0.1,1.8,0.1,3.7,0.3,5.7c0.1,1,0.1,2,0.2,3c0.1,1,0.2,2,0.3,3.1c0.2,2.1,0.5,4.1,0.7,6.2c0.2,2.1,0.6,4.2,0.9,6.2
		c0.3,2,0.8,4,1.1,6c0.4,1.9,0.9,3.8,1.3,5.5c0.4,1.8,0.9,3.4,1.3,4.9c0.4,1.5,0.8,2.9,1.2,4.1c0.4,1.2,0.7,2.3,1,3.2
		c0.6,1.8,0.9,2.8,0.9,2.8s-0.3-1-0.9-2.7c-0.3-0.9-0.7-1.9-1.1-3.1c-0.4-1.2-0.8-2.6-1.2-4.1c-0.4-1.5-1-3.2-1.4-4.9
		c-0.4-1.8-1-3.6-1.3-5.5c-0.4-1.9-0.9-3.9-1.2-6c-0.3-2-0.8-4.1-1-6.2c-0.3-2.1-0.6-4.2-0.8-6.2c-0.1-1-0.2-2.1-0.3-3.1
		c-0.1-1-0.2-2-0.2-3c-0.2-2-0.2-3.9-0.3-5.7c0-1.8-0.1-3.5-0.1-5.1c0-1.6,0-3,0-4.3c0-1.3,0.1-2.4,0.1-3.3c0.1-1.8,0.2-2.9,0.2-2.9
		L558.2,693.4z"/>
</g>
</svg>
