<?xml version="1.0" encoding="utf-8"?>
<!-- Generator: Adobe Illustrator 18.1.1, SVG Export Plug-In . SVG Version: 6.00 Build 0)  -->
<svg version="1.1" id="Lager_2" xmlns="http://www.w3.org/2000/svg" xmlns:xlink="http://www.w3.org/1999/xlink" x="0px" y="0px"
	 viewBox="0 0 558.8 768" enable-background="new 0 0 558.8 768" xml:space="preserve">
<path fill="none" stroke="#FFFFFF" stroke-width="2" stroke-miterlimit="10" d="M70.8,553.3c-5-12.5-27.3-31.7-45-76.6
	c-8.4-21.3-17.4-49-17.5-78c-0.1-34.8,19.3-20,20.3-26.4S36.8,187.7,57,157.9S130.3,24,167.5,24s152-37.2,243.4,0
	s56.3,69.1,63.8,73.3c7.4,4.3,54.2,88.2,52.1,107.4s25.6,135.7,10.7,187.8c-14.9,52.1-13.6,84.6-15.1,93.6
	c-2.1,12.4-9.7,50.9-12,66.3c-2.2,14.3-23.2,88.9-55,113"/>
<g>
	<path fill="#FFFFFF" d="M293,469.4c0,0-1.5,3.2-3.7,9c-1.1,2.9-2.3,6.5-3.4,10.6c-0.6,2.1-1.1,4.3-1.5,6.7
		c-0.4,2.4-0.7,4.9-0.6,7.5c0.1,2.6,0.8,5.2,2.6,7.3c0.9,1,2,1.7,3.3,2c1.3,0.3,2.8,0.2,4.2,0c3-0.4,6.1-1.1,9.4-1.3
		c3.3-0.2,6.7,0.2,10,1.2c0.8,0.2,1.6,0.5,2.4,0.9c0.8,0.3,1.6,0.6,2.3,1c1.6,0.7,3.1,1.4,4.7,2.1c3.1,1.4,6.3,2.9,9.5,4.3
		c3.2,1.4,6.4,2.7,9.8,3.7c3.3,1,6.7,1.9,10.2,2.1c3.4,0.3,6.9,0.2,10.3-0.6c0.8-0.2,1.6-0.5,2.5-0.7c0.4-0.1,0.8-0.2,1.2-0.4
		l1.2-0.5c1.6-0.6,3.2-1.3,4.8-2c6.3-2.8,12.3-6.2,18.1-9.5c2.9-1.6,5.7-3.3,8.6-4.7c1.5-0.7,2.9-1.4,4.5-1.9
		c0.8-0.3,1.6-0.5,2.4-0.6c0.4,0,0.9-0.1,1.3,0c0.2,0,0.5,0.1,0.7,0.1l0.2,0l0.1,0l0.3,0.1c2.7,0.8,5.8,0.6,8.3-0.3
		c1.3-0.5,2.4-1.2,3.3-2.1c0.9-0.9,1.5-2,1.9-3.2c0.4-1.2,0.5-2.4,0.4-3.7c0-0.3,0-0.6-0.1-0.9c0-0.3-0.1-0.6-0.1-0.9
		c-0.1-0.6-0.2-1.2-0.4-1.8c-0.6-2.3-1.4-4.4-2.4-6.4c-1.9-3.9-4-7-5.7-9.6c-0.9-1.3-1.7-2.4-2.4-3.4c-0.7-1-1.3-1.8-1.9-2.4
		c-1-1.3-1.6-2-1.6-2s0.6,0.7,1.7,1.9c0.5,0.6,1.2,1.4,2,2.4c0.8,0.9,1.6,2,2.6,3.3c1.9,2.5,4.1,5.6,6.1,9.4c1,1.9,1.9,4.1,2.6,6.5
		c0.2,0.6,0.3,1.2,0.4,1.8c0.1,0.3,0.1,0.6,0.2,1c0,0.3,0.1,0.7,0.1,1c0.1,1.3,0,2.7-0.4,4.1c-0.4,1.4-1.1,2.7-2.1,3.7
		c-1,1.1-2.3,1.9-3.7,2.5c-1.4,0.6-2.9,0.9-4.5,1c-1.5,0.1-3.1,0-4.7-0.4l-0.3-0.1l-0.1,0c0,0-0.1,0-0.1,0l-0.1,0
		c-0.1,0-0.3-0.1-0.4-0.1c-0.3,0-0.6,0-1,0c-0.7,0.1-1.4,0.3-2.1,0.5c-1.4,0.5-2.8,1.2-4.2,1.9c-2.8,1.5-5.6,3.1-8.5,4.7
		c-5.8,3.3-11.7,6.8-18.2,9.7c-1.6,0.7-3.2,1.4-4.9,2l-1.2,0.5c-0.4,0.2-0.9,0.3-1.3,0.4c-0.9,0.2-1.7,0.5-2.6,0.7
		c-3.6,0.8-7.2,1-10.9,0.7c-3.6-0.3-7.2-1.2-10.6-2.3c-3.4-1.1-6.7-2.4-9.9-3.8c-3.2-1.4-6.3-2.9-9.5-4.3c-1.6-0.7-3.1-1.4-4.6-2.1
		c-0.8-0.3-1.6-0.7-2.3-1c-0.7-0.3-1.5-0.6-2.3-0.8c-3.1-1-6.3-1.3-9.4-1.2c-3.1,0.1-6.2,0.7-9.3,1.1c-1.5,0.2-3.1,0.3-4.7-0.1
		c-1.6-0.3-3-1.3-4-2.5c-0.2-0.3-0.5-0.6-0.7-0.9l-0.3-0.5l-0.3-0.5l-0.2-0.5l-0.2-0.5c-0.1-0.3-0.3-0.7-0.4-1
		c-0.4-1.4-0.6-2.8-0.6-4.2c-0.1-2.7,0.3-5.3,0.8-7.7c0.5-2.4,1.1-4.6,1.7-6.7c1.3-4.2,2.6-7.7,3.8-10.6c1.2-2.9,2.2-5.1,2.9-6.6
		C292.6,470.2,293,469.4,293,469.4z"/>
</g>
<g>
	<path fill="#FFFFFF" d="M274.2,589.4c3.2-0.6,6.4-1.1,9.7-1.7c3.2-0.5,6.4-1.1,9.7-1.6l9.7-1.5c3.2-0.5,6.5-1,9.7-1.4l9.7-1.3
		c3.2-0.4,6.5-0.8,9.7-1.2c3.2-0.4,6.5-0.7,9.8-0.9c3.3-0.2,6.5-0.5,9.9-0.2c0.9,0,1.6,0.2,2.5,0.4c0.8,0.1,1.6,0.3,2.4,0.3
		c1.6,0.2,3.1,0.1,4.7-0.1c1.6-0.2,3.1-0.7,4.7-1.1c0.8-0.2,1.6-0.4,2.4-0.5c0.8-0.2,1.6-0.3,2.4-0.5c3.2-0.6,6.5-0.9,9.7-1.3
		c3.3-0.3,6.5-0.6,9.8-0.7c1.6-0.1,3.3-0.2,4.9-0.2c1.6-0.1,3.3-0.1,4.9-0.1c3.3-0.1,6.5-0.1,9.8,0c3.3,0.1,6.5,0.2,9.8,0.4
		c1.6,0.1,3.3,0.3,4.9,0.4c1.6,0.2,3.3,0.4,4.9,0.5l1.7,0.2l-1.5,0.8c-3,1.6-6,3-9,4.3c-3.1,1.3-6.2,2.5-9.3,3.6
		c-3.1,1.1-6.3,2.1-9.5,3.1c-1.6,0.5-3.2,0.9-4.8,1.4l-4.8,1.2l-4.9,1.1l-4.9,1c-3.3,0.6-6.5,1.2-9.8,1.7c-1.6,0.3-3.3,0.5-4.9,0.7
		c-1.7,0.2-3.3,0.4-5,0.6c-1.7,0.2-3.3,0.3-5,0.5l-5,0.3c-1.7,0.1-3.3,0.2-5,0.2c-1.7,0.1-3.3,0.1-5,0.2l-5,0.1l-5-0.1
		c-1.7,0-3.3-0.1-5-0.2l-5-0.3l-5-0.4l-2.5-0.2l-2.5-0.3l-5-0.5c-1.6-0.2-3.3-0.5-4.9-0.7c-3.3-0.4-6.6-1-9.8-1.6
		c-3.3-0.5-6.5-1.3-9.8-2c-3.2-0.7-6.4-1.6-9.7-2.3l-0.5-0.1L274.2,589.4z M274.8,589.5c3,0.6,6.1,1.2,9.1,1.8l4.9,0.8
		c1.6,0.3,3.3,0.6,4.9,0.8c3.3,0.5,6.5,1,9.8,1.3c1.6,0.2,3.3,0.4,4.9,0.5l4.9,0.4l2.5,0.2l2.5,0.1l4.9,0.3l4.9,0.2
		c1.6,0.1,3.3,0.1,4.9,0.1l4.9,0l4.9-0.1c1.6,0,3.3-0.1,4.9-0.2c1.6-0.1,3.3-0.1,4.9-0.3l4.9-0.4c1.6-0.1,3.3-0.3,4.9-0.5
		c1.6-0.1,3.3-0.4,4.9-0.6c1.6-0.2,3.3-0.4,4.9-0.6c3.3-0.4,6.5-1,9.8-1.6l4.9-0.9l4.8-1.1l4.8-1.2l4.8-1.3c3.2-0.9,6.3-1.8,9.5-2.9
		c3.1-1,6.2-2.1,9.3-3.4c3.1-1.2,6.1-2.5,9-4l0.2,1c-1.6-0.2-3.2-0.5-4.8-0.6c-1.6-0.2-3.2-0.4-4.9-0.5c-3.2-0.3-6.5-0.5-9.8-0.6
		c-3.3-0.1-6.5-0.1-9.8-0.1c-1.6,0-3.3,0.1-4.9,0.1c-1.6,0.1-3.3,0.2-4.9,0.3c-3.3,0.2-6.5,0.5-9.7,0.9c-3.2,0.4-6.5,0.9-9.6,1.5
		c-0.8,0.1-1.6,0.3-2.4,0.5c-0.8,0.2-1.6,0.4-2.4,0.6c-1.6,0.4-3.1,1-4.8,1.3c-1.7,0.3-3.4,0.4-5.1,0.3c-0.8-0.1-1.7-0.2-2.5-0.3
		c-0.8-0.1-1.6-0.3-2.4-0.3c-3.1-0.2-6.4,0.1-9.6,0.3l-9.7,0.9c-3.2,0.3-6.5,0.7-9.7,1.1l-9.7,1.2L274.8,589.5z"/>
</g>
<path fill="none" stroke="#FFFFFF" stroke-width="2" stroke-miterlimit="10" d="M84.3,537c0,0,57.7,117.4,156.5,156.7
	s152.5,31.1,185.9-0.8c2.8-2.7,14.3-11.8,28.9-27.8"/>
<g>
	<path fill="#FFFFFF" d="M236,372.3c0,0,0,0.2,0,0.5c0,0.3-0.1,0.8-0.2,1.4c-0.2,0.6-0.4,1.3-0.9,2.1c-0.5,0.8-1.1,1.5-2,2.2
		c-0.9,0.7-2,1.2-3.3,1.4c-0.3,0.1-0.6,0.1-1,0.1c-0.3,0-0.6,0-1,0c-0.7,0-1.4-0.2-2.1-0.5c-0.7-0.3-1.3-0.6-2-1.1
		c-0.6-0.5-1.1-1-1.6-1.7c-0.9-1.3-1.4-2.9-1.5-4.5c0-0.5,0-0.7,0.1-1.2c0.1-0.4,0.2-0.8,0.3-1.2c0.3-0.8,0.6-1.5,1.1-2.1
		c0.5-0.6,1-1.2,1.6-1.7c0.6-0.5,1.3-0.8,2-1.1c1.4-0.5,2.9-0.6,4.1-0.4c1.3,0.2,2.4,0.8,3.3,1.4c0.9,0.7,1.5,1.4,2,2.2
		c0.5,0.8,0.7,1.5,0.9,2.1c0.2,0.6,0.2,1.1,0.2,1.4C236,372.1,236,372.3,236,372.3z M236,372.3c0,0,0-0.2,0-0.5
		c0-0.3-0.1-0.8-0.3-1.4c-0.2-0.6-0.4-1.3-1-2c-0.5-0.7-1.2-1.4-2.1-1.9c-0.9-0.5-2-0.9-3.1-0.9c-1.2,0-2.4,0.2-3.5,0.8
		c-1.1,0.6-2,1.4-2.6,2.5c-0.3,0.5-0.6,1.1-0.7,1.7c-0.1,0.3-0.2,0.6-0.2,0.9c-0.1,0.2,0,0.7-0.1,1c0,0.6,0.1,1.2,0.2,1.8
		c0.2,0.6,0.4,1.2,0.7,1.7c0.6,1,1.6,1.9,2.6,2.5c0.5,0.3,1.1,0.5,1.7,0.6c0.3,0.1,0.6,0.1,0.9,0.1c0.3,0,0.6,0,0.9,0
		c1.2,0,2.3-0.4,3.2-0.9c0.9-0.5,1.6-1.2,2.1-1.9c0.5-0.7,0.8-1.4,1-2c0.2-0.6,0.2-1.1,0.3-1.4C236,372.5,236,372.3,236,372.3z"/>
</g>
<g>
	<path fill="#FFFFFF" d="M426.6,360c0,0,0,0.2,0,0.5c0,0.3-0.1,0.8-0.2,1.4c-0.2,0.6-0.4,1.3-0.9,2.1c-0.5,0.8-1.1,1.5-2,2.2
		c-0.9,0.7-2,1.2-3.3,1.4c-0.3,0.1-0.6,0.1-1,0.1c-0.3,0-0.6,0-1,0c-0.7,0-1.4-0.2-2.1-0.5c-0.7-0.3-1.3-0.6-2-1.1
		c-0.6-0.5-1.1-1-1.6-1.7c-0.9-1.3-1.4-2.9-1.5-4.6c0-0.6,0.1-1.6,0.4-2.3c0.3-0.8,0.6-1.5,1.1-2.1c0.5-0.6,1-1.2,1.6-1.7
		c0.6-0.5,1.3-0.8,2-1.1c1.4-0.5,2.9-0.6,4.1-0.4c1.3,0.2,2.4,0.8,3.3,1.4c0.9,0.7,1.5,1.4,2,2.2c0.5,0.8,0.7,1.5,0.9,2.1
		c0.2,0.6,0.2,1.1,0.2,1.4C426.6,359.8,426.6,360,426.6,360z M426.6,360c0,0,0-0.2,0-0.5c0-0.3-0.1-0.8-0.3-1.4
		c-0.2-0.6-0.4-1.3-1-2c-0.5-0.7-1.2-1.4-2.1-1.9c-0.9-0.5-2-0.9-3.1-0.9c-1.2,0-2.4,0.2-3.5,0.8c-1.1,0.6-2,1.4-2.6,2.5
		c-0.3,0.5-0.6,1.1-0.7,1.7c-0.2,0.6-0.2,1.1-0.2,1.9c0,0.5,0.1,1.2,0.2,1.8c0.2,0.6,0.4,1.2,0.7,1.7c0.6,1,1.6,1.9,2.6,2.5
		c0.5,0.3,1.1,0.5,1.7,0.6c0.3,0.1,0.6,0.1,0.9,0.1c0.3,0,0.6,0,0.9,0c1.2,0,2.3-0.4,3.2-0.9c0.9-0.5,1.6-1.2,2.1-1.9
		c0.5-0.7,0.8-1.4,1-2c0.2-0.6,0.2-1.1,0.3-1.4C426.6,360.2,426.6,360,426.6,360z"/>
</g>
<path fill="none" stroke="#FFFFFF" stroke-width="1.5" stroke-miterlimit="10" d="M389.7,370c0,0,22.1-41.4,70.4-5
	C460.2,365,431.9,386.6,389.7,370z"/>
<path fill="none" stroke="#FFFFFF" stroke-width="1.5" stroke-miterlimit="10" d="M202.6,376.3c0,0,34.2-32.5,67.3,1.7
	C269.9,377.9,232.3,399.7,202.6,376.3z"/>
<path fill="none" stroke="#FFFFFF" stroke-width="1.5" stroke-miterlimit="10" d="M396.7,317.4c0,0-8,13.9,1.7,14.2
	c9.7,0.3,21.4,3.8,25.2,0c4.3-4.3,40.5,1.5,45.6-2.8c7.5-6.2,7.6-11,0-14.8c-2.7-1.4-4.7-4.1-12.3-2.9c-4.3,0.7-2-4.3-10.1-1.2
	c-2.6,1-9.4,2.5-10.7,2.8c-4.5,1-14.7-2.2-22.3-0.8C408.4,312.9,399.4,311.6,396.7,317.4z"/>
<path fill="none" stroke="#FFFFFF" stroke-width="1.5" stroke-miterlimit="10" d="M272.5,323.6c-11.1,3.9-43-5.8-49.2-0.2
	c-6.9,6.2-15.3-2.5-20.7,6.9c-4.8,8.3-27.3,6.6-23.1,13.5c4.1,6.9,29.9,13.9,36.8,7.7c6.9-6.2,40.2-4.9,45-7.7
	c4.8-2.8,19.3-1.9,18-6.1C277.9,333.4,278.4,321.5,272.5,323.6z"/>
<g>
	<path fill="#FFFFFF" d="M185,381.7c0,0,1.1-1.2,3.1-3.2c2.1-1.9,5.1-4.7,9-7.6c2-1.4,4.1-3,6.5-4.4c2.4-1.5,5-2.9,7.7-4.3
		c1.4-0.6,2.8-1.3,4.2-1.9c0.7-0.3,1.5-0.6,2.2-0.9c0.8-0.3,1.5-0.5,2.3-0.8c1.5-0.6,3.1-1,4.6-1.5l2.4-0.6c0.8-0.2,1.6-0.4,2.4-0.5
		l2.4-0.4c0.8-0.1,1.6-0.2,2.4-0.3c1.6-0.2,3.3-0.3,4.9-0.3c1.6-0.1,3.2,0,4.8,0.1c1.6,0.1,3.1,0.3,4.7,0.5c1.5,0.3,3,0.5,4.4,0.9
		c1.4,0.4,2.8,0.8,4.2,1.2c1.3,0.5,2.6,1,3.8,1.4c1.2,0.6,2.3,1.1,3.5,1.6c0.3,0.1,0.5,0.3,0.8,0.4c0.3,0.2,0.5,0.3,0.8,0.4
		c0.5,0.3,1,0.6,1.5,0.9c0.9,0.6,1.9,1.1,2.7,1.7c0.8,0.6,1.6,1.1,2.3,1.6c0.7,0.5,1.3,0.9,1.9,1.4c2.2,1.8,3.4,2.9,3.4,2.9
		s-1.3-0.9-3.6-2.6c-0.6-0.4-1.2-0.8-2-1.3c-0.7-0.4-1.5-0.9-2.3-1.4c-0.8-0.5-1.8-1-2.8-1.5c-0.5-0.3-1-0.5-1.5-0.8
		c-0.3-0.1-0.5-0.3-0.8-0.4c-0.3-0.1-0.5-0.2-0.8-0.3c-1.1-0.5-2.3-0.9-3.5-1.4c-1.2-0.4-2.5-0.8-3.8-1.3c-1.3-0.4-2.7-0.7-4.1-1
		c-1.4-0.3-2.9-0.5-4.3-0.8c-1.5-0.1-3-0.3-4.5-0.4c-0.8,0-1.5,0-2.3,0c-0.8,0-1.6,0-2.3,0c-1.6,0.1-3.1,0.1-4.7,0.4
		c-0.8,0.1-1.6,0.2-2.4,0.3l-2.3,0.4c-0.8,0.1-1.6,0.3-2.3,0.5l-2.3,0.6c-1.5,0.5-3.1,0.8-4.5,1.4c-3,1-5.9,2.2-8.6,3.4
		c-2.7,1.3-5.3,2.6-7.7,4c-2.4,1.4-4.6,2.8-6.6,4.1c-2,1.4-3.8,2.6-5.4,3.8c-1.6,1.2-2.9,2.2-4,3.1c-1.1,0.9-1.9,1.6-2.5,2.1
		C185.3,381.5,185,381.7,185,381.7z"/>
</g>
<g>
	<path fill="#FFFFFF" d="M385.6,368.8c0,0,0.1-0.4,0.4-1.1c0.3-0.7,0.7-1.7,1.4-2.9c0.7-1.2,1.6-2.7,2.7-4.2
		c1.2-1.6,2.5-3.3,4.3-4.9c1.7-1.6,3.7-3.3,6.1-4.8c2.4-1.4,5-2.8,7.8-3.7c2.9-0.9,5.9-1.7,9.1-2c1.6-0.2,3.2-0.2,4.8-0.3
		c1.6,0,3.2,0.1,4.8,0.2c3.2,0.3,6.4,0.9,9.4,1.6c1.5,0.4,3,0.7,4.5,1.3c1.5,0.5,2.9,1,4.3,1.5c1.4,0.6,2.7,1.1,4.1,1.6
		c1.3,0.5,2.6,1.2,3.8,1.8c2.5,1.1,4.7,2.4,6.8,3.5c2.1,1.1,3.9,2.3,5.6,3.3c1.7,1,3,2,4.2,2.7c2.3,1.6,3.6,2.5,3.6,2.5
		s-1.4-0.8-3.8-2.2c-1.2-0.7-2.6-1.6-4.3-2.4c-0.8-0.4-1.8-0.9-2.7-1.4c-0.9-0.5-1.9-1.1-3-1.5c-2.1-1-4.4-2.2-6.9-3.2
		c-1.2-0.5-2.5-1.1-3.8-1.6c-1.3-0.5-2.7-1-4-1.5c-1.4-0.5-2.8-0.9-4.3-1.3c-0.7-0.2-1.4-0.4-2.2-0.6c-0.7-0.2-1.5-0.4-2.2-0.6
		l-1.1-0.3l-1.1-0.2c-0.8-0.1-1.5-0.3-2.3-0.4c-0.8-0.2-1.5-0.2-2.3-0.3l-2.3-0.3c-1.5-0.1-3.1-0.2-4.6-0.2c-1.5,0.1-3.1,0-4.6,0.2
		c-3,0.2-6,0.9-8.7,1.7c-2.8,0.9-5.3,2.1-7.6,3.4c-2.3,1.3-4.3,2.8-6.1,4.4c-1.8,1.5-3.2,3.1-4.5,4.5c-1.3,1.4-2.2,2.8-3,3.9
		C386.3,367.4,385.6,368.8,385.6,368.8z"/>
</g>
<g>
	<path fill="#FFFFFF" d="M404.9,354.9c0,0-0.2,1-0.4,2.8c-0.1,0.9-0.1,1.9,0,3.2c0.1,1.2,0.3,2.6,0.7,4c0.4,1.4,1.1,2.8,2.2,4.1
		c1,1.3,2.4,2.3,4,3.1c1.6,0.8,3.4,1.3,5.3,1.6c0.9,0.2,1.9,0.3,2.9,0.4c1,0,2,0.1,2.9,0c1.8-0.1,3.6-0.8,5.2-1.8
		c1.6-1,2.9-2.3,4-3.8c2.2-2.9,3.4-6.2,3.6-9.1c0.1-1.5-0.1-2.8-0.4-3.9c-0.4-1.1-0.9-2-1.5-2.7c-0.6-0.7-1.1-1.1-1.5-1.4
		c-0.4-0.3-0.6-0.4-0.6-0.4s0.2,0.1,0.7,0.3c0.4,0.2,1,0.6,1.7,1.2c0.7,0.6,1.4,1.5,1.9,2.7c0.5,1.2,0.8,2.6,0.9,4.2
		c0,3.2-1.1,6.9-3.3,10.1c-1.2,1.6-2.6,3.2-4.4,4.4c-1.8,1.2-3.9,2-6.1,2.2c-1.1,0.1-2.1,0-3.2-0.1c-1-0.1-2.1-0.2-3.1-0.4
		c-2-0.4-4-1-5.8-2c-1.8-0.9-3.3-2.3-4.4-3.8c-1.1-1.5-1.7-3.2-2.1-4.7c-0.4-1.5-0.4-3-0.4-4.3c0-1.3,0.2-2.3,0.4-3.2
		C404.5,355.8,404.9,354.9,404.9,354.9z"/>
</g>
<g>
	<path fill="#FFFFFF" d="M242,362.7c0,0,0.5,0.8,1,2.4c0.6,1.5,1.3,3.8,1.5,6.7c0.1,1.4,0.1,3-0.3,4.7c-0.4,1.6-1.1,3.3-2.2,4.8
		c-1.1,1.5-2.7,2.8-4.4,3.7c-1.7,0.9-3.6,1.5-5.5,1.9l-0.4,0.1l-0.2,0l-0.2,0l-0.7,0.1c-0.5,0-0.9,0.1-1.4,0.1l-1.5,0
		c-0.5,0-1-0.1-1.5-0.2c-1.9-0.3-3.7-1-5.3-1.9c-1.6-0.8-3-2-4.2-3.1c-0.6-0.6-1.1-1.2-1.6-1.8c-0.2-0.3-0.4-0.6-0.7-0.9
		c-0.2-0.3-0.4-0.7-0.5-1c-0.7-1.3-1.1-2.6-1.3-3.7c-0.2-1.2-0.2-2.2-0.1-3c0-0.8,0.3-1.4,0.4-1.9c0.1-0.4,0.2-0.6,0.2-0.6
		s0,0.2-0.1,0.7c-0.1,0.4-0.2,1.1-0.1,1.9c0,0.8,0.2,1.8,0.4,2.8c0.3,1,0.8,2.2,1.6,3.3c0.2,0.3,0.4,0.6,0.6,0.8
		c0.2,0.3,0.5,0.5,0.7,0.8c0.4,0.6,1,1.1,1.6,1.6c1.2,1,2.5,1.9,4,2.7c0.7,0.4,1.5,0.7,2.3,1c0.4,0.1,0.8,0.2,1.2,0.3l0.6,0.2
		c0.2,0,0.4,0.1,0.6,0.1c0.4,0.1,0.9,0.1,1.3,0.2l1.2,0c0.4,0,0.9-0.1,1.3-0.1l0.7-0.1l0.2,0c-0.1,0,0,0,0,0l0,0l0,0l0.1,0l0.3-0.1
		c1.8-0.3,3.5-0.9,5-1.7c1.5-0.8,2.9-1.8,3.9-3.1c1-1.3,1.7-2.7,2.1-4.1c0.4-1.5,0.6-2.9,0.6-4.3c0.1-2.7-0.4-5-0.7-6.6
		C242.3,363.5,242,362.7,242,362.7z"/>
</g>
<g>
	<path fill="#FFFFFF" d="M63.7,411.7c0,0-1.2-1.1-3.4-2.8c-2.2-1.8-5.4-4.2-9.4-6.9c-2-1.3-4.3-2.7-6.7-3.9
		c-2.4-1.3-5.1-2.4-7.9-3.3c-2.8-0.8-5.9-1.3-8.8-0.8c-2.9,0.5-5.6,2.2-7.3,4.6c-0.9,1.2-1.7,2.6-2.3,4c-0.6,1.4-1.1,2.9-1.5,4.4
		c-0.7,3-1.2,6.1-1.4,9c-0.2,3-0.3,5.9-0.3,8.6c0,2.8,0.1,5.4,0.2,7.8c0.1,2.4,0.3,4.6,0.4,6.6c0.1,2,0.3,3.7,0.4,5.1
		c0.3,2.8,0.4,4.4,0.4,4.4s-0.3-1.6-0.8-4.4c-0.2-1.4-0.5-3.1-0.8-5c-0.1-1-0.3-2-0.4-3.1c-0.1-1.1-0.3-2.3-0.4-3.5
		c-0.1-1.2-0.2-2.5-0.3-3.8c-0.1-1.3-0.2-2.7-0.2-4.1c-0.1-2.8-0.1-5.7,0.1-8.8c0.2-3.1,0.5-6.2,1.3-9.4c0.4-1.6,0.9-3.2,1.5-4.7
		c0.6-1.5,1.4-3.1,2.5-4.4c1-1.4,2.3-2.6,3.8-3.5c1.5-0.9,3.1-1.5,4.8-1.8c3.4-0.6,6.7,0.1,9.6,1c3,0.9,5.7,2.3,8.1,3.6
		c2.4,1.4,4.6,2.9,6.6,4.3c3.9,2.9,6.9,5.6,9,7.5C62.6,410.5,63.7,411.7,63.7,411.7z"/>
</g>
<g>
	<path fill="#FFFFFF" d="M54.8,455.7c0,0,0.4-1.8,1.3-4.9c0.5-1.6,1-3.4,1.8-5.6c0.8-2.1,1.7-4.5,3.1-7c0.7-1.2,1.5-2.5,2.6-3.6
		c0.6-0.6,1.2-1.1,1.9-1.5c0.7-0.4,1.7-0.7,2.7-0.5c0.5,0,0.9,0.2,1.4,0.4c0.4,0.2,0.8,0.5,1.2,0.8l0.5,0.5l0.1,0.1c0,0,0,0,0.1,0.1
		l0.1,0.1l0.2,0.2c0.3,0.3,0.5,0.6,0.8,1c1.1,1.5,1.7,3.2,2,5.1c0.6,3.6,0.1,7.3-0.8,10.9c-0.8,3.6-2.1,7.1-3.1,10.6
		c-0.2,0.9-0.5,1.7-0.6,2.6c-0.1,0.4-0.1,0.8-0.1,1.2c0,0.2,0,0.4,0,0.5l0,0.2l0,0.1c0,0,0,0,0,0.1l0,0l0,0.2
		c0.5,1.9,0.6,3.8,0.8,5.6c0.4,3.6,0.6,7.1,1.7,10.3c0.5,1.5,1.4,2.9,2.4,3.9c0.5,0.5,1.2,0.9,1.8,1.2c0.4,0.2,0.7,0.3,1.1,0.5
		c0.4,0.2,0.8,0.5,1.1,0.7c1.4,1,2.4,2.5,2.9,4c0.5,1.6,0.5,3.2,0.1,4.6c-0.4,1.4-1.3,2.8-2.8,3.3c-1.4,0.5-2.8,0-3.8-0.7
		c-1-0.8-1.5-1.8-1.9-2.7c-0.4-0.9-0.8-1.7-1.2-2.3c-0.9-1.3-2.1-1.9-2.9-2.1c-0.4-0.2-0.7-0.2-0.9-0.3c-0.2-0.1-0.3-0.1-0.3-0.1
		s0.1,0,0.3,0.1c0.2,0,0.6,0.1,1,0.2c0.8,0.2,2.1,0.7,3.2,2c0.5,0.6,1,1.5,1.4,2.3c0.5,0.8,1,1.8,1.8,2.3c0.9,0.6,2,0.9,3,0.4
		c1-0.4,1.7-1.5,2-2.7c0.6-2.5-0.4-5.5-2.7-7.1c-0.3-0.2-0.6-0.4-0.9-0.5c-0.3-0.2-0.7-0.3-1.1-0.5c-0.8-0.3-1.6-0.8-2.3-1.4
		c-1.4-1.2-2.3-2.9-3-4.5c-1.3-3.4-1.7-7.1-2-10.7c-0.2-1.8-0.3-3.6-0.8-5.2l0-0.2l0-0.1l0-0.1l-0.1-0.5c0-0.3,0-0.6,0-0.8
		c0-0.5,0.1-1,0.2-1.5c0.2-1,0.4-1.9,0.7-2.8c1.1-3.6,2.3-7,3.1-10.5c0.8-3.5,1.4-7,0.9-10.2c-0.2-1.6-0.8-3.1-1.6-4.4
		c-0.2-0.3-0.4-0.6-0.7-0.9l-0.2-0.2l0-0.1c0,0,0,0,0,0l-0.1-0.1l-0.4-0.4c-0.3-0.3-0.6-0.4-0.8-0.6c-0.3-0.1-0.6-0.3-0.9-0.3
		c-0.6-0.1-1.2,0-1.8,0.3c-0.6,0.3-1.1,0.7-1.6,1.2c-1,1-1.8,2.1-2.5,3.3c-1.4,2.3-2.5,4.6-3.4,6.6c-0.9,2.1-1.6,3.9-2.1,5.4
		C55.3,453.9,54.8,455.7,54.8,455.7z"/>
</g>
<g>
	<path fill="#FFFFFF" d="M28,373.5c0,0,1.1,0.1,3.1,0.6c2,0.6,4.9,1.5,8.5,3.3c3.5,1.8,7.7,4.4,12.2,8.1c4.4,3.8,9,8.6,13.4,14.6
		c2,3.1,4.4,6.3,6.3,9.9c0.5,0.9,1,1.8,1.5,2.7c0.3,0.5,0.5,0.9,0.8,1.4c0.3,0.5,0.5,1,0.7,1.4c0.9,1.9,1.9,3.9,2.8,6
		c0.2,0.5,0.5,1,0.7,1.5c0.2,0.5,0.4,1.1,0.6,1.6c0.4,1.1,0.8,2.1,1.3,3.2c0.4,1.1,0.9,2.2,1.3,3.3c0.2,0.6,0.4,1.1,0.7,1.7
		c0.2,0.5,0.4,1.2,0.8,1.3c0.2,0.2,0.7-0.4,0.9-0.9c0.3-0.5,0.5-1.1,0.7-1.7c0.4-1.2,0.7-2.3,1-3.6c0.6-2.4,1.1-4.9,1.5-7.5
		c1.7-10.2,3-21.1,4.2-32.7c1.2-11.6,2.2-23.7,3.1-36.4c0.8-12.7,1.5-26,1.6-39.7c0-3.4,0-6.9-0.2-10.4c-0.2-3.5-0.4-7-1.1-10.4
		c-0.2-0.8-0.4-1.7-0.8-2.4l-0.6-1.2c-0.2-0.4-0.3-0.9-0.5-1.3c-0.3-0.9-0.5-1.8-0.8-2.6c-0.2-0.9-0.4-1.8-0.6-2.7
		c-0.7-3.6-1.2-7.2-1.6-10.8c-0.8-7.3-1.2-14.7-1.4-22.2c-0.1-7.5,0-15.1,0.5-22.8c0.3-3.8,0.6-7.7,1.2-11.6
		c0.5-3.9,1.2-7.7,2.2-11.6c1-3.8,2.3-7.7,4.8-11.1l0.5-0.6l0.6-0.6l0.6-0.6l0.3-0.3l0.2-0.2l1.1-1l0.9-1.1c1.2-1.5,2.3-3.1,3.3-4.8
		c4-6.8,7.1-14.2,10.8-21.5c1.9-3.6,3.9-7.2,6.3-10.6c2.4-3.3,5.2-6.5,8.8-8.9c1.7-1.2,3.7-2.1,5.7-2.9c2.1-0.6,4.2-1.1,6.3-1.1
		c2.1-0.1,4.3,0.2,6.4,0.6c2.1,0.4,4,0.9,6.1,1.3c8.1,1.9,16.2,4,24.3,6c16.2,4.1,32.6,8,49.4,9.5c16.8,1.7,33.7-0.6,50.3-3.9
		c8.3-1.7,16.5-3.8,24.5-6.4c4-1.3,8-2.8,11.9-4.4c3.9-1.6,7.7-3.4,11.4-5.5c7.3-4,14.3-9,19.4-15.5c0.7-0.8,1.2-1.7,1.8-2.5
		c0.6-0.8,1-1.8,1.6-2.6c0.5-0.9,0.9-1.8,1.3-2.8l1.3-2.9c1.8-3.9,3.8-7.6,6.1-11.2c4.6-7.1,10.5-13.5,17.8-17.8
		c3.7-2.1,7.7-3.7,12-4.2c2.1-0.2,4.3-0.2,6.4,0.3c0.5,0.1,1.1,0.3,1.6,0.4c0.5,0.2,1,0.3,1.5,0.6l0.7,0.3l0.4,0.2l0.3,0.2l1.4,0.7
		c3.6,2,7.1,4.2,10.4,6.6c3.3,2.4,6.5,4.9,9.6,7.6c6.2,5.3,11.9,11,17.3,16.9c10.8,11.8,20.3,24.4,28.5,37.4
		c8.2,13,15.1,26.5,20.3,40.2c2.6,6.8,4.7,13.8,6.3,20.7c0.9,3.4,1.7,6.9,2.4,10.3c0.8,3.4,1.5,6.8,2.2,10.2
		c2.7,13.5,4.8,26.6,6.4,39.3c0.4,3.2,0.8,6.3,1.1,9.4c0.2,1.6,0.3,3.1,0.5,4.6c0.1,1.5,0.3,3.1,0.4,4.6c0.3,3,0.4,6.1,0.6,9
		c0.1,3,0.3,5.9,0.3,8.8c0.1,2.9,0.1,5.8,0,8.6c-0.1,1.4-0.1,2.8-0.2,4.2c-0.1,0.7-0.1,1.4-0.2,2.1c-0.1,0.6-0.1,1.4-0.1,2
		c0.1,2.6,0.7,5.3,1.3,7.9c0.6,2.6,1.4,5.1,2.1,7.6c3,9.9,6.1,19.1,8.6,27.7c2.6,8.6,4.7,16.6,6.2,23.8c1.6,7.3,2.7,13.8,3.4,19.6
		c0.7,5.7,0.9,10.7,1,14.6c0,2,0,3.8,0,5.3c0,1.5-0.1,2.8-0.2,3.8c-0.2,2.1-0.2,3.1-0.2,3.1s0.1-1.1,0.2-3.1c0.1-1,0.1-2.3,0.2-3.8
		c0.1-1.5,0-3.3,0-5.3c-0.1-4-0.4-8.9-1.1-14.6c-0.7-5.7-1.9-12.3-3.5-19.5c-1.6-7.3-3.8-15.2-6.4-23.8c-2.6-8.6-5.7-17.7-8.8-27.6
		c-0.7-2.5-1.5-5-2.2-7.6c-0.6-2.6-1.3-5.3-1.4-8.1c0-0.7,0-1.4,0.1-2.1c0.1-0.7,0.1-1.4,0.2-2.1c0.1-1.4,0.1-2.8,0.2-4.2
		c0.1-2.8,0.1-5.7,0-8.6c0-2.9-0.2-5.8-0.4-8.8c-0.2-3-0.4-6-0.7-9c-0.1-1.5-0.3-3-0.4-4.6c-0.2-1.5-0.3-3.1-0.5-4.6
		c-0.3-3.1-0.7-6.2-1.1-9.4c-1.6-12.6-3.8-25.7-6.5-39.2c-0.7-3.4-1.4-6.8-2.2-10.1c-0.8-3.4-1.6-6.8-2.5-10.3
		c-1.6-6.9-3.7-13.8-6.3-20.6c-5.2-13.6-12.2-26.9-20.4-39.8c-8.2-12.9-17.6-25.4-28.4-37.1c-5.4-5.9-11.1-11.5-17.2-16.7
		c-3-2.6-6.2-5.1-9.5-7.5c-3.3-2.4-6.7-4.5-10.3-6.5l-1.4-0.7l-0.3-0.2l-0.3-0.1l-0.7-0.3c-0.4-0.2-0.9-0.3-1.4-0.5
		c-0.5-0.1-0.9-0.3-1.4-0.4c-1.9-0.4-3.9-0.5-5.9-0.2c-3.9,0.4-7.8,1.9-11.2,4c-7,4.1-12.7,10.4-17.2,17.3
		c-2.2,3.5-4.2,7.1-5.9,10.9l-1.2,2.9c-0.5,1-0.9,2-1.4,2.9c-0.6,0.9-1.1,1.9-1.7,2.8c-0.6,0.9-1.2,1.8-1.9,2.6
		c-5.4,6.8-12.5,11.9-19.9,16c-3.7,2.1-7.6,3.9-11.5,5.6c-3.9,1.6-7.9,3.1-12,4.5c-8.1,2.7-16.4,4.8-24.7,6.5
		c-8.4,1.7-16.8,3-25.3,3.8c-1.1,0.1-2.1,0.2-3.2,0.3c-1.1,0.1-2.1,0.1-3.2,0.2c-2.1,0.1-4.3,0.2-6.4,0.2c-2.1,0-4.3,0-6.4-0.2
		c-2.1-0.1-4.3-0.2-6.4-0.4c-17-1.6-33.5-5.5-49.7-9.6c-8.1-2.1-16.2-4.2-24.2-6.1c-2-0.4-4.1-0.9-6-1.3c-2-0.4-4-0.6-5.9-0.5
		c-2,0-3.9,0.4-5.8,1c-1.8,0.7-3.6,1.5-5.3,2.6c-3.3,2.2-6,5.3-8.3,8.5c-2.3,3.3-4.3,6.8-6.2,10.4c-3.7,7.1-6.7,14.6-10.9,21.6
		c-1,1.7-2.2,3.4-3.5,5l-1,1.2l-1.1,1l-0.3,0.3l-0.2,0.2l-0.5,0.5l-0.5,0.5l-0.4,0.6c-2.2,3-3.5,6.8-4.5,10.5
		c-1,3.7-1.7,7.5-2.2,11.4c-0.6,3.8-0.9,7.6-1.2,11.4c-0.6,7.6-0.7,15.2-0.6,22.7c0.1,7.5,0.5,14.9,1.3,22.1
		c0.4,3.6,0.9,7.2,1.6,10.7c0.2,0.9,0.4,1.7,0.6,2.6c0.2,0.8,0.4,1.7,0.7,2.5c0.2,0.4,0.2,0.8,0.4,1.2l0.6,1.2
		c0.5,0.9,0.7,1.8,0.9,2.7c0.7,3.6,0.9,7.1,1.1,10.6c0.1,3.5,0.2,7,0.1,10.4c-0.1,13.8-0.9,27-1.7,39.8c-0.9,12.7-2,24.9-3.2,36.5
		c-1.3,11.6-2.7,22.5-4.5,32.7c-0.5,2.6-1,5.1-1.6,7.5c-0.3,1.2-0.6,2.4-1,3.6c-0.2,0.6-0.4,1.2-0.7,1.7c-0.1,0.3-0.3,0.6-0.6,0.8
		c-0.1,0.1-0.3,0.3-0.5,0.3c-0.2,0.1-0.5,0.1-0.7,0c-0.7-0.5-0.8-1.1-1.1-1.7c-0.2-0.6-0.4-1.1-0.6-1.7c-0.4-1.1-0.9-2.2-1.3-3.3
		c-0.4-1.1-0.8-2.2-1.3-3.2c-0.2-0.5-0.4-1.1-0.6-1.6c-0.2-0.5-0.5-1-0.7-1.5c-1-2-1.9-4-2.8-6c-0.2-0.5-0.4-1-0.7-1.4
		c-0.3-0.5-0.5-0.9-0.8-1.4c-0.5-0.9-1-1.8-1.5-2.7c-1.9-3.6-4.2-6.8-6.2-9.9c-4.4-6-8.9-10.9-13.3-14.7c-4.4-3.7-8.6-6.4-12.1-8.2
		c-3.6-1.8-6.5-2.8-8.4-3.3C29,373.7,28,373.5,28,373.5z"/>
</g>
<g>
	<path fill="#FFFFFF" d="M84.3,533.6c0,0,0.1,0.4,0.1,1.2c0,0.8,0,1.9-0.3,3.3c-0.2,0.7-0.4,1.4-0.7,2.1c-0.4,0.7-0.8,1.5-1.4,2.2
		c-0.6,0.7-1.4,1.3-2.3,1.8c-0.9,0.4-1.8,0.8-2.8,0.9c-1,0.1-1.9,0.2-2.9,0.1c-0.9-0.1-1.8-0.3-2.7-0.5c-0.4-0.1-0.8-0.2-1.2-0.4
		c-0.4-0.1-0.8-0.3-1.1-0.4c-0.7-0.3-1.4-0.6-2-0.9c-0.6-0.3-1.1-0.6-1.6-0.9c-0.5-0.3-0.9-0.6-1.2-0.8c-0.6-0.4-1-0.7-1-0.7
		s0.4,0.1,1.2,0.4c0.4,0.1,0.8,0.3,1.3,0.4c0.5,0.2,1.1,0.3,1.7,0.5c0.6,0.2,1.3,0.4,2,0.5c0.7,0.2,1.5,0.3,2.3,0.5
		c0.8,0.1,1.6,0.2,2.4,0.3c0.8,0,1.6,0,2.4-0.1c0.8-0.1,1.5-0.3,2.2-0.7c0.7-0.4,1.3-0.8,1.9-1.3c1.1-1,1.8-2.3,2.4-3.5
		c0.5-1.2,0.8-2.2,1-3C84.3,534,84.3,533.6,84.3,533.6z"/>
</g>
<g>
	<path fill="#FFFFFF" d="M369.1,345.9c0,0-0.2,1.1-0.4,3c-0.1,1-0.2,2.1-0.4,3.5c-0.1,1.3-0.3,2.9-0.4,4.5c-0.1,1.7-0.2,3.5-0.3,5.4
		c-0.1,1.9-0.1,3.9-0.2,6c0,2.1,0,4.2,0.1,6.4c0.1,2.2,0.1,4.4,0.3,6.6c0.1,1.1,0.2,2.2,0.2,3.3c0.1,1.1,0.2,2.2,0.4,3.3
		c0.1,1.1,0.2,2.2,0.4,3.2c0.2,1.1,0.3,2.1,0.5,3.1c0.2,1,0.3,2,0.5,3c0.2,1,0.4,1.9,0.6,2.9c0.4,1.9,0.7,3.6,1.2,5.2
		c0.4,1.6,0.8,3.1,1.2,4.4c0.4,1.3,0.8,2.4,1.1,3.3c0.6,1.9,0.9,2.9,0.9,2.9s-0.4-1-1.1-2.8c-0.4-0.9-0.8-2-1.3-3.3
		c-0.4-1.3-0.9-2.8-1.4-4.4c-0.5-1.6-0.9-3.4-1.4-5.2c-0.2-0.9-0.5-1.9-0.7-2.9c-0.2-1-0.4-2-0.5-3c-0.2-1-0.4-2.1-0.5-3.1
		c-0.1-1.1-0.3-2.1-0.4-3.2c-0.1-1.1-0.3-2.2-0.4-3.3c-0.1-1.1-0.2-2.2-0.3-3.3c-0.2-2.2-0.2-4.5-0.3-6.7c-0.1-2.2,0-4.4,0-6.4
		c0.1-2.1,0.1-4.1,0.3-6c0.1-1.9,0.3-3.7,0.5-5.4c0.2-1.7,0.4-3.2,0.6-4.5c0.2-1.3,0.4-2.5,0.6-3.5
		C368.8,347,369.1,345.9,369.1,345.9z"/>
</g>
<g>
	<path fill="#FFFFFF" d="M304.9,362.3c0,0,0.4,0.8,0.9,2.2c0.3,0.7,0.6,1.5,1,2.5c0.4,1,0.8,2.1,1.1,3.3c0.4,1.2,0.8,2.6,1.2,4
		c0.4,1.4,0.8,2.9,1.2,4.5c0.3,1.6,0.7,3.2,1,4.9c0.2,0.8,0.3,1.7,0.5,2.5c0.1,0.8,0.3,1.7,0.4,2.5c0.3,1.7,0.4,3.4,0.6,5.1
		c0.2,1.7,0.3,3.3,0.4,4.9c0.1,1.6,0.1,3.2,0.1,4.6c0,0.7,0,1.5,0,2.1c0,0.7-0.1,1.4-0.1,2c-0.1,1.3-0.1,2.5-0.2,3.5
		c-0.1,1-0.2,1.9-0.3,2.7c-0.2,1.5-0.3,2.3-0.3,2.3s0-0.9,0.1-2.4c0-0.7,0.1-1.7,0.1-2.7c0-1,0-2.2,0-3.5c0-0.6,0-1.3,0-2
		c0-0.7-0.1-1.4-0.1-2.1c-0.1-1.5-0.1-3-0.3-4.6c-0.1-1.6-0.2-3.2-0.4-4.9c-0.2-1.7-0.4-3.4-0.7-5c-0.1-0.8-0.2-1.7-0.4-2.5
		c-0.1-0.8-0.3-1.7-0.4-2.5c-0.3-1.7-0.6-3.3-0.9-4.8c-0.4-1.6-0.7-3.1-1-4.5c-0.4-1.4-0.7-2.8-1-4
		C306,365.5,304.9,362.3,304.9,362.3z"/>
</g>
<g>
	<path fill="#FFFFFF" d="M274.2,589.4c0,0,0.6-0.1,1.8-0.2c1.1-0.1,2.8-0.2,5-0.4c2.1-0.2,4.7-0.3,7.7-0.5c3-0.2,6.3-0.3,10-0.5
		c3.7-0.1,7.6-0.3,11.8-0.3c4.2-0.1,8.6,0,13.2,0.1c4.6,0.1,9.3,0.1,14.2,0.1c2.4,0,4.8,0,7.3,0c1.2,0,2.5,0.1,3.7,0.2
		c1.2,0.2,2.4,0.2,3.6,0.2c2.4,0,4.9-0.2,7.3-0.4c2.4-0.2,4.8-0.5,7.2-0.8c2.4-0.3,4.7-0.7,7-1.2c1.1-0.3,2.3-0.5,3.3-0.8
		c1.1-0.3,2.2-0.7,3.3-1c1.1-0.4,2.3-0.6,3.4-0.9c1.1-0.2,2.2-0.4,3.3-0.7c2.2-0.4,4.3-0.7,6.4-1c4.2-0.6,8.1-1,11.8-1.4
		c3.7-0.4,7-0.7,10-1c3-0.3,5.6-0.5,7.7-0.7c2.1-0.2,3.8-0.3,4.9-0.5c0.6-0.1,1-0.1,1.3-0.2c0.3-0.1,0.4-0.1,0.4-0.1l0.1,0.2
		c0,0-0.1,0-0.4,0.1c-0.3,0.1-0.7,0.2-1.3,0.3c-1.1,0.2-2.8,0.5-4.9,0.9c-2.1,0.4-4.7,0.7-7.6,1.1c-3,0.4-6.3,0.9-9.9,1.4
		c-3.6,0.5-7.5,1.1-11.7,1.7c-4.1,0.7-8.5,1.3-12.8,2.5c-1.1,0.3-2.2,0.6-3.4,1c-1.2,0.3-2.3,0.6-3.5,0.8c-2.4,0.5-4.7,0.8-7.1,1.1
		c-4.8,0.5-9.8,0.8-14.7,0.5c-1.2-0.1-2.5-0.2-3.7-0.4c-1.2-0.2-2.4-0.3-3.6-0.4c-2.4-0.1-4.9-0.1-7.3-0.2c-4.8,0-9.6,0.1-14.1,0.4
		c-4.6,0.2-9,0.5-13.2,0.6c-4.2,0.1-8.2,0.2-11.8,0.3c-3.7,0-7,0.1-10,0.1c-3,0-5.6,0-7.7,0c-2.1,0-3.8,0-5-0.1c-1.1,0-1.8,0-1.8,0
		L274.2,589.4z"/>
</g>
<g>
	<path fill="#FFFFFF" d="M71,551.6C71,551.6,71.1,551.6,71,551.6c0,0,0.1,0.1,0.1,0.2c0.1,0.1,0.2,0.2,0.2,0.3
		c0.1,0.2,0.3,0.6,0.4,1c0.3,0.8,0.5,1.9,0.6,3.3c0.4,2.8,0.4,6.8,0.3,11.5c-0.1,9.5-0.2,22.1-0.5,34.7c-0.2,12.6-0.5,25.2-0.9,34.7
		c-0.2,4.7-0.4,8.7-0.6,11.4c-0.1,1.4-0.2,2.5-0.3,3.2c-0.1,0.7-0.2,1.1-0.2,1.1s0.2-0.4,0.2-1.1c0.1-0.7,0.2-1.8,0.3-3.2
		c0.1-2.8,0.3-6.7,0.3-11.4c0.2-9.5,0.2-22.1,0.2-34.7c0-12.6-0.1-25.2-0.2-34.7c0-4.7-0.2-8.6-0.6-11.3c-0.2-1.3-0.4-2.3-0.6-2.9
		c-0.1-0.3-0.2-0.5-0.2-0.6c0,0,0-0.1,0,0c0,0,0.1,0.1,0.1,0.1c0,0,0,0,0,0L71,551.6z"/>
</g>
<g>
	<path fill="#FFFFFF" d="M455.5,666.7c0,0-0.8,1.2-2.1,3.6c-1.3,2.3-3.1,5.7-5,9.9c-1.9,4.2-4,9.1-5.9,14.5
		c-0.9,2.7-1.9,5.5-2.7,8.4c-0.8,2.9-1.6,5.9-2.2,8.9c-0.3,1.5-0.6,3-0.9,4.5c-0.3,1.5-0.5,3-0.8,4.5c-0.4,3-0.8,5.9-1,8.8
		c-0.2,2.9-0.4,5.6-0.4,8.3c0,1.3,0,2.6,0,3.8c0,1.2,0.1,2.4,0.1,3.6c0,1.2,0.1,2.3,0.2,3.3c0.1,1,0.1,2,0.2,3
		c0.2,1.9,0.4,3.5,0.6,4.8c0.4,2.7,0.6,4.2,0.6,4.2s-0.3-1.5-0.7-4.2c-0.2-1.3-0.4-3-0.7-4.8c-0.1-0.9-0.2-1.9-0.3-3
		c-0.1-1-0.2-2.1-0.3-3.3c-0.1-1.2-0.1-2.4-0.2-3.6c0-1.2,0-2.5-0.1-3.9c0-2.6,0.1-5.4,0.3-8.3c0.2-2.9,0.5-5.9,0.9-8.9
		c0.2-1.5,0.4-3,0.7-4.5c0.3-1.5,0.5-3,0.8-4.5c0.6-3,1.3-6,2.1-9c0.8-2.9,1.6-5.8,2.5-8.6c1.8-5.5,3.8-10.5,5.6-14.8
		c1.9-4.2,3.6-7.7,4.9-10.1c1.3-2.4,2.1-3.7,2.1-3.7L455.5,666.7z"/>
</g>
</svg>
