<?xml version="1.0" encoding="utf-8"?>
<!-- Generator: Adobe Illustrator 18.1.1, SVG Export Plug-In . SVG Version: 6.00 Build 0)  -->
<svg version="1.1" id="kvinna" xmlns="http://www.w3.org/2000/svg" xmlns:xlink="http://www.w3.org/1999/xlink" x="0px" y="0px"
	 viewBox="0 0 724.7 768" enable-background="new 0 0 724.7 768" xml:space="preserve">
<path fill="none" stroke="#FFFFFF" stroke-width="2" stroke-miterlimit="10" d="M104,757.2c0.7,0-53.7-115.9-48.2-205
	c3.1-50.2,17-66.2,15.9-73.4c-1.1-7.2-5.4-21.6-4.2-27.6s17.2-16.1,18.4-12.5c1.2,3.6,2.6-45.3-6.7-61.5c-1-1.7,5.3-6.8,6.7-7.6
	c10.2-5.7,39.7-7.4,39.7-7.4l0.1-18.7c0-4.4-3-8.2-7.3-9.2c-13.5-3-42.1-12.9-56.1-45c-11.5-26.4-27.2-26-25.8-41.3
	c1.7-19.1-7.5-88.6,4.8-104.1c11-13.8-22.9-0.9-27.7,2.8c-3.8,2.9,40-45.8,46.3-55.1c3.3-5,14.8-18,33.8-15.5
	c10.6,1.4-9.5-16.6,28.8-34.5c26.6-12.4,93.7-24,89.7-21c-11.2,8.3-24.7,27.2-28.3,27.2s28.5-1.7,50.3,21.5
	c7.1,7.6,21.6,19.4,51.6,73.5c22.8,41.1,43.7,56.5,31.7,94.8s-9.3,51.7-15.3,42.1c0,0,0.5,34.9-15,70.3c-1.6,3.7-5.2,6.2-3,30.2
	c1.1,11.2,47.6,33.6,47.6,34.7s1.1-22.2,30.2-10.8c3.1,1.2,10.2-18.7,32.6-3.1c3.7,2.6,12.3-23.8,39.3,6.8
	c31.2,35.5,40.3,58.1,42.9,64.5c2.8,6.6,11.8,7.9,11.8,7.9c11.9-1.8-20.2-188.2-46.6-189.9c-22.4-1.4-50.7-3.5-65.4-15.5
	c-1.1-0.9-24.4-7.5-33.7-15c-7.5-6-15-14.7-1.2-27.7c7.6-7.2-9.5-18.9-2.6-28.9c11.1-16.1,43.9-31.6,53.3-43.3
	c10.9-13.7,26.1,5.7,29.4,3.8c4.9-3,19.4-1.7,23.9,4.9c3.4,5.1,14.6,12.5,17.9,16.7c3.7,4.8,58.9,69.6,63.4,93.3
	c5,26.5,90.9,157.9,102.8,247.5c12,89.7,7.5,57.8,7.5,57.8s59.5,53.4,66.7,71.4c7.2,17.9,12.9,63.5,4.2,77.7
	c-6.5,10.5-23.7,14.7-37.7,15.5c-11.4,0.7-35.4,10.9-46.6,8.9c-11.2-2-51.9-18.3-61.2-22c-7.8-3.2,0.9,22.2-12.1,13.7
	c-11-7.1-18,10.5-29.4,8.3c-12.9-2.4-14.9-5.4-29-17.2c-6.7-5.6-17.8,27.7-59.1-34.1c-8.6-12.8-12.3,51.4-19.5,51.4
	S104,757.2,104,757.2z"/>
<path fill="none" stroke="#FFFFFF" stroke-width="2" stroke-miterlimit="10" d="M81,374"/>
<path fill="none" stroke="#FFFFFF" stroke-width="2" stroke-miterlimit="10" d="M85.9,438.6c-0.8-2.7,141.7-35,194.6-3.6"/>
<path fill="none" stroke="#FFFFFF" stroke-width="2" stroke-miterlimit="10" d="M264.1,378.9c0,0-20.2,32.2-20.2,44.5"/>
<path fill="none" stroke="#FFFFFF" stroke-width="2" stroke-miterlimit="10" d="M488.7,480c0,0,1.8,22.9,3.4,40.6
	c1.1,11.4,3.5,20.9,8.7,20.9"/>
<path fill="none" stroke="#FFFFFF" stroke-width="2" stroke-miterlimit="10" d="M438.3,496.8c6.8,4.1,38,11.2,53.8,23.7"/>
<line fill="none" stroke="#FFFFFF" stroke-width="2" stroke-miterlimit="10" x1="284.4" y1="380.1" x2="279.9" y2="425.3"/>
<path fill="none" stroke="#FFFFFF" stroke-width="2" stroke-miterlimit="10" d="M118.4,334.2l-4.5-19.7c0,0-25.6-12.2-28-18.2
	c-2.4-6,0-85,4.3-101.3c7.8-30.1,33.4-86.5,42.4-94.7c17.3-16,32.5-11.8,36.6-17.4c9.4-12.8,35.2-22.4,52.7-13.7s37.5,45,42.2,57.4
	c4.9,13.1,21.4,33.2,20.3,51.4c-0.7,11.6,27.4,23.2,23.1,46.8c-1.4,7.9-6.6,20.9-6.4,27.4c0.2,4.9,1.2,27.5,1.2,27.5"/>
<path fill="none" stroke="#FFFFFF" stroke-width="2" stroke-miterlimit="10" d="M114,314.5c0,0,27.1,26.5,37.7,29.3
	c6.9,1.8,62.8,19.4,82.5,19.4c5.4,0,39.2,3.9,51.7-10.4"/>
<path fill="none" stroke="#FFFFFF" stroke-width="2" stroke-miterlimit="10" d="M209,421.6c0,0-258.2,117.5-62.7,246.6"/>
<path fill="none" stroke="#FFFFFF" stroke-width="2" stroke-miterlimit="10" d="M310.2,491c0,0-43.5,57.7-29.9,67.2
	c13.6,9.6,35.2,58.6,35.2,58.6"/>
<path fill="none" stroke="#FFFFFF" stroke-width="2" stroke-miterlimit="10" d="M253.3,500.8c0,0-89.7,23.9-57.4,64.6
	s37.1,57.4,37.1,57.4"/>
<path fill="none" stroke="#FFFFFF" stroke-width="2" stroke-miterlimit="10" d="M321.6,491c0,0,10.7,86.4,13.1,79.2"/>
<path fill="none" stroke="#FFFFFF" stroke-width="2" stroke-miterlimit="10" d="M454.1,642.1c0,0-81.2,15.3-96.8,3.4
	c-15.5-12-47.4,9.4-60.8,5.3c-13.4-4.1-62.4,4.1-69.6-9"/>
<path fill="none" stroke="#FFFFFF" stroke-width="2" stroke-miterlimit="10" d="M519.9,652.6c0,0,77.2,10.2,103.1-20.3
	c26-30.5,15.5-34.2,14.3-48.6"/>
<path fill="none" stroke="#FFFFFF" stroke-width="2" stroke-miterlimit="10" d="M336.5,438.6c0,0,2.4,21.1,7.8,27.9
	c4,5.1,37.2,39.4,37.2,39.4"/>
<path fill="none" stroke="#FFFFFF" stroke-width="2" stroke-miterlimit="10" d="M370,430.1c0,0,7.7,25.4,16.6,39.6
	c3.7,6,20.2,28.6,20.2,28.6s-9.3,15.2-20.7,11.6"/>
<path fill="none" stroke="#FFFFFF" stroke-width="2" stroke-miterlimit="10" d="M404.2,421.6c0,0,5.8,44.1,34.1,75.2
	c6,6.6-14.8,13.9-19.6,13c-5.5-1.1-11.8-11.5-11.8-11.5"/>
<path fill="none" stroke="#FFFFFF" stroke-width="2" stroke-miterlimit="10" d="M439.4,434.8c0,0,2,34.7,6.6,37.3"/>
<path fill="none" stroke="#FFFFFF" stroke-width="2" stroke-miterlimit="10" d="M332,414.8c0,0-10.4-2.3-20,4.4
	c-3.4,2.4-10.9,3.2-9.9,19.4c0.5,7.6-1,14.6-1,14.6"/>
<path fill="none" stroke="#FFFFFF" stroke-width="2" stroke-miterlimit="10" d="M392,649.4c0,0-48.3-28.7-51-43.9
	c-2.7-15.2-24.6-38-36.3-34.9"/>
<path fill="none" stroke="#FFFFFF" stroke-width="2" stroke-miterlimit="10" d="M125.7,362.1c0,0,88.1-7.4,137,16.7
	c0,0,22.7,52.6,17.9,56.2c-4.8,3.6,20.5,18.2,20.5,18.2s9.8,20.1,14.4,23.9c11.9,9.5,34.6,36.7,43.5,39c8.3,2.1,15.8,4.7,22.5-10.2
	l4.6,3.9c0,0-17.3,48.6-12.9,60.7c6.8,19.2,36,59.8,42.1,62c15.3,5.6,92,18.7,104.6,20c4.9,0.5,9,23.4,12.1,29.8
	c4.4,9.1-7.4,31.5,1,35.8c8.6,4.4,14,11.5,29.7,17"/>
<path fill="none" stroke="#FFFFFF" stroke-width="2" stroke-miterlimit="10" d="M119.6,121.4c0,0,47.8-4.7,63.7-10.5
	s21.6,16.7,32.5,10.5c10.9-6.3,28.7-6.1,28.1-11.4c-0.5-5.3,7.6-7.7,6.6-9.3"/>
<path fill="none" stroke="#FFFFFF" stroke-width="2" stroke-miterlimit="10" d="M96.1,176.3c0,0,16.2,25.7,10.4,31.9
	c-5.7,6.2-13.5,28.1-14.1,26c-0.5-2.1,10.6,19.3,7.6,21.3c-3,2.1-6.1,3.6-14.1-4.2"/>
<path fill="none" stroke="#FFFFFF" stroke-width="2" stroke-miterlimit="10" d="M291.4,190.5c0,0,15.4,36.8,11.3,52.3"/>
<path fill="none" stroke="#FFFFFF" stroke-width="2" stroke-miterlimit="10" d="M419.8,470.3c0,0,28.2-4.6,41.2,11.9
	c14.7,18.7,9.1,26.6,9.1,26.6"/>
</svg>
